<?xml version="1.0" encoding="utf-8"?>
<!-- Generator: Adobe Illustrator 23.0.1, SVG Export Plug-In . SVG Version: 6.00 Build 0)  -->
<svg version="1.1" id="Layer_1" xmlns="http://www.w3.org/2000/svg" xmlns:xlink="http://www.w3.org/1999/xlink" x="0px" y="0px"
	 viewBox="0 0 315.6 237.7" style="enable-background:new 0 0 315.6 237.7;" xml:space="preserve">
<style type="text/css">
	.st0{fill-rule:evenodd;clip-rule:evenodd;fill:#F4E7EC;}
	.st1{fill-rule:evenodd;clip-rule:evenodd;fill:#FEFFFF;}
	.st2{fill-rule:evenodd;clip-rule:evenodd;fill:#FEF5FA;}
	.st3{fill-rule:evenodd;clip-rule:evenodd;fill:#FECF66;}
	.st4{fill-rule:evenodd;clip-rule:evenodd;fill:#FE6166;}
	.st5{fill-rule:evenodd;clip-rule:evenodd;fill:#EA464B;}
	.st6{fill-rule:evenodd;clip-rule:evenodd;fill:#D34449;}
	.st7{fill-rule:evenodd;clip-rule:evenodd;fill:#585973;}
	.st8{fill-rule:evenodd;clip-rule:evenodd;fill:#ECEFF1;}
	.st9{fill-rule:evenodd;clip-rule:evenodd;fill:#A7A39B;}
	.st10{fill-rule:evenodd;clip-rule:evenodd;fill:#B7B5B1;}
	.st11{fill:#B7B5B1;}
	.st12{fill:#A7A39B;}
	.st13{fill:#FE6166;}
	.st14{fill:#98CCD1;}
	.st15{fill:#FE7A7F;}
	.st16{fill:#EA464B;}
	.st17{fill-rule:evenodd;clip-rule:evenodd;fill:#F7DEE7;}
</style>
	<path id="Vector_41" class="st0" d="M87.9,190c-19.6,0-35.4,16-35.4,35.6c0,4.2,0.7,8.2,2.1,11.9h66.8c1.3-3.7,2.1-7.7,2.1-11.9
		C123.4,206,107.5,190,87.9,190z"/>
	<path id="Vector_42" class="st1" d="M114,201.6c-4-4.4-9.1-7.8-14.9-9.7c-2.2-0.6-4.6-1-7.1-1.2c-12.8-1-23.3,4.4-23.3,11.9
		c0,7.6,10.4,14.6,23.3,15.6c12.8,1,23.3-4.4,23.3-11.9C115.3,204.6,114.9,203.1,114,201.6z"/>
	<path id="Vector_43" class="st0" d="M113.7,201.7c-14.8,0-26.8,12.1-26.8,26.9c0,3.1,0.5,6.2,1.5,9h50.5c1-2.8,1.5-5.9,1.5-9
		C140.5,213.7,128.5,201.7,113.7,201.7z"/>
	<path id="Vector_44" class="st1" d="M133.4,210.4c-3-3.4-6.9-5.9-11.3-7.3c-1.7-0.5-3.5-0.8-5.3-0.9c-9.7-0.8-17.6,3.3-17.6,9
		s7.9,11,17.6,11.8c9.7,0.8,17.6-3.3,17.6-9C134.4,212.7,134,211.5,133.4,210.4z"/>
	<path id="Vector_45" class="st2" d="M134.3,209.7c-11.5,0-20.8,9.4-20.8,20.9c0,2.4,0.5,4.8,1.2,7h39.2c0.8-2.2,1.2-4.6,1.2-7
		C155.2,219,145.8,209.7,134.3,209.7z"/>
	<path id="Vector_46" class="st1" d="M149.7,216.5c-2.4-2.6-5.4-4.6-8.7-5.7c-1.3-0.4-2.7-0.6-4.2-0.7c-7.5-0.6-13.7,2.5-13.7,7
		c0,4.4,6.2,8.6,13.7,9.2c7.5,0.6,13.7-2.5,13.7-7C150.4,218.2,150.2,217.3,149.7,216.5z"/>
	<path id="Vector_47" class="st2" d="M149.8,237.7c-3.8-9.7-5.9-20-5.9-30.7c0-29.4,15.5-56.1,40.5-75.3c-13.6,16.4-21.5,36-21.5,57
		c0,17.7,5.6,34.3,15.4,48.9H149.8z"/>
	<path id="Vector_48" class="st1" d="M169.9,222.8c6.1,0,11,5,11,11.1c0,1.3-0.2,2.5-0.6,3.7h-20.8c-0.4-1.1-0.6-2.4-0.6-3.7
		C158.8,227.8,163.8,222.8,169.9,222.8z"/>
	<path id="Vector_49" class="st1" d="M184.4,131.8c-13.5,16.4-21.4,36-21.4,56.9c0,13.6,3.3,26.5,9.3,38.5h-10.6
		c-3.8-9.7-5.9-20-5.9-30.7C156,172.1,166.6,149.7,184.4,131.8z"/>
	<path id="Vector_68" class="st1" d="M261.3,97.6L215,131.9C215,131.9,239.8,118.6,261.3,97.6z"/>
	<path id="Vector_69" class="st3" d="M219.2,96.9c1.1-9,5.1-17.8,12-24.7c6.9-7,15.6-10.9,24.6-12.1c-1.1,9-5.1,17.8-12,24.7
		C236.9,91.7,228.2,95.8,219.2,96.9z"/>
	<path id="Vector_70" class="st1" d="M231.7,84.3c0.6-4.8,2.7-9.4,6.3-13.1c3.6-3.7,8.3-5.8,13-6.3c-0.6,4.8-2.7,9.4-6.3,13.1
		C241.1,81.6,236.4,83.7,231.7,84.3z"/>
	<path id="Vector_71" class="st4" d="M247.7,32.7l5.9,6c0.7,0.7,0.7,1.8,0,2.4l-13.3,13.4c-0.3,0.3-0.8,0.5-1.2,0.5h-11.9
		c-0.5,0-0.8-0.2-1.2-0.5l-5.9-6c-0.7-0.7-0.7-1.8,0-2.4l13.3-13.4c0.3-0.3,0.8-0.5,1.2-0.5h11.9C246.9,32.2,247.3,32.3,247.7,32.7z
		"/>
	<path id="Vector_72" class="st5" d="M283,68.3l-5.9-6c-0.7-0.7-1.7-0.7-2.4,0l-13.3,13.4c-0.3,0.3-0.5,0.8-0.5,1.2v11.9
		c0,0.5,0.2,0.8,0.5,1.2l5.9,6c0.7,0.7,1.7,0.7,2.4,0L283,82.6c0.3-0.3,0.5-0.8,0.5-1.2V69.5C283.6,69,283.3,68.6,283,68.3z"/>
	<path id="Vector_73" class="st6" d="M283,68.3l-5.9-6c-0.7-0.7-1.7-0.7-2.4,0l-13.3,13.4c-0.3,0.3-0.5,0.8-0.5,1.2v3.4
		c1,0.3,2.1,0.3,3.2,0c6.8-1.7,13.5-4.3,19.5-7.9v-3.1C283.6,69,283.3,68.6,283,68.3z"/>
	<path id="Vector_74" class="st7" d="M238.3,62.5c1.9-7.9,5.9-15.2,11.7-21c9-9.1,21.6-13.8,34.4-12.9c1.5,0.1,2.7,1.3,2.8,2.8
		c0.9,12.8-3.7,25.5-12.8,34.6c-5.8,5.8-13,9.9-20.9,11.8c-0.5,0.2-1.1,0-1.4-0.4l-13.3-13.4C238.3,63.5,238.1,63,238.3,62.5z"/>
	<path id="Vector_75" class="st8" d="M239.6,52.7c3-12.3,9.2-23.6,18.2-32.6c14.1-14.1,33.4-21.4,53.3-20c1.4,0.1,2.6,0.8,3.3,1.8
		l-63.5,63.8L240.2,55C239.6,54.4,239.4,53.6,239.6,52.7z"/>
	<path id="Vector_76" class="st9" d="M314,1.5c0.8,0.8,1.3,1.8,1.4,3c1.4,20-5.8,39.4-19.8,53.6c-8.9,8.9-20.1,15.3-32.4,18.3
		c-0.8,0.2-1.6,0-2.2-0.6l-10.4-10.4L314,1.5z"/>
	<path id="Vector_77" class="st10" d="M255.7,60.2l58.2-58.5c-1,16.7-8,32.5-19.9,44.5c-8.9,8.9-20.1,15.3-32.4,18.3
		c-0.8,0.2-1.6,0-2.2-0.6L255.7,60.2z"/>
	<path id="Vector_78" class="st9" d="M258.5,73.3l-7.9-7.9L265,50.8l0.8,0.8c0.3,0.3,0.5,0.8,0.5,1.2v11.9c0,0.5-0.2,0.8-0.5,1.2
		L258.5,73.3z"/>
	<path id="Vector_79" class="st4" d="M287.8,2.5c7.5-2.1,15.3-2.9,23.3-2.4c2.4,0.2,4.2,2,4.3,4.4c0.5,7.9-0.2,15.8-2.4,23.4
		L287.8,2.5z"/>
	<path id="Vector_80" class="st5" d="M314,1.5c0.8,0.8,1.3,1.8,1.4,3c0.5,7.9-0.2,15.8-2.4,23.4l-12.6-12.7L314,1.5z"/>
	<path id="Vector_81" class="st11" d="M291.2,42.5c5-5,5-13.1,0-18.1c-5-5-13-5-18,0c-5,5-5,13.1,0,18.1
		C278.2,47.4,286.3,47.4,291.2,42.5z"/>
	<path id="Vector_82" class="st4" d="M242.9,71.5l1.5,1.5c0.6,0.6,1.7,0.6,2.4,0l19-19c0.6-0.6,0.6-1.7,0-2.4l-1.5-1.5
		c-0.6-0.6-1.7-0.6-2.4,0l-18.9,19C242.3,69.8,242.3,70.9,242.9,71.5z"/>
	<path id="Vector_83" class="st12" d="M289.4,42.9c3.9-3.9,3.9-10.3,0-14.3c-3.9-3.9-10.3-3.9-14.2,0c-3.9,3.9-3.9,10.3,0,14.3
		C279.1,46.8,285.4,46.8,289.4,42.9z"/>
	<path id="Vector_84" class="st13" d="M289.3,40.6c3.9-3.9,3.9-10.3,0-14.3c-3.9-3.9-10.3-3.9-14.2,0c-3.9,3.9-3.9,10.3,0,14.3
		C279.1,44.5,285.4,44.5,289.3,40.6z"/>
	<path id="Vector_85" class="st14" d="M285.8,39.6c3.4-2,4.5-6.3,2.6-9.7c-2-3.4-6.3-4.6-9.7-2.6c-3.4,2-4.5,6.3-2.6,9.7
		C278.1,40.4,282.4,41.5,285.8,39.6z"/>
	<path id="Vector_86" class="st1" d="M279.5,28.5c2.7-1.6,6.2-0.6,7.8,2.1c1.6,2.8-2.9,0.1-5.6,1.6c-2.7,1.6-2.7,6.8-4.2,4.1
		C275.8,33.6,276.8,30.1,279.5,28.5z"/>
	<path id="Vector_87" class="st1" d="M243.4,46.4c3.4-9.2,8.8-17.7,15.8-24.8c8.8-8.9,19.7-15,31.5-18c-11.1,5-21.7,12.2-30.8,21.4
		C253.4,31.5,247.8,38.8,243.4,46.4z"/>
	<path id="Vector_88" class="st3" d="M207.7,108.5c0.8-6.3,3-12.6,6.6-18.2c-1.4,4.2-2.1,8.8-2.1,13.5c4.7,0.1,9.3-0.6,13.5-2.1
		C220.2,105.5,214,107.7,207.7,108.5z"/>
	<path id="Vector_89" class="st15" d="M228.6,40.1c5.9-5.9,10.1-11.3,9.4-12.1c-0.7-0.7-6.1,3.5-12,9.5c-5.9,5.9-10.1,11.3-9.4,12.1
		C217.3,50.3,222.7,46.1,228.6,40.1z"/>
	<path id="Vector_90" class="st16" d="M278.2,90c5.9-5.9,10.1-11.3,9.4-12.1c-0.7-0.7-6.1,3.5-12,9.5c-5.9,5.9-10.1,11.3-9.4,12.1
		C267,100.2,272.3,96,278.2,90z"/>
	<path id="Vector_91" class="st15" d="M253.4,65.1c5.9-5.9,10.1-11.3,9.4-12.1c-0.7-0.7-6.1,3.5-12,9.5c-5.9,5.9-10.1,11.3-9.4,12.1
		C242.1,75.3,247.5,71.1,253.4,65.1z"/>
	<path id="Vector_94" class="st3" d="M201.8,114.5c0.5-3.7,1.7-7.3,3.8-10.4c-0.8,2.4-1.2,5-1.2,7.8c2.7,0,5.3-0.4,7.8-1.2
		C209,112.8,205.4,114.1,201.8,114.5z"/>
	<path id="Vector_95" class="st1" d="M216.7,55.6l-33.4,47.1C183.4,102.7,196.1,77.4,216.7,55.6z"/>
	<path id="Vector_127" class="st1" d="M179.2,159.1c-8.8,12.8-12.8,28.2-10.5,44.6c1.5,10.6,5.5,20.8,11.6,30.1H172
		c-4-7.6-6.8-15.7-7.9-24C161.3,190.6,167.2,173.1,179.2,159.1z"/>
	<path id="Vector_128" class="st2" d="M191.8,210.8c11,0,20,9,20,20.1c0,2.4-0.4,4.7-1.1,6.7h-37.7c-0.8-2.1-1.1-4.4-1.1-6.7
		C171.8,219.8,180.8,210.8,191.8,210.8z"/>
	<path id="Vector_129" class="st1" d="M177.1,217.2c2.3-2.5,5.2-4.4,8.4-5.5c1.3-0.3,2.6-0.5,4-0.7c7.2-0.5,13.2,2.4,13.2,6.7
		c0,4.3-5.9,8.3-13.2,8.8c-7.2,0.5-13.2-2.4-13.2-6.7C176.4,219,176.6,218.1,177.1,217.2z"/>
	<path id="Vector_130" class="st17" d="M218,201.2c15,0,27.1,12.2,27.1,27.3c0,3.2-0.5,6.3-1.6,9.2h-51.1c-1-2.8-1.6-6-1.6-9.2
		C190.9,213.4,203,201.2,218,201.2z"/>
	<path id="Vector_131" class="st1" d="M198,210.1c3-3.4,7-6,11.4-7.4c1.7-0.5,3.5-0.8,5.4-0.9c9.8-0.8,17.8,3.4,17.8,9.2
		c0,5.8-8,11.2-17.8,11.9c-9.8,0.8-17.8-3.4-17.8-9.2C197,212.4,197.4,211.2,198,210.1z"/>
	<path id="Vector_132" class="st0" d="M253.2,189.3c19.9,0,36,16.2,36,36.2c0,4.3-0.8,8.3-2.1,12.2h-67.9c-1.4-3.8-2.1-7.9-2.1-12.2
		C217.2,205.5,233.3,189.3,253.2,189.3z"/>
	<path id="Vector_133" class="st1" d="M226.7,201c4.1-4.5,9.3-7.9,15.1-9.9c2.3-0.6,4.6-1,7.1-1.2c13.1-1,23.6,4.4,23.6,12.2
		c0,7.7-10.6,14.8-23.6,15.8c-13.1,1-23.6-4.4-23.6-12.2C225.3,204.1,225.9,202.6,226.7,201z"/>
	<path id="Vector_134" class="st1" d="M108.9,229c-4.9-1.5-51.5-15.7-51.5-15.7s20.4,14.8,17.3,14C71.5,226.4,0,212.1,0,212.1
		l87.3,22.5l-6.6-10.5L108.9,229z"/>
	<path id="Vector_135" class="st1" d="M181.7,230.9c5.9-1.5,62.3-15.7,62.3-15.7s-24.9,14.8-20.9,14c3.9-0.8,90.5-15.1,90.5-15.1
		l-105.9,22.5l8.1-10.5L181.7,230.9z"/>
</svg>
