<svg id="Layer_2" data-name="Layer 2" xmlns="http://www.w3.org/2000/svg" xmlns:xlink="http://www.w3.org/1999/xlink" viewBox="0 0 936.89 777.25"><defs><style>.cls-1{fill:url(#linear-gradient);}.cls-2{fill:url(#linear-gradient-2);}.cls-3{fill:url(#linear-gradient-3);}.cls-4{fill:#ccebff;}.cls-10,.cls-11,.cls-12,.cls-13,.cls-14,.cls-15,.cls-16,.cls-17,.cls-18,.cls-19,.cls-20,.cls-21,.cls-22,.cls-23,.cls-24,.cls-25,.cls-26,.cls-27,.cls-28,.cls-29,.cls-30,.cls-31,.cls-32,.cls-33,.cls-34,.cls-35,.cls-36,.cls-4,.cls-43,.cls-44,.cls-45,.cls-46,.cls-47,.cls-48,.cls-49,.cls-5,.cls-50,.cls-51,.cls-52,.cls-53,.cls-54,.cls-55,.cls-56,.cls-57,.cls-58,.cls-6,.cls-7,.cls-8,.cls-9{fill-rule:evenodd;}.cls-5{fill:#d9ae96;}.cls-6{fill:#fbe0d2;}.cls-7{fill:#e5baa1;}.cls-8{fill:#d5a58a;}.cls-9{fill:#c99d83;}.cls-10{fill:#efc9b4;}.cls-11{fill:#f1c8b1;}.cls-12{fill:#3c3c4c;}.cls-13{fill:#5b5c70;}.cls-14{fill:#0099f9;}.cls-15{fill:#014874;}.cls-16{fill:#71c8ff;}.cls-17{fill:#4b4c5e;}.cls-18{fill:#676875;}.cls-19{fill:#2e2e3b;}.cls-20{fill:#b2b3b8;}.cls-21{fill:#f4e7ec;}.cls-22{fill:#feffff;}.cls-23{fill:#fef5fa;}.cls-24{fill:#fdfaff;}.cls-25{fill:#001a29;}.cls-26{fill:#0d3d60;}.cls-27{fill:#4b86a7;}.cls-28{fill:#5c8094;}.cls-29{fill:#fecf66;}.cls-30,.cls-39{fill:#fe6166;}.cls-31,.cls-42{fill:#ea464b;}.cls-32{fill:#d34449;}.cls-33{fill:#585973;}.cls-34{fill:#eceff1;}.cls-35,.cls-38{fill:#a7a39b;}.cls-36,.cls-37{fill:#b7b5b1;}.cls-40{fill:#98ccd1;}.cls-41{fill:#fe7a7f;}.cls-43{fill:#e35454;}.cls-44{fill:#ff6161;}.cls-45{fill:#d9e8f2;}.cls-46{fill:#c5d2db;}.cls-47{fill:#f0be4a;}.cls-48{fill:#ffcf61;}.cls-49{fill:#ffc18a;}.cls-50{fill:#ffab61;}.cls-51{fill:#3f4c69;}.cls-52{fill:#999;}.cls-53{fill:#e3b752;}.cls-54{fill:#b3b3b3;}.cls-55{fill:#fff;}.cls-56{fill:#ffda82;}.cls-57{fill:#eef3f8;}.cls-58{fill:#f7dee7;}</style><linearGradient id="linear-gradient" y1="388.67" x2="936.89" y2="388.67" gradientUnits="userSpaceOnUse"><stop offset="0" stop-color="#7fbcff"/><stop offset="1" stop-color="#52d5ff"/></linearGradient><linearGradient id="linear-gradient-2" x1="38.48" y1="377.2" x2="936.89" y2="377.2" gradientUnits="userSpaceOnUse"><stop offset="0" stop-color="#54a6ff"/><stop offset="1" stop-color="#32b2ff"/></linearGradient><linearGradient id="linear-gradient-3" x1="80.7" y1="365.77" x2="936.89" y2="365.77" gradientUnits="userSpaceOnUse"><stop offset="0" stop-color="#027bff"/><stop offset="1" stop-color="#02a0ff"/></linearGradient></defs><title>rocket-illustration</title><path class="cls-1" d="M0,.2C.38,48.42,9.13,114.05,52,168.51c78.47,99.64,205.37,78.37,231.68,152.79,24.78,70.09-78.94,114-73.24,206.26C218.29,654.34,427,780,620.4,777.2,781,774.88,895.09,684.45,936.89,647.41V.1Z"/><path class="cls-2" d="M38.48.2c.37,46.8,8.76,110.48,49.89,163.34,75.24,96.7,196.93,76.06,222.16,148.27,23.76,68-75.7,110.63-70.23,200.17C247.81,635,448,757,633.4,754.25c154-2.25,263.4-90,303.49-126V.1Z"/><path class="cls-3" d="M80.7.19c.35,45.39,8.35,107.14,47.54,158.4C200,252.35,315.92,232.34,340,302.37c22.64,65.95-72.14,107.27-66.93,194.1C280.19,615.78,471,734,647.67,731.4c146.79-2.19,251-87.29,289.22-122.14V.1Z"/><path class="cls-4" d="M634.88,222.61c104.23,0,188.76,85,188.76,189.8a190.22,190.22,0,0,1-6.38,49.15H452.51a190.19,190.19,0,0,1-6.38-49.15C446.13,307.54,530.58,222.61,634.88,222.61Z"/><path class="cls-5" d="M509.14,370.45a4,4,0,0,1,.31,1.6l-8.66,101.67a3.94,3.94,0,0,1-3.87,3.82l-26.69-.23h-.08l-7.6-.08h-4.18a4,4,0,0,1-3.73-3.9l-7.75-101.66v-.46a.74.74,0,0,1,.07-.38h-1.59l-.16-.08h-.53l-.15-.08-.08-.07a1.06,1.06,0,0,0-.15-.15l-.07-.08-.08-.08-.08-.07-.07-.08-.08-.08-.07-.07-.08-.16-.08-.15v-.23l-.07-.15v-5.58a.51.51,0,0,1,.07-.31v-.15l.08-.15.08-.16.07-.3.08-.16.07-.15.08-.15.08-.15.07-.16.08-.15.07-.15.08-.16.08-.15.07-.15.08-.15.07-.16.08-.15.08-.15.07-.08.08-.07.07-.08.08-.08.08-.07.07-.08.08-.08.08-.07.15-.08.15-.08.15-.07.15-.08.16-.08.15-.07.15-.08.15-.07.15-.08.16-.08.15-.07.15-.08.15-.08.15-.07.16-.08.15-.08.15-.07.15-.08h1.52l17.87-.08,14.44-.07h.08l23.8-.16a6.14,6.14,0,0,1,6.15,6.12v3.21A3.41,3.41,0,0,1,509.14,370.45Z"/><path class="cls-4" d="M635.05,206.4c3.33,0,6.68.08,10,.23-106.66,5.2-191.57,93.87-191.57,202.42a202.22,202.22,0,0,0,6.84,52.44H440.35a205.71,205.71,0,0,1-6.84-52.44C433.51,297.14,523.74,206.4,635.05,206.4Z"/><path class="cls-6" d="M421.34,307.46A5.83,5.83,0,0,0,418,315l13.38,35.39a5.78,5.78,0,1,0,10.79-4.13l-13.38-35.39A5.78,5.78,0,0,0,421.34,307.46Z"/><path class="cls-7" d="M423,306.77a5.83,5.83,0,0,0-3.35,7.49l13.38,35.39a5.78,5.78,0,1,0,10.8-4.12l-13.38-35.4A5.78,5.78,0,0,0,423,306.77Z"/><path class="cls-8" d="M439.13,353.32a8.18,8.18,0,0,0,1.37-.3,5.83,5.83,0,0,0,3.35-7.49L431.91,313.8a9.64,9.64,0,0,0-1.37.31,5.83,5.83,0,0,0-3.34,7.49Z"/><path class="cls-9" d="M445.9,351.18l34.36.23a3.75,3.75,0,0,1,3.8,3.9L475.39,457a3.93,3.93,0,0,1-3.87,3.82l-34.36-.23a4,4,0,0,0,3.8-3.82l8.66-101.67A3.82,3.82,0,0,0,445.9,351.18Z"/><path class="cls-7" d="M425.45,351l28.05.23h.08a3.81,3.81,0,0,1,3.72,3.9L448.64,456.9a4,4,0,0,1-3.81,3.82h-.07l-11.71-.08H433a4,4,0,0,1-3.73-3.89L421.5,354.93a3.76,3.76,0,0,1,3.8-3.82Z"/><path class="cls-9" d="M427.81,351.11l27.21.15h.08a3.85,3.85,0,0,1,3.88,3.9l-.31,3.51-36.87.23-.3-4a3.81,3.81,0,0,1,3.57-3.82Z"/><path class="cls-10" d="M453,376.33a20.68,20.68,0,0,1,20.75,20.79,21,21,0,0,1-20.75,21,20.68,20.68,0,0,1-20.76-20.79A21,21,0,0,1,453,376.33Z"/><path class="cls-8" d="M424.23,341.7l56.18-.3a6.13,6.13,0,0,1,6.16,6.11v3.21a3,3,0,0,1-3,3L421,354a3,3,0,0,1-3-2.9v-3.22A6.42,6.42,0,0,1,424.23,341.7Z"/><path class="cls-7" d="M424.23,341.7l32.31-.15a6.14,6.14,0,0,1,6.16,6.12v3.21a3,3,0,0,1-3,3l-38.78.23a3,3,0,0,1-3-2.91V348A6.43,6.43,0,0,1,424.23,341.7Z"/><path class="cls-6" d="M453,384.28a12.85,12.85,0,0,1,12.85,12.84,13,13,0,0,1-12.85,13,12.85,12.85,0,0,1-12.85-12.84A13,13,0,0,1,453,384.28Z"/><path class="cls-11" d="M438,345.07h18.48a2.6,2.6,0,0,1,0,5.2H438a2.57,2.57,0,0,1-2.58-2.6A2.61,2.61,0,0,1,438,345.07Z"/><path class="cls-11" d="M425.68,345.07h3a2.6,2.6,0,0,1,0,5.2h-3a2.57,2.57,0,0,1-2.59-2.6A2.67,2.67,0,0,1,425.68,345.07Z"/><path class="cls-6" d="M453.65,349h1.52a1.3,1.3,0,1,1,0,2.6h-1.52a1.33,1.33,0,0,1-1.29-1.29A1.29,1.29,0,0,1,453.65,349Z"/><path class="cls-6" d="M448.94,342.77h2.89a2.45,2.45,0,0,1,0,4.9h-2.89a2.46,2.46,0,0,1-2.43-2.45A2.36,2.36,0,0,1,448.94,342.77Z"/><path class="cls-12" d="M744.58,435.11h5.25a5.44,5.44,0,0,1,5.4,5.43v4.28a5.44,5.44,0,0,1-5.4,5.43h-5.25a5.42,5.42,0,0,1-5.38-5.43v-4.28A5.42,5.42,0,0,1,744.58,435.11Z"/><path class="cls-12" d="M557.11,435.11h5.25a5.44,5.44,0,0,1,5.4,5.43v4.28a5.44,5.44,0,0,1-5.4,5.43h-5.25a5.43,5.43,0,0,1-5.39-5.43v-4.28A5.38,5.38,0,0,1,557.11,435.11Z"/><path class="cls-12" d="M534.46,439.62H785.57a11,11,0,0,0,10.56-9.55l19.54-177.72a11.23,11.23,0,0,0-11.25-12.77H559.62a14.55,14.55,0,0,0-14,12.77L526,430.07A8.35,8.35,0,0,0,534.46,439.62Z"/><path class="cls-13" d="M528,439.62H779.1a11,11,0,0,0,10.57-9.55l19.54-177.72a11.25,11.25,0,0,0-11.34-12.77H553.08A14.56,14.56,0,0,0,539,252.35L519.49,430.07A8.43,8.43,0,0,0,528,439.62Z"/><path class="cls-14" d="M528,431.6H779.1a3,3,0,0,0,2.66-2.45l19.55-177.72a3.31,3.31,0,0,0-3.35-3.9H553.08a6.55,6.55,0,0,0-6.14,5.65L527.39,430.91C527.39,431.45,527.47,431.6,528,431.6Z"/><path class="cls-15" d="M549.13,361.73h68.66a1.65,1.65,0,0,1,1.67,2.07,2.69,2.69,0,0,1-2.44,2.06H548.37a1.64,1.64,0,0,1-1.66-2.06A2.5,2.5,0,0,1,549.13,361.73Zm-3,18.42h68.65a1.66,1.66,0,0,1,1.68,2.07,2.67,2.67,0,0,1-2.44,2.06H545.33a1.65,1.65,0,0,1-1.66-2.06A2.52,2.52,0,0,1,546.09,380.15Zm1.52-9.25h68.65a1.66,1.66,0,0,1,1.68,2.07A2.67,2.67,0,0,1,615.5,375H546.85a1.64,1.64,0,0,1-1.66-2.06A2.58,2.58,0,0,1,547.61,370.9Z"/><path class="cls-16" d="M796.13,298l4.42-40.06H546.4L542.07,298Z"/><path class="cls-17" d="M553,435.11h5.24a5.44,5.44,0,0,1,5.4,5.43v4.28a5.44,5.44,0,0,1-5.4,5.43H553a5.44,5.44,0,0,1-5.4-5.43v-4.28A5.44,5.44,0,0,1,553,435.11Z"/><path class="cls-17" d="M740.56,435.11h5.25a5.45,5.45,0,0,1,5.4,5.43v4.28a5.45,5.45,0,0,1-5.4,5.43h-5.25a5.43,5.43,0,0,1-5.39-5.43v-4.28A5.37,5.37,0,0,1,740.56,435.11Z"/><path class="cls-18" d="M412.22,442.76H766.63a3.21,3.21,0,0,1,0,6.42H412.22a3.21,3.21,0,0,1,0-6.42Z"/><path class="cls-17" d="M393.75,446H666.51a7.8,7.8,0,0,1,0,15.59H393.75a7.8,7.8,0,0,1,0-15.59Z"/><path class="cls-12" d="M448,446h82a7.81,7.81,0,0,1-7.75,7.8H455.78A7.81,7.81,0,0,1,448,446Z"/><path class="cls-12" d="M609.05,446H786.18a7.8,7.8,0,0,1,0,15.59H609.05a7.8,7.8,0,0,1,0-15.59Z"/><path class="cls-19" d="M721.09,450.25h13.85a3.29,3.29,0,0,1,0,6.57H721.09a3.29,3.29,0,0,1,0-6.57Z"/><path class="cls-17" d="M724.89,451.32h9.35a2.22,2.22,0,1,1,0,4.43h-9.35a2.22,2.22,0,0,1,0-4.43Z"/><path class="cls-20" d="M726.72,451.32h9.36a2.22,2.22,0,0,1,0,4.43h-9.36a2.22,2.22,0,0,1,0-4.43Z"/><path class="cls-19" d="M616.11,450.25h85.07a3.29,3.29,0,0,1,0,6.57H616.11a3.25,3.25,0,0,1-3.27-3.28A3.3,3.3,0,0,1,616.11,450.25Z"/><path class="cls-17" d="M618.62,450.25h85.07a3.29,3.29,0,0,1,0,6.57H618.62a3.29,3.29,0,0,1,0-6.57Z"/><path class="cls-19" d="M754.93,450.25h.9a3.29,3.29,0,0,1,0,6.57h-.9a3.29,3.29,0,0,1,0-6.57Z"/><path class="cls-17" d="M756.68,450.25h.9a3.29,3.29,0,0,1,0,6.57h-.9a3.26,3.26,0,0,1-3.28-3.28A3.22,3.22,0,0,1,756.68,450.25Z"/><path class="cls-19" d="M756.9,451.93h.45a1.68,1.68,0,1,1,0,3.36h-.45a1.69,1.69,0,0,1-1.67-1.68A1.64,1.64,0,0,1,756.9,451.93Z"/><path class="cls-19" d="M767.62,450.25h.92a3.29,3.29,0,0,1,0,6.57h-.92a3.29,3.29,0,0,1,0-6.57Z"/><path class="cls-17" d="M769.37,450.25h.92a3.29,3.29,0,0,1,0,6.57h-.92a3.25,3.25,0,0,1-3.27-3.28A3.21,3.21,0,0,1,769.37,450.25Z"/><path class="cls-21" d="M523.89,395.14a35.51,35.51,0,0,0-35.42,35.62,34.41,34.41,0,0,0,2,11.92h66.82a36.38,36.38,0,0,0,2-11.92A35.57,35.57,0,0,0,523.89,395.14Z"/><path class="cls-22" d="M550.05,406.68A34.89,34.89,0,0,0,535.14,397a40.1,40.1,0,0,0-7.06-1.22c-12.84-1-23.27,4.35-23.27,11.92s10.43,14.6,23.27,15.6,23.26-4.36,23.26-11.93A9.67,9.67,0,0,0,550.05,406.68Z"/><path class="cls-21" d="M549.67,406.76a26.82,26.82,0,0,0-26.77,26.9,27.59,27.59,0,0,0,1.53,9H574.9a27.33,27.33,0,0,0,1.53-9A26.78,26.78,0,0,0,549.67,406.76Z"/><path class="cls-22" d="M569.44,415.47a26.65,26.65,0,0,0-11.25-7.34,30.42,30.42,0,0,0-5.33-.92c-9.73-.76-17.55,3.29-17.55,9s7.9,11,17.55,11.78,17.57-3.29,17.57-9A7.65,7.65,0,0,0,569.44,415.47Z"/><path class="cls-23" d="M570.34,414.78a20.92,20.92,0,0,0-20.83,21,21.72,21.72,0,0,0,1.22,7H590a22,22,0,0,0,1.22-7A20.88,20.88,0,0,0,570.34,414.78Z"/><path class="cls-22" d="M585.71,421.58a21.17,21.17,0,0,0-8.75-5.73,18.72,18.72,0,0,0-4.19-.69c-7.52-.61-13.68,2.53-13.68,7s6.16,8.56,13.68,9.17,13.69-2.52,13.69-7A5.12,5.12,0,0,0,585.71,421.58Z"/><path class="cls-23" d="M585.85,442.76A84.09,84.09,0,0,1,580,412.11c0-29.43,15.5-56.11,40.52-75.3-13.6,16.44-21.52,36-21.52,57,0,17.65,5.56,34.32,15.44,48.92Z"/><path class="cls-22" d="M605.93,427.93A11.07,11.07,0,0,1,617,439a12.49,12.49,0,0,1-.62,3.75H595.5a12.12,12.12,0,0,1-.6-3.75A11,11,0,0,1,605.93,427.93Z"/><path class="cls-22" d="M620.45,336.89c-13.53,16.43-21.37,36-21.37,56.95a84.94,84.94,0,0,0,9.27,38.45H597.8a83.49,83.49,0,0,1-5.86-30.66C592,377.25,602.65,354.77,620.45,336.89Z"/><path class="cls-16" d="M779,313.34a1.05,1.05,0,0,0-1.07-1.22h-76.4a2,2,0,0,0-1.9,1.76c-2.43,21.94-4.78,43.95-7.22,65.89a1,1,0,0,0,1.07,1.22h76.4a2,2,0,0,0,1.89-1.75C774.17,357.22,776.51,335.28,779,313.34Z"/><path class="cls-15" d="M784.27,357.76a1.05,1.05,0,0,0-1.06-1.23H706.72a2,2,0,0,0-1.89,1.76c-2.44,21.94-4.79,43.95-7.23,65.89a1.06,1.06,0,0,0,1.08,1.23h76.4a2,2,0,0,0,1.89-1.76Q780.62,390.62,784.27,357.76Z"/><path class="cls-14" d="M779.25,361.88a.84.84,0,0,0-.83-1h-68.2a1.62,1.62,0,0,0-1.51,1.38c-2,17.73-3.88,35.39-5.86,53.12a.85.85,0,0,0,.84,1h68.18a1.62,1.62,0,0,0,1.52-1.38C775.37,397.28,777.35,379.62,779.25,361.88Z"/><path class="cls-24" d="M563.5,273.6h24.4a1.65,1.65,0,0,1,1.68,2.06,2.67,2.67,0,0,1-2.5,2.06H562.67a1.65,1.65,0,0,1-1.68-2.06A2.75,2.75,0,0,1,563.5,273.6Z"/><path class="cls-24" d="M562,281.62h39.53a1.66,1.66,0,0,1,1.68,2.06,2.67,2.67,0,0,1-2.44,2.07H561.22a1.65,1.65,0,0,1-1.66-2.07A2.51,2.51,0,0,1,562,281.62Z"/><path class="cls-24" d="M608.29,281.62h4.32a1.66,1.66,0,0,1,1.68,2.06,2.67,2.67,0,0,1-2.44,2.07h-4.33a1.66,1.66,0,0,1-1.68-2.07A2.62,2.62,0,0,1,608.29,281.62Z"/><path class="cls-19" d="M769.59,451.93h.47a1.68,1.68,0,0,1,0,3.36h-.47a1.69,1.69,0,0,1-1.66-1.68A1.64,1.64,0,0,1,769.59,451.93Z"/><path class="cls-22" d="M575.13,306.08c12.62,0,21.68,10.25,20.22,22.93S582.58,352,570,352,548.31,341.7,549.74,329,562.51,306.08,575.13,306.08Z"/><path class="cls-16" d="M581.21,344.53a18.86,18.86,0,0,1-10.94,3.59,15.55,15.55,0,0,1-10.12-3.59l.46-3.82c.7-6.42,6-11.62,11.86-11.62s10,5.2,9.21,11.62Z"/><path class="cls-16" d="M573.08,315.41h1.38a4.41,4.41,0,0,1,4.4,5l-.61,5.28a5.78,5.78,0,0,1-5.54,5h-1.38a4.4,4.4,0,0,1-4.4-5l.61-5.28A5.7,5.7,0,0,1,573.08,315.41Z"/><path class="cls-15" d="M607,309.22h24.41a1.71,1.71,0,0,1,1.74,2.06,2.51,2.51,0,0,1-2.42,2.06h-24.4a1.73,1.73,0,0,1-1.75-2.06A2.5,2.5,0,0,1,607,309.22Z"/><path class="cls-15" d="M606,317.55H630.4a1.73,1.73,0,0,1,1.75,2.06,2.59,2.59,0,0,1-2.44,2.07H605.32a1.74,1.74,0,0,1-1.75-2.07A2.58,2.58,0,0,1,606,317.55Z"/><path class="cls-25" d="M385.54,461.49H845.77a9.17,9.17,0,0,1,0,18.34H385.54a9.17,9.17,0,0,1,0-18.34Z"/><path class="cls-26" d="M385.54,461.49H701a9.17,9.17,0,0,1,0,18.34H385.54a9.17,9.17,0,0,1,0-18.34Z"/><path class="cls-27" d="M556.67,461.49h73.89a9.17,9.17,0,0,1,0,18.34H556.67a9.17,9.17,0,0,1,0-18.34Z"/><path class="cls-28" d="M480,461.49h28.05a9.17,9.17,0,0,1,0,18.34H480a9.17,9.17,0,0,1,0-18.34Z"/><path class="cls-15" d="M661.34,319.84a53.77,53.77,0,0,1,2.74-8.33l-.46-.46a1.18,1.18,0,0,0-.29-.31,1.82,1.82,0,0,1-1.08.31H648.42a1.87,1.87,0,0,1-1.36-.61l-6.93-7a2.5,2.5,0,0,1-.38-.53c-2,1.45-3.35,2.22-3.73,1.83-.82-.84,4.11-7.11,11-14.06s13.15-11.93,14-11.09c.38.39-.6,2.22-2.67,4.82h12.47a1.91,1.91,0,0,1,1.37.61l.15.15A77.67,77.67,0,0,1,684,270.46a79.49,79.49,0,0,1,35-20.56l.38-.08a13.87,13.87,0,0,1,1.61-.38H721l.77-.15.38-.08.76-.15H723l.38-.08.38-.08.38-.07c.54-.08,1.14-.23,1.68-.31l.39-.07.38-.08.44-.08.46-.07.46-.08.45-.08.38-.07.46-.08.46-.07.38-.08.45-.08.38-.08h22.28l-2.59,3.06c.08.69.08,1.46.15,2.14s.09,1.46.09,2.14v2.14a15.93,15.93,0,0,1-.09,2.07v1.37l.47,2.68v.08l-.09.76v1.38l-.07.38-.08.46v.07l-.08.46-.06.61v.16l-.09.38-.07.46-.08.38-.08.46-.06.46-.09.38-.07.46-.08.46-.08.45-.06.46-.09.39-.08.38c-.07.53-.21,1.14-.3,1.68l-.08.38-.06.38-.09.39v.07l-.15.77-.08.38-.15.76v.08a16.09,16.09,0,0,0-.38,1.6l-.06.39a80.87,80.87,0,0,1-35.13,46.86l.16.15v12.69c2.57-2.07,4.39-3.14,4.77-2.68.85.84-4.1,7.11-11,14.07s-13.14,11.92-14,11.08c-.38-.38.38-1.76,1.84-3.75a1.3,1.3,0,0,1-.54-.38l-6.92-7a1.92,1.92,0,0,1-.61-1.38V335.43a1.84,1.84,0,0,1,.31-1.07,1.22,1.22,0,0,1-.31-.3l-.46-.46a49,49,0,0,1-8.28,2.75,1.66,1.66,0,0,1-1.66-.46L675,334.21a49,49,0,0,1-36.56,24.46,49.39,49.39,0,0,1,24.33-36.77l-1.68-1.68C661.34,321.07,661.2,320.45,661.34,319.84Z"/><path class="cls-4" d="M822.58,328.33l-6.53,1.75a1.61,1.61,0,0,0-1.15,1.15,1.58,1.58,0,0,0,.39,1.53l4.79,4.82a1.58,1.58,0,0,0,1.51.38,1.6,1.6,0,0,0,1.14-1.15l1.75-6.57a1.6,1.6,0,0,0-.38-1.53A1.57,1.57,0,0,0,822.58,328.33Z"/><path class="cls-22" d="M697.31,302.72,651,337S675.86,323.74,697.31,302.72Z"/><path class="cls-29" d="M655.26,302a42.22,42.22,0,0,1,36.57-36.76A42.22,42.22,0,0,1,655.26,302Z"/><path class="cls-22" d="M667.72,289.42A22.3,22.3,0,0,1,674,276.35,21.89,21.89,0,0,1,687,270a22.24,22.24,0,0,1-6.32,13.07A22.63,22.63,0,0,1,667.72,289.42Z"/><path class="cls-30" d="M683.7,237.82l5.92,6a1.71,1.71,0,0,1,0,2.45l-13.3,13.38a1.82,1.82,0,0,1-1.22.53H663.24a1.63,1.63,0,0,1-1.22-.53l-5.93-6a1.73,1.73,0,0,1,0-2.44l13.31-13.38a1.79,1.79,0,0,1,1.21-.53h11.86A1.62,1.62,0,0,1,683.7,237.82Z"/><path class="cls-31" d="M719.05,273.37l-5.94-6a1.67,1.67,0,0,0-2.42,0l-13.32,13.38a1.89,1.89,0,0,0-.53,1.22v11.93a1.62,1.62,0,0,0,.53,1.22l5.94,6a1.69,1.69,0,0,0,2.43,0l13.31-13.37a1.9,1.9,0,0,0,.53-1.23V274.59A1.85,1.85,0,0,0,719.05,273.37Z"/><path class="cls-32" d="M719.05,273.37l-5.94-6a1.67,1.67,0,0,0-2.42,0l-13.32,13.38a1.89,1.89,0,0,0-.53,1.22v3.44a5.62,5.62,0,0,0,3.2,0,70.94,70.94,0,0,0,19.46-7.87v-3.06A1.41,1.41,0,0,0,719.05,273.37Z"/><path class="cls-33" d="M674.26,267.56a44.55,44.55,0,0,1,11.71-21,44,44,0,0,1,34.36-12.92,3,3,0,0,1,2.81,2.83,44.34,44.34,0,0,1-33.75,46.32,1.42,1.42,0,0,1-1.43-.38L674.64,269A1.46,1.46,0,0,1,674.26,267.56Z"/><path class="cls-34" d="M675.63,257.85a68.58,68.58,0,0,1,71.46-52.52,4.61,4.61,0,0,1,3.36,1.76L687,270.84l-10.72-10.77A2.2,2.2,0,0,1,675.63,257.85Z"/><path class="cls-35" d="M750.07,206.63a4.84,4.84,0,0,1,1.37,3,68.78,68.78,0,0,1-52.23,71.86,2.19,2.19,0,0,1-2.22-.61l-10.41-10.4Z"/><path class="cls-36" d="M691.68,265.26l58.15-58.47a68.72,68.72,0,0,1-52.31,62.75,2.15,2.15,0,0,1-2.19-.61Z"/><path class="cls-35" d="M694.49,278.41l-7.91-8L701,255.94l.77.76a1.84,1.84,0,0,1,.53,1.22v11.93a1.62,1.62,0,0,1-.53,1.22Z"/><path class="cls-30" d="M723.83,207.63a69.27,69.27,0,0,1,23.26-2.37,4.61,4.61,0,0,1,4.34,4.35,69.17,69.17,0,0,1-2.35,23.4Z"/><path class="cls-31" d="M750.07,206.63a4.78,4.78,0,0,1,1.36,3,69.17,69.17,0,0,1-2.35,23.4l-12.62-12.69Z"/><path class="cls-37" d="M727.23,247.56a12.79,12.79,0,0,0,0-18.05,12.62,12.62,0,0,0-17.94,0,12.81,12.81,0,0,0,0,18.05A12.64,12.64,0,0,0,727.23,247.56Z"/><path class="cls-30" d="M678.9,276.58l1.53,1.53a1.75,1.75,0,0,0,2.36,0l19-19a1.78,1.78,0,0,0,0-2.37l-1.53-1.53a1.72,1.72,0,0,0-2.34,0l-18.94,19A1.71,1.71,0,0,0,678.9,276.58Z"/><path class="cls-38" d="M725.38,248a10.13,10.13,0,0,0,0-14.27,10,10,0,0,0-14.19,0,10.13,10.13,0,0,0,0,14.27A10,10,0,0,0,725.38,248Z"/><path class="cls-39" d="M725.35,245.67a10.13,10.13,0,0,0,0-14.27,10,10,0,0,0-14.18,0,10.11,10.11,0,0,0,0,14.27A10,10,0,0,0,725.35,245.67Z"/><path class="cls-40" d="M721.8,244.68a7.14,7.14,0,0,0,2.58-9.72,7.06,7.06,0,0,0-9.66-2.6,7.14,7.14,0,0,0-2.59,9.71A7.07,7.07,0,0,0,721.8,244.68Z"/><path class="cls-22" d="M715.47,233.62a5.67,5.67,0,0,1,7.75,2.06c1.61,2.75-2.89.08-5.63,1.61s-2.65,6.8-4.17,4.05A5.68,5.68,0,0,1,715.47,233.62Z"/><path class="cls-22" d="M679.44,251.5a68.79,68.79,0,0,1,47.28-42.8,103.15,103.15,0,0,0-30.78,21.4A101.91,101.91,0,0,0,679.44,251.5Z"/><path class="cls-29" d="M643.71,313.57a42.4,42.4,0,0,1,6.62-18.19,39.71,39.71,0,0,0-2.07,13.53,39,39,0,0,0,13.46-2.06A40.54,40.54,0,0,1,643.71,313.57Z"/><path class="cls-41" d="M664.59,245.22c5.91-5.94,10.12-11.33,9.41-12.05s-6.07,3.52-12,9.46-10.12,11.34-9.4,12.05S658.69,251.16,664.59,245.22Z"/><path class="cls-42" d="M714.24,295.13c5.91-5.94,10.12-11.34,9.41-12.06s-6.07,3.52-12,9.46-10.12,11.34-9.42,12.06S708.33,301.07,714.24,295.13Z"/><path class="cls-41" d="M689.42,270.23c5.91-5.94,10.12-11.34,9.41-12.05s-6.09,3.52-12,9.46-10.11,11.33-9.39,12.05S683.51,276.17,689.42,270.23Z"/><path class="cls-22" d="M681.87,212.14l-6.54,1.76A1.56,1.56,0,0,0,674.2,215a1.6,1.6,0,0,0,.38,1.53l4.78,4.82a1.59,1.59,0,0,0,1.52.38,1.57,1.57,0,0,0,1.14-1.15l1.75-6.57a1.58,1.58,0,0,0-.38-1.53A1.61,1.61,0,0,0,681.87,212.14Z"/><path class="cls-22" d="M689.09,205.49l-5.39,1.45a1.19,1.19,0,0,0-.91.92,1.39,1.39,0,0,0,.29,1.3l4,4a1.35,1.35,0,0,0,1.29.31,1.23,1.23,0,0,0,.91-.92l1.45-5.43a1.36,1.36,0,0,0-.31-1.3A1.34,1.34,0,0,0,689.09,205.49Z"/><path class="cls-29" d="M637.77,319.61a24.5,24.5,0,0,1,3.81-10.39,23.77,23.77,0,0,0-1.22,7.79,23.53,23.53,0,0,0,7.75-1.22A24.31,24.31,0,0,1,637.77,319.61Z"/><path class="cls-22" d="M652.68,260.68l-33.37,47.08C619.37,307.76,632.15,282.54,652.68,260.68Z"/><path class="cls-14" d="M730.52,312.12h-29a2,2,0,0,0-1.9,1.76l-4.87,44.49.54.53a2.1,2.1,0,0,0,.54.39,11.07,11.07,0,0,0-1.37,2.06l-.23,1.76c1.44,0,7.29-4.74,13.76-11.16,6.91-7,11.86-13.23,11-14.07-.38-.38-2.2.61-4.78,2.68V327.87l-.16-.16A76.75,76.75,0,0,0,728.7,316,5.56,5.56,0,0,1,730.52,312.12Z"/><path class="cls-22" d="M715.17,332.15H754.7a1.75,1.75,0,0,1,1.75,2.06,2.53,2.53,0,0,1-2.44,2.07H714.48a1.74,1.74,0,0,1-1.75-2.07A2.67,2.67,0,0,1,715.17,332.15Z"/><path class="cls-22" d="M761.46,332.15h4.34a1.74,1.74,0,0,1,1.75,2.06,2.6,2.6,0,0,1-2.44,2.07h-4.32a1.73,1.73,0,0,1-1.75-2.07A2.65,2.65,0,0,1,761.46,332.15Z"/><path class="cls-22" d="M716.54,324.12h24.4a1.75,1.75,0,0,1,1.75,2.07,2.6,2.6,0,0,1-2.44,2.06h-24.4a1.74,1.74,0,0,1-1.75-2.06A2.61,2.61,0,0,1,716.54,324.12Z"/><path class="cls-24" d="M713.8,376.64h24.41A1.73,1.73,0,0,1,740,378.7a2.53,2.53,0,0,1-2.44,2.07h-24.4a1.74,1.74,0,0,1-1.75-2.07A2.58,2.58,0,0,1,713.8,376.64Z"/><path class="cls-24" d="M712.73,385H727a1.78,1.78,0,0,1,1.81,2.06,2.37,2.37,0,0,1-2.28,2.07H712.27a1.78,1.78,0,0,1-1.81-2.07A2.29,2.29,0,0,1,712.73,385Z"/><path class="cls-15" d="M766,279.48h24.4a1.74,1.74,0,0,1,1.75,2.07,2.52,2.52,0,0,1-2.43,2.06H765.26a1.74,1.74,0,0,1-1.75-2.06A2.6,2.6,0,0,1,766,279.48Z"/><path class="cls-15" d="M765,287.51H778a1.79,1.79,0,0,1,1.83,2.06,2.39,2.39,0,0,1-2.29,2.07H764.58a1.8,1.8,0,0,1-1.83-2.07A2.43,2.43,0,0,1,765,287.51Z"/><path class="cls-43" d="M676.09,474.56h8.6a5.28,5.28,0,0,1,0,10.55h-8.6a5.28,5.28,0,0,1,0-10.55Z"/><path class="cls-44" d="M676.09,474.56h8.6a5.2,5.2,0,0,1,4.1,2,5.3,5.3,0,0,1-5.24,4.81H675a5.24,5.24,0,0,1-4.12-2A5.31,5.31,0,0,1,676.09,474.56Z"/><path class="cls-45" d="M675.19,473.56h2.73a6.27,6.27,0,0,1,0,12.54h-2.73a6.27,6.27,0,0,1,0-12.54Z"/><path class="cls-46" d="M674.58,486a6.3,6.3,0,1,1,5.62-6.26A6.29,6.29,0,0,1,674.58,486Z"/><path class="cls-47" d="M567.46,473.56H671.83a6.27,6.27,0,0,1,0,12.54H567.46a6.27,6.27,0,0,1,0-12.54Z"/><path class="cls-48" d="M567.46,473.56H671.83a6.29,6.29,0,0,1,6.24,6.27H564.34a3,3,0,0,1-2.82-1.83A6.16,6.16,0,0,1,567.46,473.56Z"/><path class="cls-49" d="M567.46,473.56h2.74a6.27,6.27,0,0,1,0,12.54h-2.74a6.27,6.27,0,0,1,0-12.54Z"/><path class="cls-50" d="M571.1,473.64a6.31,6.31,0,0,1,5.33,6.19,5.38,5.38,0,1,1-10.64,0A6.31,6.31,0,0,1,571.1,473.64Z"/><path class="cls-51" d="M556.44,477.31h9.88a2.52,2.52,0,0,1,0,5h-9.88a2.52,2.52,0,0,1,0-5Z"/><path class="cls-52" d="M556.44,477.31h3.27a2.52,2.52,0,0,1,0,5h-3.27a2.52,2.52,0,0,1,0-5Z"/><path class="cls-53" d="M596.72,478.46h5.71a1.38,1.38,0,0,1,0,2.75h-5.71a1.38,1.38,0,0,1,0-2.75Z"/><path class="cls-53" d="M591.71,478.46h1.51a1.38,1.38,0,0,1,0,2.75h-1.51a1.38,1.38,0,0,1,0-2.75Z"/><path class="cls-54" d="M556.13,478.84h1.3a1,1,0,0,1,0,2h-1.3a1,1,0,0,1-1-1A1,1,0,0,1,556.13,478.84Z"/><path class="cls-55" d="M679.67,476.39a2.68,2.68,0,0,1,2.35.54c.31.46-.31,1-1.3,1.14a2.65,2.65,0,0,1-2.35-.53C678.07,477.08,678.68,476.62,679.67,476.39Z"/><path class="cls-56" d="M661.2,474.71H669a1.93,1.93,0,0,1,1.91,1.84,1.88,1.88,0,0,1-1.91,1.83H661.2a1.84,1.84,0,1,1,0-3.67Z"/><path class="cls-56" d="M579.77,474.94h5.7a1.38,1.38,0,0,1,0,2.75h-5.7a1.38,1.38,0,0,1,0-2.75Z"/><path class="cls-57" d="M468.71,461.49h78.75c-7.67,0-16.12,6.34-18.63,14.06l-4.62,14.07H445.37L450,475.55C452.59,467.83,461,461.49,468.71,461.49Z"/><path class="cls-51" d="M460.34,474.25h30.11a1.23,1.23,0,0,1,1.21,1.61,2.27,2.27,0,0,1-2,1.6H459.51a1.22,1.22,0,0,1-1.22-1.6A2.3,2.3,0,0,1,460.34,474.25Z"/><path class="cls-51" d="M466.88,467.75h44.93a1.07,1.07,0,0,1,1,1.61,2.59,2.59,0,0,1-2.13,1.6H465.74a1.06,1.06,0,0,1-1-1.6A2.46,2.46,0,0,1,466.88,467.75Z"/><path class="cls-4" d="M830.11,320.45l-6.53,1.76a1.57,1.57,0,0,0-1.14,1.15,1.61,1.61,0,0,0,.38,1.53l4.78,4.81a1.61,1.61,0,0,0,2.66-.76l1.75-6.58a1.53,1.53,0,0,0-1.9-1.91Z"/><path class="cls-4" d="M458.52,281.7,452,283.46a1.57,1.57,0,0,0-1.14,1.14,1.6,1.6,0,0,0,.38,1.53L456,291a1.61,1.61,0,0,0,2.66-.77l1.75-6.57a1.6,1.6,0,0,0-.38-1.53A1.54,1.54,0,0,0,458.52,281.7Z"/><path class="cls-4" d="M466.05,273.82l-6.54,1.76a1.63,1.63,0,0,0-.76,2.68l4.79,4.81a1.56,1.56,0,0,0,1.52.39,1.6,1.6,0,0,0,1.14-1.15l1.74-6.58a1.57,1.57,0,0,0-.38-1.52A1.51,1.51,0,0,0,466.05,273.82Z"/><path class="cls-27" d="M384,461.49h45.61a9.17,9.17,0,0,1,0,18.34H384a9.17,9.17,0,0,1,0-18.34Z"/><path class="cls-22" d="M615.2,364.18a62.44,62.44,0,0,0-10.49,44.64,74.37,74.37,0,0,0,11.55,30.12H608a72.46,72.46,0,0,1-7.89-24C597.33,395.75,603.19,378.17,615.2,364.18Z"/><path class="cls-23" d="M627.82,415.85a20.08,20.08,0,0,1,20,20.1,19.49,19.49,0,0,1-1.14,6.73H609a20.17,20.17,0,0,1,18.86-26.83Z"/><path class="cls-22" d="M613.08,422.35a19.54,19.54,0,0,1,8.42-5.5,32.1,32.1,0,0,1,4-.69c7.23-.54,13.15,2.44,13.15,6.72s-5.85,8.26-13.15,8.79-13.14-2.44-13.14-6.72A6.28,6.28,0,0,1,613.08,422.35Z"/><path class="cls-58" d="M654,406.3a27.23,27.23,0,0,1,27.14,27.28,26.34,26.34,0,0,1-1.6,9.18H628.43a28,28,0,0,1-1.6-9.18A27.27,27.27,0,0,1,654,406.3Z"/><path class="cls-22" d="M634.06,415.16a26.62,26.62,0,0,1,11.4-7.41,29,29,0,0,1,5.39-.92c9.82-.76,17.79,3.36,17.79,9.17s-8,11.16-17.79,11.93-17.78-3.36-17.78-9.17A6.08,6.08,0,0,1,634.06,415.16Z"/><path class="cls-21" d="M689.24,394.37a36.1,36.1,0,0,1,36,36.23,37.79,37.79,0,0,1-2,12.16H655.33a36.38,36.38,0,0,1,33.91-48.39Z"/><path class="cls-22" d="M662.71,406.14a35.28,35.28,0,0,1,15.13-9.86,42.38,42.38,0,0,1,7.14-1.22c13.09-1,23.64,4.43,23.64,12.15S698.07,422,685,423s-23.64-4.44-23.64-12.16A9.72,9.72,0,0,1,662.71,406.14Z"/><path class="cls-22" d="M545,434.12c-4.87-1.45-51.47-15.75-51.47-15.75s20.44,14.83,17.25,14S436,417.23,436,417.23l87.34,22.47-6.61-10.55Z"/><path class="cls-22" d="M617.71,436c5.86-1.45,62.34-15.74,62.34-15.74s-24.86,14.82-20.92,14,90.56-15.13,90.56-15.13l-105.9,22.47,8.05-10.55Z"/></svg>