<svg width="470" height="480" viewBox="0 0 470 480" fill="none" xmlns="http://www.w3.org/2000/svg">
<circle cx="234.5" cy="252.5" r="227.5" fill="#EAF6FF"/>
<circle cx="234.5" cy="227.5" r="227.5" fill="#CEE9FF"/>
<path d="M38.0451 160.084C38.0451 167.229 43.8297 173.034 50.9492 173.034H109.018C115.915 173.034 121.7 178.616 121.7 185.761C121.7 192.683 116.138 198.488 109.018 198.488H77.87C70.3055 198.488 64.0759 204.74 64.0759 212.331C64.0759 219.923 70.3055 226.175 77.87 226.175L192.005 226.621L194.008 259.443L15.3515 258.327C6.89706 258.327 0 265.249 0 273.733C0 282.218 6.89706 289.14 15.3515 289.14H54.954C63.4084 289.14 70.3055 296.061 70.3055 304.546V328.437L413.601 327.99V311.021C413.601 301.42 406.037 293.829 396.47 293.829L343.963 293.605V252.522H453.648C462.325 252.522 469.222 245.6 469.222 236.892C469.222 228.184 462.325 221.262 453.648 221.262H402.032C402.032 207.866 391.13 196.925 377.781 196.925H344.853V172.811H436.74C443.859 172.811 449.644 167.005 449.644 159.86C449.644 152.715 443.859 146.91 436.74 146.91H50.9492C43.8297 147.133 38.0451 152.939 38.0451 160.084Z" fill="#0099F9"/>
<path d="M57.6238 191.789H48.0569C47.167 191.789 46.277 191.12 46.277 190.003C46.277 188.887 46.9445 188.217 48.0569 188.217H57.6238C58.5138 188.217 59.4037 188.887 59.4037 190.003C59.4037 191.12 58.5138 191.789 57.6238 191.789Z" fill="#045384"/>
<path d="M52.7291 196.478C51.8392 196.478 50.9492 195.809 50.9492 194.692V185.091C50.9492 184.198 51.6167 183.305 52.7291 183.305C53.6191 183.305 54.509 183.975 54.509 185.091V194.915C54.509 195.809 53.6191 196.478 52.7291 196.478Z" fill="#045384"/>
<path d="M346.41 127.038H336.843C335.953 127.038 335.064 126.368 335.064 125.252C335.064 124.359 335.731 123.466 336.843 123.466H346.41C347.3 123.466 348.19 124.135 348.19 125.252C348.19 126.368 347.3 127.038 346.41 127.038Z" fill="#045384"/>
<path d="M341.738 131.95C340.848 131.95 339.958 131.28 339.958 130.164V120.786C339.958 119.893 340.626 119 341.738 119C342.628 119 343.518 119.67 343.518 120.786V130.164C343.296 131.057 342.628 131.95 341.738 131.95Z" fill="#045384"/>
<path d="M228.715 152.046C228.27 152.046 227.825 151.822 227.603 151.599C226.935 150.929 226.935 149.813 227.603 149.143L234.278 142.445C234.945 141.775 236.057 141.775 236.725 142.445C237.392 143.114 237.392 144.231 236.725 144.901L230.05 151.599C229.605 152.046 229.16 152.046 228.715 152.046Z" fill="#045384"/>
<path d="M235.39 152.046C234.945 152.046 234.5 151.822 234.278 151.599L227.603 144.901C226.935 144.231 226.935 143.114 227.603 142.445C228.27 141.775 229.383 141.775 230.05 142.445L236.725 149.143C237.392 149.813 237.392 150.929 236.725 151.599C236.28 152.046 235.835 152.046 235.39 152.046Z" fill="#045384"/>
<path d="M449.199 209.429C448.754 209.429 448.309 209.205 448.086 208.982C447.419 208.312 447.419 207.196 448.086 206.526L454.761 199.827C455.428 199.158 456.541 199.158 457.208 199.827C457.876 200.497 457.876 201.614 457.208 202.284L450.534 208.982C450.089 209.429 449.644 209.429 449.199 209.429Z" fill="#045384"/>
<path d="M455.873 209.429C455.428 209.429 454.983 209.205 454.761 208.982L448.086 202.284C447.419 201.614 447.419 200.497 448.086 199.827C448.754 199.158 449.866 199.158 450.534 199.827L457.208 206.526C457.876 207.196 457.876 208.312 457.208 208.982C456.763 209.429 456.318 209.429 455.873 209.429Z" fill="#045384"/>
<path d="M310.368 145.347H261.866V148.696H310.368V145.347Z" fill="#045384"/>
<path d="M145.951 145.347H97.4488V148.696H145.951V145.347Z" fill="#045384"/>
<path d="M252.966 131.504H162.192V134.853H252.966V131.504Z" fill="#045384"/>
<path d="M70.7505 227.068H13.7941V230.417H70.7505V227.068Z" fill="#045384"/>
<path d="M438.297 263.909H395.802V267.258H438.297V263.909Z" fill="#045384"/>
<path d="M449.199 263.909H443.414V267.258H449.199V263.909Z" fill="#045384"/>
<path d="M257.416 145.347H248.739V148.696H257.416V145.347Z" fill="#045384"/>
<path d="M421.388 194.915C422.74 194.915 423.835 193.816 423.835 192.459C423.835 191.103 422.74 190.003 421.388 190.003C420.036 190.003 418.941 191.103 418.941 192.459C418.941 193.816 420.036 194.915 421.388 194.915Z" fill="#045384"/>
<path d="M143.726 167.452C145.692 167.452 147.286 165.852 147.286 163.879C147.286 161.906 145.692 160.307 143.726 160.307C141.76 160.307 140.166 161.906 140.166 163.879C140.166 165.852 141.76 167.452 143.726 167.452Z" fill="#045384"/>
<path d="M56.7339 250.289C58.0855 250.289 59.1812 249.189 59.1812 247.833C59.1812 246.476 58.0855 245.377 56.7339 245.377C55.3822 245.377 54.2865 246.476 54.2865 247.833C54.2865 249.189 55.3822 250.289 56.7339 250.289Z" fill="#045384"/>
<path d="M361.984 276.636H172.426V167.898C172.426 165.442 174.429 163.433 176.876 163.433H357.757C360.204 163.433 362.207 165.442 362.207 167.898V276.636H361.984Z" fill="#5FB0E5"/>
<path d="M324.829 161.87H207.579V165.219H324.829V161.87Z" fill="#045384"/>
<path d="M204.687 161.87H196.677V165.219H204.687V161.87Z" fill="#045384"/>
<path d="M361.984 278.422H170.647V173.257C170.647 167.005 175.764 161.87 181.993 161.87H191.56V165.219H181.993C177.544 165.219 173.984 168.792 173.984 173.257V275.073H361.984V278.422Z" fill="#045384"/>
<path d="M351.972 174.597H182.661V263.909H351.972V174.597Z" fill="white"/>
<path d="M295.684 293.829H238.505V327.767H295.684V293.829Z" fill="white"/>
<path d="M295.684 293.829H238.505V310.798H295.684V293.829Z" fill="#BFE6FF"/>
<path d="M297.463 326.428H294.126V295.615H240.285V326.428H236.947V292.266H297.463V326.428Z" fill="#045384"/>
<path d="M361.984 272.617H172.426V285.791C172.426 292.712 177.989 298.294 184.886 298.294H349.525C356.422 298.294 361.984 292.712 361.984 285.791V272.617Z" fill="white"/>
<path d="M351.305 299.857H182.216C175.764 299.857 170.647 294.722 170.647 288.247V270.831H351.305V274.18H173.984V288.247C173.984 292.712 177.544 296.508 182.216 296.508H351.305V299.857Z" fill="#045384"/>
<path d="M340.626 180.849H194.675V212.555H340.626V180.849Z" fill="#BFE6FF"/>
<path d="M286.784 217.467H248.072V258.55H286.784V217.467Z" fill="#BFE6FF"/>
<path d="M340.403 217.467H301.691V258.55H340.403V217.467Z" fill="#BFE6FF"/>
<path d="M363.097 200.051H359.759V220.146H363.097V200.051Z" fill="#045384"/>
<g opacity="0.3">
<path opacity="0.3" d="M246.514 216.35C246.514 213.448 244.067 210.992 241.175 210.992H170.647V270.831V278.422V288.47C170.647 294.945 175.764 300.081 182.216 300.081H236.947V326.651H238.727V327.991H247.627C249.852 326.428 251.409 324.195 251.854 321.292L253.189 313.701H246.514V216.35Z" fill="#0565A2"/>
</g>
<path d="M238.06 321.739H91.2192C90.1067 321.739 88.9943 320.622 88.9943 319.506V214.787C88.9943 213.671 90.1067 212.555 91.2192 212.555H238.06C239.395 212.555 240.285 213.671 240.285 214.787V319.506C240.285 320.846 239.395 321.739 238.06 321.739Z" fill="#5FB0E5"/>
<path d="M92.7766 323.525C89.8842 323.525 87.4369 321.069 87.4369 318.166V253.862H90.7742V317.943C90.7742 319.059 91.6641 319.953 92.7766 319.953V323.525Z" fill="#045384"/>
<path d="M242.064 315.71H238.727V216.35C238.727 215.234 237.837 214.341 236.725 214.341H156.852V210.992H236.502C239.395 210.992 241.842 213.448 241.842 216.35V315.71H242.064Z" fill="#045384"/>
<path d="M232.053 221.262H96.3363V309.905H232.053V221.262Z" fill="#045384"/>
<path d="M237.615 327.767H89.8842C86.3245 327.767 83.2097 325.088 82.7647 321.739L81.6523 315.264H150.178L152.848 319.059H171.759L174.651 315.264H246.737L245.847 320.846C245.179 324.865 241.62 327.767 237.615 327.767Z" fill="white"/>
<path d="M237.615 329.553H89.8843C85.4345 329.553 81.8748 326.428 80.9848 321.962L79.6499 313.477H150.845L153.515 317.273H170.647L173.539 313.477H248.517L247.182 321.069C246.737 325.981 242.509 329.553 237.615 329.553ZM83.6546 317.05L84.3221 321.515C84.7671 324.195 86.9919 326.204 89.8843 326.204H237.615C240.952 326.204 243.622 323.971 244.067 320.622L244.734 317.05H175.319L172.426 320.846H151.735L149.065 317.05H83.6546Z" fill="#045384"/>
<path d="M129.264 229.971H114.135V231.98H129.264V229.971Z" fill="white"/>
<path d="M132.157 236.892H121.7V238.902H132.157V236.892Z" fill="white"/>
<path d="M228.715 236.892H155.518V238.902H228.715V236.892Z" fill="white"/>
<path d="M139.465 238.796H151.256V236.787H139.465V238.796Z" fill="white"/>
<path d="M146.173 242.474H125.259V244.484H146.173V242.474Z" fill="white"/>
<path d="M160.19 250.512H133.714V252.522H160.19V250.512Z" fill="white"/>
<path d="M143.058 258.104H114.135V260.113H143.058V258.104Z" fill="white"/>
<path d="M146.318 260.237H167.232V258.228H146.318V260.237Z" fill="white"/>
<path d="M160.635 265.695H121.7V267.705H160.635V265.695Z" fill="white"/>
<path d="M176.555 267.796H202.363V265.786H176.555V267.796Z" fill="white"/>
<path d="M174.429 265.695H162.192V267.705H174.429V265.695Z" fill="white"/>
<path d="M168.644 273.287H134.604V275.296H168.644V273.287Z" fill="white"/>
<path d="M125.441 275.354H132.561V273.345H125.441V275.354Z" fill="white"/>
<path d="M137.274 278.869H114.135V280.878H137.274V278.869Z" fill="white"/>
<path d="M147.063 278.869H139.054V280.878H147.063V278.869Z" fill="white"/>
<path d="M187.333 278.869H149.288V280.878H187.333V278.869Z" fill="white"/>
<path d="M190.516 280.9H224.779V278.89H190.516V280.9Z" fill="white"/>
<path d="M133.714 286.46H121.7V288.47H133.714V286.46Z" fill="white"/>
<path d="M137.52 288.458H165.998V286.449H137.52V288.458Z" fill="white"/>
<path d="M151.29 294.052H128.152V296.062H151.29V294.052Z" fill="white"/>
<path d="M179.546 294.052H156.408V296.062H179.546V294.052Z" fill="white"/>
<path d="M204.909 294.052H183.106V296.062H204.909V294.052Z" fill="white"/>
<path d="M219.993 252.678H226.445V250.669H219.993V252.678Z" fill="white"/>
<path d="M216.924 250.512H162.637V252.522H216.924V250.512Z" fill="white"/>
<path d="M195.342 229.971H133.714V231.98H195.342V229.971Z" fill="white"/>
<path d="M107.016 227.068H103.901V230.194H107.016V227.068Z" fill="white"/>
<path d="M107.016 235.553H103.901V238.679H107.016V235.553Z" fill="white"/>
<path d="M107.016 244.037H103.901V247.163H107.016V244.037Z" fill="white"/>
<path d="M107.016 252.522H103.901V255.648H107.016V252.522Z" fill="white"/>
<path d="M107.016 261.006H103.901V264.132H107.016V261.006Z" fill="white"/>
<path d="M107.016 269.491H103.901V272.617H107.016V269.491Z" fill="white"/>
<path d="M107.016 277.976H103.901V281.102H107.016V277.976Z" fill="white"/>
<path d="M107.016 286.46H103.901V289.586H107.016V286.46Z" fill="white"/>
<path d="M107.016 294.722H103.901V297.848H107.016V294.722Z" fill="white"/>
<path d="M107.016 303.207H103.901V306.332H107.016V303.207Z" fill="white"/>
<g opacity="0.3">
<path opacity="0.3" d="M90.3292 212.555C89.6617 212.555 88.9943 213.225 88.9943 213.894V250.736H149.733C153.293 250.736 156.185 247.833 156.185 244.261V212.555H90.3292Z" fill="#0565A2"/>
</g>
<path d="M143.058 247.833H87.4369C81.6523 247.833 77.2025 243.144 77.2025 237.562V202.73C77.2025 196.925 81.8747 192.459 87.4369 192.459H143.058C148.843 192.459 153.293 197.148 153.293 202.73V237.562C153.293 243.367 148.843 247.833 143.058 247.833Z" fill="white"/>
<path d="M76.9801 204.293V196.255C76.9801 194.246 78.76 192.459 80.7623 192.459H149.51C151.513 192.459 153.293 194.246 153.293 196.255V204.293H76.9801Z" fill="#BFE6FF"/>
<path d="M149.51 249.619H80.9848C77.87 249.619 75.4227 247.163 75.4227 244.037V196.255C75.4227 193.129 77.87 190.673 80.9848 190.673H91.2192V194.022H80.9848C79.8724 194.022 78.76 194.915 78.76 196.255V244.037C78.76 245.154 79.6499 246.27 80.9848 246.27H149.733C150.845 246.27 151.958 245.377 151.958 244.037V196.255C151.958 195.139 151.068 194.022 149.733 194.022H104.346V190.673H149.51C152.625 190.673 155.073 193.129 155.073 196.255V244.037C155.073 247.163 152.625 249.619 149.51 249.619Z" fill="#045384"/>
<path d="M99.8961 190.673H93.889V194.022H99.8961V190.673Z" fill="#045384"/>
<path d="M153.293 202.73H76.9801V206.079H153.293V202.73Z" fill="#045384"/>
<path d="M84.5446 197.371H83.2097V200.721H84.5446V197.371Z" fill="#045384"/>
<path d="M89.4393 197.371H88.1044V200.721H89.4393V197.371Z" fill="#045384"/>
<path d="M94.334 197.371H92.9991V200.721H94.334V197.371Z" fill="#045384"/>
<path d="M100.564 224.165V221.932L108.796 218.137V220.593L103.456 223.049L108.796 225.728V228.184L100.564 224.165Z" fill="#045384"/>
<path d="M117.472 215.904H119.92L112.8 231.533H110.353L117.472 215.904Z" fill="#045384"/>
<path d="M129.932 221.709V223.942L121.7 227.738V225.282L127.039 222.602L121.7 220.146V217.69L129.932 221.709Z" fill="#045384"/>
<path d="M358.202 327.544H364.654C365.099 327.544 365.544 327.097 365.544 326.651V234.659C365.544 234.436 365.544 234.436 365.544 234.213L362.429 227.291C362.207 226.621 361.094 226.621 360.872 227.291L357.757 234.213C357.757 234.436 357.757 234.436 357.757 234.659V326.651C357.312 327.321 357.757 327.544 358.202 327.544Z" fill="white"/>
<path d="M365.322 237.562H357.312V318.836H365.322V237.562Z" fill="#5FB0E5"/>
<path d="M361.317 237.562H357.312V318.836H361.317V237.562Z" fill="#BFE6FF"/>
<path d="M367.102 329.33H355.755V233.989L359.537 225.951C359.982 225.282 360.649 224.612 361.539 224.612C362.429 224.612 363.097 225.058 363.542 225.951L367.324 233.989V329.33H367.102ZM359.092 325.981H363.764V234.883L361.317 229.747L358.87 234.883V325.981H359.092Z" fill="#045384"/>
<path d="M365.767 235.999H357.312V239.348H365.767V235.999Z" fill="#045384"/>
<path d="M365.989 317.05H356.645V320.399H365.989V317.05Z" fill="#045384"/>
<path d="M372.664 231.98C372.664 227.961 377.113 224.835 378.671 222.379C381.341 217.467 381.341 209.205 381.341 209.205C388.683 210.545 390.018 225.728 390.018 231.98C390.018 238.008 386.235 243.144 381.341 243.144C376.668 243.144 372.664 238.232 372.664 231.98Z" fill="#5FB0E5"/>
<path d="M381.341 258.997C385.123 258.997 388.238 262.793 387.793 267.035L384.678 316.826C384.455 320.846 383.343 324.641 381.563 327.99L381.341 328.437C379.338 324.865 378.003 320.622 377.781 316.38L374.889 267.258C374.444 262.793 377.558 258.997 381.341 258.997Z" fill="white"/>
<path d="M381.341 244.707C375.778 244.707 371.106 238.902 371.106 231.98C371.106 228.631 373.554 225.951 375.333 223.942C376.001 223.049 376.891 222.379 377.113 221.709C379.561 217.243 379.561 209.429 379.561 209.205V207.196L381.563 207.642C391.13 209.429 391.575 228.184 391.575 231.98C391.575 239.125 387.125 244.707 381.341 244.707ZM382.898 211.885C382.676 214.787 382.008 219.923 380.006 223.495C379.561 224.388 378.671 225.282 377.781 226.398C376.223 228.184 374.444 230.194 374.444 232.203C374.444 237.339 377.558 241.581 381.341 241.581C385.123 241.581 388.238 237.339 388.238 232.203C388.238 225.951 387.125 215.011 382.898 211.885Z" fill="#045384"/>
<path d="M381.341 329.553C380.673 329.553 380.006 329.107 379.561 328.437C377.558 324.865 376.223 320.622 376.001 316.157L373.109 267.035C372.886 264.356 373.776 261.676 375.556 259.89C378.671 256.541 384.01 256.541 386.903 259.89C388.683 261.676 389.573 264.356 389.35 267.035L386.235 316.826C386.013 320.399 383.788 325.981 382.898 328.214C382.898 329.107 382.231 329.553 381.341 329.553ZM381.341 260.783C380.228 260.783 378.893 261.23 378.003 262.346C376.891 263.462 376.223 265.249 376.446 267.035L379.338 316.157C379.561 318.836 380.006 321.515 381.118 324.195C382.008 321.515 382.898 318.613 382.898 316.826L386.013 267.035C386.235 265.249 385.568 263.462 384.455 262.346C383.788 261.23 382.675 260.783 381.341 260.783Z" fill="#045384"/>
<path d="M374.97 266.768H388.097V239.974H374.97V266.768Z" fill="#BFE6FF"/>
<path d="M374.804 266.768L381.479 266.768L381.48 239.975L374.805 239.974L374.804 266.768Z" fill="#BFE6FF"/>
<path d="M389.573 268.598H373.109V238.455H389.573V268.598ZM376.446 265.249H386.235V241.804H376.446V265.249Z" fill="#045384"/>
<g opacity="0.3">
<path opacity="0.3" d="M361.984 165.666C361.984 163.21 359.982 161.2 357.535 161.2H335.286C327.499 167.005 321.714 173.48 321.269 173.927L320.157 175.043L321.269 176.16C322.159 177.053 341.516 198.488 357.98 198.488C359.759 198.488 361.317 198.265 363.097 197.818V195.585H361.984V165.666Z" fill="#0565A2"/>
</g>
<path d="M395.802 172.811C395.802 172.811 376.223 194.692 360.427 194.692C344.63 194.692 325.052 172.811 325.052 172.811C325.052 172.811 344.63 150.929 360.427 150.929C376.001 150.929 395.802 172.811 395.802 172.811Z" fill="white"/>
<path d="M360.204 196.478C343.74 196.478 324.384 175.043 323.494 174.15L322.382 173.034L323.494 171.918C324.384 171.024 343.74 149.589 360.204 149.589C376.668 149.589 396.025 171.024 396.915 171.918L398.027 173.034L396.915 174.15C396.247 175.043 376.668 196.478 360.204 196.478ZM327.054 172.811C331.281 177.276 347.3 192.906 360.204 192.906C373.109 192.906 389.128 177.053 393.355 172.811C389.128 168.345 373.109 152.715 360.204 152.715C347.3 152.715 331.281 168.568 327.054 172.811Z" fill="#045384"/>
<path d="M376.001 172.811C376.001 164.103 369.104 157.181 360.427 156.958V188.44C368.881 188.663 376.001 181.518 376.001 172.811Z" fill="#BFE6FF"/>
<path d="M360.204 157.181C351.527 157.181 344.408 164.326 344.408 173.034C344.408 181.742 351.527 188.887 360.204 188.887V157.181C360.204 157.181 360.427 157.181 360.204 157.181Z" fill="#BFE6FF"/>
<path d="M360.204 180.625C364.505 180.625 367.991 177.127 367.991 172.811C367.991 168.495 364.505 164.996 360.204 164.996C355.904 164.996 352.417 168.495 352.417 172.811C352.417 177.127 355.904 180.625 360.204 180.625Z" fill="white"/>
<path d="M360.204 191.12C350.193 191.12 341.961 182.858 341.961 172.811C341.961 162.763 350.193 154.502 360.204 154.502C370.216 154.502 378.448 162.763 378.448 172.811C378.448 182.858 370.216 191.12 360.204 191.12ZM360.204 158.074C351.972 158.074 345.298 164.772 345.298 173.034C345.298 181.295 351.972 187.994 360.204 187.994C368.436 187.994 375.111 181.295 375.111 173.034C375.111 164.772 368.436 158.074 360.204 158.074Z" fill="#045384"/>
<path d="M360.204 177.723C362.908 177.723 365.099 175.524 365.099 172.811C365.099 170.098 362.908 167.898 360.204 167.898C357.501 167.898 355.31 170.098 355.31 172.811C355.31 175.524 357.501 177.723 360.204 177.723Z" fill="#5FB0E5"/>
<path d="M331.949 153.385H328.611V145.347H335.953V148.696H331.949V153.385Z" fill="#045384"/>
<path d="M392.242 203.847H384.9V200.497H388.905V195.808H392.242V203.847Z" fill="#045384"/>
<path d="M416.493 324.641V305.886C416.493 304.099 415.158 302.76 413.379 302.76H306.585C304.806 302.76 303.471 304.099 303.471 305.886V324.641C303.471 326.427 304.806 327.767 306.585 327.767H413.379C415.158 327.767 416.493 326.427 416.493 324.641Z" fill="#BFE6FF"/>
<path d="M303.693 306.109V314.147H416.716V306.109C416.716 304.323 415.381 302.983 413.601 302.983H306.808C305.028 302.983 303.693 304.323 303.693 306.109Z" fill="#EDF6FC"/>
<path d="M413.379 329.553H306.585C303.916 329.553 301.691 327.321 301.691 324.641V305.886C301.691 303.206 303.916 300.974 306.585 300.974H413.379C416.048 300.974 418.273 303.206 418.273 305.886V324.641C418.273 327.321 416.048 329.553 413.379 329.553ZM306.808 304.546C305.918 304.546 305.25 305.216 305.25 306.109V324.865C305.25 325.758 305.918 326.427 306.808 326.427H413.601C414.491 326.427 415.158 325.758 415.158 324.865V306.109C415.158 305.216 414.491 304.546 413.601 304.546H306.808Z" fill="#045384"/>
<path d="M317.932 302.983H314.595V318.166H317.932V302.983Z" fill="#045384"/>
<path d="M328.611 302.983H325.274V310.575H328.611V302.983Z" fill="#045384"/>
<path d="M339.291 302.983H335.954V310.575H339.291V302.983Z" fill="#045384"/>
<path d="M349.97 302.983H346.633V310.575H349.97V302.983Z" fill="#045384"/>
<path d="M360.649 302.983H357.312V318.166H360.649V302.983Z" fill="#045384"/>
<path d="M371.329 302.983H367.991V310.575H371.329V302.983Z" fill="#045384"/>
<path d="M382.008 302.983H378.671V310.575H382.008V302.983Z" fill="#045384"/>
<path d="M392.687 302.983H389.35V310.575H392.687V302.983Z" fill="#045384"/>
<path d="M403.367 302.983H400.029V318.166H403.367V302.983Z" fill="#045384"/>
<path d="M52.7291 326.651H46.722V330H52.7291V326.651Z" fill="#045384"/>
<path d="M438.074 326.651H424.725V330H438.074V326.651Z" fill="#045384"/>
<path d="M421.166 326.651H56.7339V330H421.166V326.651Z" fill="#045384"/>
</svg>
