<svg width="417" height="351" viewBox="0 0 417 351" fill="none" xmlns="http://www.w3.org/2000/svg">
<g clip-path="url(#clip0)">
<path d="M384.3 138.5H375C373.5 132.4 371.1 126.7 368 121.5L374.6 114.9C376.8 112.7 376.8 109.2 374.6 107L361 93.4C358.8 91.2 355.3 91.2 353.1 93.4L346.5 100C341.3 96.9 335.6 94.5 329.5 93V83.7C329.5 80.6 327 78.1 323.9 78.1H304.7C301.6 78.1 299.1 80.6 299.1 83.7V93C293 94.5 287.3 96.9 282.1 100L275.5 93.4C273.3 91.2 269.8 91.2 267.6 93.4L253.9 107C251.7 109.2 251.7 112.7 253.9 114.9L260.5 121.5C257.4 126.7 255 132.4 253.5 138.5H244.2C241.1 138.5 238.6 141 238.6 144.1V163.3C238.6 166.4 241.1 168.9 244.2 168.9H253.5C255 175 257.4 180.7 260.5 185.9L253.9 192.5C251.7 194.7 251.7 198.2 253.9 200.4L267.5 214C269.7 216.2 273.2 216.2 275.4 214L282 207.4C287.2 210.5 292.9 212.9 299 214.4V223.7C299 226.8 301.5 229.3 304.6 229.3H323.8C326.9 229.3 329.4 226.8 329.4 223.7V214.4C335.5 212.9 341.2 210.5 346.4 207.4L353 214C355.2 216.2 358.7 216.2 360.9 214L374.5 200.4C376.7 198.2 376.7 194.7 374.5 192.5L367.9 185.9C371 180.7 373.4 175 374.9 168.9H384.2C387.3 168.9 389.8 166.4 389.8 163.3V144.1C389.9 141 387.4 138.5 384.3 138.5ZM314.2 191.6C293.3 191.6 276.3 174.6 276.3 153.7C276.3 132.8 293.3 115.8 314.2 115.8C335.1 115.8 352.1 132.8 352.1 153.7C352.1 174.7 335.1 191.6 314.2 191.6Z" fill="#0095FF"/>
<path d="M248.9 154.1H242.7C241.7 150.1 240.1 146.3 238.1 142.9L242.5 138.5C243.9 137.1 243.9 134.7 242.5 133.3L233.5 124.3C232.1 122.9 229.7 122.9 228.3 124.3L223.9 128.7C220.5 126.6 216.7 125.1 212.7 124.1V117.9C212.7 115.9 211 114.2 209 114.2H196.3C194.3 114.2 192.6 115.9 192.6 117.9V124.1C188.6 125.1 184.8 126.7 181.4 128.7L177 124.3C175.6 122.9 173.2 122.9 171.8 124.3L162.8 133.3C161.4 134.7 161.4 137.1 162.8 138.5L167.2 142.9C165.1 146.3 163.6 150.1 162.6 154.1H156.4C154.4 154.1 152.7 155.8 152.7 157.8V170.5C152.7 172.5 154.4 174.2 156.4 174.2H162.6C163.6 178.2 165.2 182 167.2 185.4L162.8 189.8C161.4 191.2 161.4 193.6 162.8 195L171.8 204C173.2 205.4 175.6 205.4 177 204L181.4 199.6C184.8 201.7 188.6 203.2 192.6 204.2V210.4C192.6 212.4 194.3 214.1 196.3 214.1H209C211 214.1 212.7 212.4 212.7 210.4V204.2C216.7 203.2 220.5 201.6 223.9 199.6L228.3 204C229.7 205.4 232.1 205.4 233.5 204L242.5 195C243.9 193.6 243.9 191.2 242.5 189.8L238.1 185.4C240.2 182 241.7 178.2 242.7 174.2H248.9C250.9 174.2 252.6 172.5 252.6 170.5V157.8C252.6 155.7 250.9 154.1 248.9 154.1ZM202.6 189.1C188.8 189.1 177.6 177.9 177.6 164.1C177.6 150.3 188.8 139.1 202.6 139.1C216.4 139.1 227.6 150.3 227.6 164.1C227.6 177.9 216.4 189.1 202.6 189.1Z" fill="#73C8FF"/>
<path d="M96.4 189.3C95.9 187.7 95.3 186.1 94.7 184.5L96.4 189.3Z" fill="#00BAFF"/>
<path d="M94.6 198.6V184.5C91.6 176.8 88 170 84.7 165C81.1 168.9 79.9 180.8 79.9 180.8C80.2 168.4 81.6 164.7 81.7 160.7C76.4 153.7 68.2 149.9 61.7 145.8C64.3 160.5 64.1 164.2 64.1 164.2C63.2 155.4 60.4 149.3 58.9 144.1C42.5 134.4 34 137 34 137C34.2 143.2 36.2 157 36.8 162.3C43.7 168.2 53.4 174 53.4 174C48.4 172.4 41.9 168.5 37.3 165.6C38.4 173.3 38.3 172 40.2 178.1C47.1 184.4 61.1 191.6 61.1 191.6C55 190.1 46.5 185.5 41.9 182.9C45.9 193.3 51.3 201.5 57.8 208.9C65 212.1 72.6 214.5 72.6 214.5C69.1 214.3 64.7 213.3 60.6 212.1C68.3 220.1 77.3 227.3 87.3 235.3L97.4 239.4L100.6 224.3C102.1 212.3 99.9 200.2 96.4 189.7L94.6 198.6Z" fill="#00BAFF"/>
<path d="M86.6 213.2C88.5 216.8 90.3 220.4 92 224.2C93.6 228 95.1 231.8 96 235.9L95.8 236C94.8 232 93.2 228.2 91.5 224.5C89.8 220.8 87.8 217.3 85.8 213.8C81.8 206.8 77.5 200 73.2 193.2C68.9 186.4 64.4 179.7 60.3 172.7C58.3 169.2 56.3 165.7 54.4 162C52.5 158.4 50.8 154.7 49.2 150.9L49.4 150.8C53.4 157.8 57.6 164.7 61.9 171.5C66.2 178.3 70.3 185.3 74.5 192.2C78.6 199.1 82.8 206 86.6 213.2Z" fill="#0098FF"/>
<path d="M79.4 274C78.1 273.5 76.8 273.1 75.5 272.8L79.4 274Z" fill="#00BAFF"/>
<path d="M84.4 279.7L75.5 272.8C69.1 270.9 63.1 269.9 58.4 269.5C59.1 273.7 66 280.2 66 280.2C58.4 274 56.7 271.3 54.2 269.3C47.2 269.3 40.8 272.6 35.1 274.6C45.6 280.1 47.9 282.1 47.9 282.1C41.9 278.4 36.7 277.2 32.7 275.6C18.5 281.3 16 287.9 16 287.9C20 290.8 29.7 296.2 33.3 298.4C40.4 296.9 48.8 293.7 48.8 293.7C45.4 296.1 39.8 298.3 35.6 299.8C41 302.9 40.1 302.3 44.9 304C52.3 302.7 63.6 297.4 63.6 297.4C59.7 300.5 52.7 303.7 48.7 305.3C57.2 307.8 65 308.4 72.8 307.9C78.3 304.9 83.5 301.2 83.5 301.2C81.7 303.3 78.9 305.6 76.1 307.6C84.9 306.7 93.8 304.4 103.7 302L111.2 297.6L103.2 288.2C96.3 281.4 87.7 276.9 79.3 274L84.4 279.7Z" fill="#00BAFF"/>
<path d="M89.7 291.8C92.9 292.3 96.1 293 99.3 293.8C102.5 294.6 105.6 295.6 108.6 297L108.5 297.1C105.5 295.8 102.3 294.9 99.2 294.2C96 293.5 92.9 293 89.7 292.5C83.3 291.6 76.9 291 70.5 290.4C64.1 289.8 57.7 289.4 51.3 288.6C48.1 288.2 44.9 287.7 41.7 287.1C38.5 286.5 35.3 285.8 32.2 285V284.9C38.6 285.8 45 286.5 51.4 287.1C57.8 287.7 64.2 288.5 70.6 289.2C76.9 290 83.3 290.8 89.7 291.8Z" fill="#0098FF"/>
<path d="M73.5 236.1C73.6 221.2 74.6 214.9 73.5 210C64.9 203.6 55.6 199.5 46.6 197C54.2 213.7 52.3 225.5 52.3 225.5C51.9 213.4 46 201.7 42.7 196C19.9 190.5 0 194.2 0 194.2C2.1 201.6 4.3 208.4 6.7 214.5C16.9 219 30.2 222.4 30.2 222.4C23.7 222.4 14.7 220.2 8.2 218.3C11.8 227.1 15.7 234.7 20 241.3C30.3 246.3 49.4 249.7 49.4 249.7C41.6 250.2 30 247.9 23.6 246.5C31.6 257.4 40.6 265.3 50.7 271.7C60.3 272.8 70.3 272.8 70.3 272.8C66 273.9 60.4 274.3 55.1 274.4C66.8 281.2 79.9 286.4 94.3 292.2L107.7 293.3L106.9 273.9C103.2 244.9 92.1 226.1 78.5 214C75.2 220 73.5 236.1 73.5 236.1Z" fill="#73C8FF"/>
<path d="M104.6 290C102.1 285.6 99.1 281.6 95.9 277.8C92.7 274 89.3 270.5 85.8 267C78.8 260.1 71.6 253.5 64.3 247C57 240.5 49.6 234.1 42.5 227.2C39 223.7 35.5 220.2 32.1 216.6C28.7 213 25.5 209.2 22.4 205.2L22.6 205C29.6 211.9 36.7 218.6 44 225.2C51.2 231.8 58.3 238.6 65.5 245.3C72.6 252 79.8 258.8 86.6 266C90 269.6 93.3 273.3 96.4 277.2C99.5 281.1 102.4 285.2 104.8 289.8L104.6 290Z" fill="#00A7FF"/>
<path d="M360.5 301.7C370.4 306.9 374.2 309.8 377.9 310.6C385.4 306.4 391.7 300.9 396.8 295.1C382.7 295 375.6 289.6 375.6 289.6C383.8 293.4 393.9 293.1 399 292.6C411.3 277.6 416.4 261.5 416.4 261.5C410.7 260.5 405.3 259.9 400.3 259.5C393.4 265.5 386.1 274.3 386.1 274.3C388.6 269.5 393.5 263.5 397.2 259.3C389.9 259 383.4 259.3 377.4 260.2C370.2 266.1 360.6 279.1 360.6 279.1C363.2 273.1 369.2 265.3 372.6 261C362.3 263.2 353.6 267.2 345.5 272.5C341.1 279.3 337.3 286.7 337.3 286.7C338.2 283.2 340.1 278.8 342 274.9C333 281.3 324.6 289.2 315.2 298L309.3 307.6L322.5 313.6C343.3 320.8 360.1 319 373.3 313C370.6 308.5 360.5 301.7 360.5 301.7Z" fill="#CEE9FF"/>
<path d="M312.6 306.4C316.5 306.1 320.3 305.2 324 304.1C327.7 303 331.4 301.7 335.1 300.3C342.4 297.5 349.5 294.4 356.7 291.2C363.8 288 370.9 284.7 378.2 281.8C381.8 280.4 385.5 279 389.2 277.7C392.9 276.4 396.7 275.3 400.5 274.4L400.6 274.6C393.3 277.4 386.1 280.4 379 283.5C371.8 286.6 364.6 289.5 357.4 292.5C350.2 295.5 342.9 298.5 335.6 301.1C331.9 302.4 328.2 303.6 324.4 304.6C320.6 305.6 316.7 306.3 312.8 306.5L312.6 306.4Z" fill="white"/>
<path d="M371 272.5C372.6 271.1 374 269.8 375.5 268.4L371 272.5Z" fill="#73C8FF"/>
<path d="M359.8 274.1L375.5 268.3C382.6 261.3 388.3 254 392.3 247.9C386.2 245 372.3 248.5 372.3 248.5C386.2 243.8 391 243.9 395.6 242.4C400.7 232.9 400.9 221.2 402.3 211.4C387.2 220.7 383 222 383 222C392.4 217.3 397.7 211.2 402.8 207.2C405.5 182.8 398.5 173.3 398.5 173.3C391.7 176.1 377.3 184.3 371.7 187.3C368.5 198.4 366.8 212.7 366.8 212.7C366.1 205.9 367.2 196.2 368.2 189.2C360.2 193.7 361.5 193.1 355.7 198C352.1 209.2 350.9 229.6 350.9 229.6C349.5 221.4 350.5 209 351.1 202.1C341.5 211.4 335 221.5 330 232.6C330 242.8 331.1 253.3 331.1 253.3C329.6 248.9 328.6 243 327.9 237.4C322.7 250.3 319.2 264.4 315.2 280.2L315.6 294.5L334 292.2C348.1 289 360.5 281.4 370.5 272.6L359.8 274.1Z" fill="#73C8FF"/>
<path d="M339.6 270.2C336.5 274.1 333.4 277.8 330 281.4C326.6 285 323 288.4 318.9 291.2L318.8 291C322.7 288.1 326.2 284.6 329.5 280.9C332.7 277.2 335.8 273.4 338.7 269.4C344.6 261.5 350 253.4 355.4 245.2C360.8 237 366 228.7 371.9 220.7C374.8 216.7 377.8 212.8 380.9 209C384 205.2 387.2 201.4 390.7 197.9L390.9 198.1C385.1 206 379.5 214.1 374 222.2C368.5 230.3 362.8 238.3 357.2 246.4C351.3 254.4 345.7 262.4 339.6 270.2Z" fill="#00A7FF"/>
<path d="M345.7 243C345 244.1 344.2 245.2 343.4 246.3L345.7 243ZM343.4 246.4C338.2 253.5 331.3 260.2 322.7 264.3L311.2 268.5L308.9 259.4C309.2 248.7 309.4 239 310.9 230C312.1 233.5 313.6 237.1 315.2 239.8C315.2 239.8 313 233.2 311.5 226.6C313.1 218.7 315.9 211.3 320.7 203.9C321.3 208.4 322.5 216.6 324.5 221.7C324.5 221.7 322.3 208.4 323 200.6C326 196.6 325.2 197.2 329.8 193.1C330.1 197.8 330.8 204.2 332.3 208.5C332.3 208.5 331.4 199 331.8 191.4C335 188.7 343 181.3 347 178.5C347 178.5 352.9 183.6 354.7 199.7C352 203 349.4 207.7 344 212.1C344 212.1 346.5 210.7 354.9 202.5C355.4 209 356.9 216.5 355 223.4C352.3 225 349.2 225.7 340.9 230.7C340.9 230.7 349.4 226.4 353.7 227.4C352 231.9 349.4 237.4 345.8 243L336.5 249L343.4 246.4Z" fill="#00BAFF"/>
<path d="M330.6 231.5C333.1 225.5 335.6 219.5 338 213.5C340.4 207.5 342.8 201.5 345.4 195.5L345.3 195.4C343.6 198.2 342 201 340.6 204C339.1 206.9 337.8 209.9 336.5 212.9C333.9 218.9 331.7 225 329.4 231.1C327.1 237.2 324.7 243.2 322.1 249.1C320.8 252.1 319.4 255 317.8 257.8C316.3 260.6 314.5 263.4 312.4 265.9L312.5 266C314.7 263.6 316.6 260.9 318.2 258.1C319.9 255.3 321.4 252.4 322.8 249.5C325.7 243.6 328.2 237.5 330.6 231.5Z" fill="#00CFFF"/>
<path d="M320.6 301.9H90.9V168.7C90.9 162.4 96 157.3 102.3 157.3H309.3C315.6 157.3 320.7 162.4 320.7 168.7V301.9H320.6Z" fill="#0071F3"/>
<path d="M309.7 167.9H101.8V289.4H309.7V167.9Z" fill="#BFE6FF"/>
<path d="M362.8 337.5H48.8L90.9 301.9H320.6L362.8 337.5Z" fill="#73C8FF"/>
<path d="M351.6 351H60C53.8 351 48.8 346 48.8 339.8V337.5H362.8V339.8C362.8 346 357.8 351 351.6 351Z" fill="#0071F3"/>
<path d="M120.9 311.5H108.2C107.8 311.5 107.6 311 107.9 310.7L111.9 306.9C112 306.8 112.1 306.8 112.2 306.8H124.3C124.7 306.8 124.9 307.2 124.6 307.5L121.2 311.3C121.1 311.4 121 311.5 120.9 311.5Z" fill="white"/>
<path d="M141 311.5H128.2C127.8 311.5 127.6 311.1 127.9 310.8L131 307C131.1 306.9 131.2 306.8 131.3 306.8H143.6C144 306.8 144.2 307.2 144 307.5L141.4 311.3C141.3 311.4 141.1 311.5 141 311.5Z" fill="white"/>
<path d="M161.1 311.5H148.2C147.9 311.5 147.6 311.1 147.8 310.8L150.1 307C150.2 306.9 150.3 306.8 150.5 306.8H162.9C163.2 306.8 163.4 307.1 163.3 307.4L161.5 311.2C161.4 311.4 161.3 311.5 161.1 311.5Z" fill="white"/>
<path d="M181.2 311.5H168.2C167.9 311.5 167.7 311.2 167.8 310.9L169.3 307.1C169.4 306.9 169.5 306.8 169.7 306.8H182.1C182.4 306.8 182.6 307.1 182.5 307.3L181.6 311.1C181.6 311.4 181.4 311.5 181.2 311.5Z" fill="white"/>
<path d="M201.3 311.5H188.2C187.9 311.5 187.7 311.3 187.8 311L188.5 307.2C188.5 307 188.7 306.8 188.9 306.8H201.4C201.6 306.8 201.8 307 201.8 307.3L201.7 311.1C201.7 311.3 201.5 311.5 201.3 311.5Z" fill="white"/>
<path d="M221.4 311.5H208.3C208.1 311.5 207.9 311.3 207.9 311.1L207.8 307.3C207.8 307.1 208 306.8 208.2 306.8H220.7C220.9 306.8 221.1 307 221.1 307.2L221.8 311C221.8 311.2 221.6 311.5 221.4 311.5Z" fill="white"/>
<path d="M241.4 311.5H228.4C228.2 311.5 228 311.4 228 311.2L227.1 307.4C227 307.1 227.2 306.9 227.5 306.9H239.9C240.1 306.9 240.2 307 240.3 307.2L241.8 311C241.9 311.2 241.7 311.5 241.4 311.5Z" fill="white"/>
<path d="M261.4 311.5H248.5C248.3 311.5 248.2 311.4 248.1 311.2L246.3 307.4C246.2 307.1 246.4 306.8 246.7 306.8H259.1C259.3 306.8 259.4 306.9 259.5 307L261.8 310.8C262 311.1 261.8 311.5 261.4 311.5Z" fill="white"/>
<path d="M281.5 311.5H268.7C268.6 311.5 268.4 311.4 268.3 311.3L265.7 307.5C265.5 307.2 265.7 306.8 266.1 306.8H278.4C278.5 306.8 278.7 306.9 278.7 307L281.8 310.8C282 311.1 281.8 311.5 281.5 311.5Z" fill="white"/>
<path d="M301.5 311.5H288.8C288.7 311.5 288.6 311.4 288.5 311.4L285.1 307.6C284.8 307.3 285 306.9 285.4 306.9H297.5C297.6 306.9 297.7 306.9 297.8 307L301.8 310.8C302 311 301.9 311.5 301.5 311.5Z" fill="white"/>
<path d="M114.5 318.5H100.7C100.3 318.5 100.1 318 100.4 317.7L105.1 313.2C105.2 313.1 105.3 313.1 105.4 313.1H118.5C118.9 313.1 119.1 313.5 118.8 313.8L114.8 318.3C114.7 318.5 114.6 318.5 114.5 318.5Z" fill="white"/>
<path d="M136.2 318.5H122.3C121.9 318.5 121.7 318.1 122 317.8L125.7 313.3C125.8 313.2 125.9 313.1 126 313.1H139.2C139.6 313.1 139.8 313.5 139.6 313.8L136.5 318.3C136.4 318.4 136.3 318.5 136.2 318.5Z" fill="white"/>
<path d="M157.8 318.5H143.8C143.5 318.5 143.2 318.1 143.4 317.8L146.2 313.3C146.3 313.2 146.4 313.1 146.6 313.1H159.9C160.2 313.1 160.4 313.4 160.3 313.7L158.2 318.2C158.1 318.4 158 318.5 157.8 318.5Z" fill="white"/>
<path d="M107.1 326.7H92.1C91.7 326.7 91.5 326.2 91.8 325.9L97.5 320.6C97.6 320.5 97.7 320.5 97.8 320.5H112C112.4 320.5 112.6 320.9 112.3 321.2L107.5 326.5C107.4 326.6 107.2 326.7 107.1 326.7Z" fill="white"/>
<path d="M130.6 326.7H115.5C115.1 326.7 114.9 326.3 115.2 326L119.7 320.7C119.8 320.6 119.9 320.5 120 320.5H134.3C134.7 320.5 134.9 320.9 134.7 321.2L131 326.5C130.8 326.6 130.7 326.7 130.6 326.7Z" fill="white"/>
<path d="M154 326.7H138.8C138.5 326.7 138.2 326.3 138.4 326L141.7 320.7C141.8 320.6 141.9 320.5 142.1 320.5H156.5C156.8 320.5 157 320.8 156.9 321.1L154.4 326.4C154.3 326.6 154.2 326.7 154 326.7Z" fill="white"/>
<path d="M179.4 318.5H165.3C165 318.5 164.8 318.2 164.9 317.9L166.7 313.4C166.8 313.2 166.9 313.1 167.1 313.1H180.5C180.8 313.1 181 313.4 180.9 313.6L179.8 318.1C179.8 318.4 179.6 318.5 179.4 318.5Z" fill="white"/>
<path d="M247.5 326.7H162.1C161.8 326.7 161.6 326.4 161.7 326.1L163.9 320.8C164 320.6 164.1 320.5 164.3 320.5H245.4C245.6 320.5 245.7 320.6 245.8 320.8L248 326.1C248 326.4 247.8 326.7 247.5 326.7Z" fill="white"/>
<path d="M201.1 318.5H187C186.7 318.5 186.5 318.3 186.6 318L187.4 313.5C187.4 313.3 187.6 313.1 187.8 313.1H201.2C201.4 313.1 201.6 313.3 201.6 313.6L201.5 318.1C201.5 318.3 201.3 318.5 201.1 318.5Z" fill="white"/>
<path d="M222.7 318.5H208.6C208.4 318.5 208.2 318.3 208.2 318.1L208.1 313.6C208.1 313.4 208.3 313.1 208.5 313.1H221.9C222.1 313.1 222.3 313.3 222.3 313.5L223.1 318C223.1 318.3 222.9 318.5 222.7 318.5Z" fill="white"/>
<path d="M244.2 318.5H230.1C229.9 318.5 229.7 318.4 229.7 318.2L228.6 313.7C228.5 313.4 228.7 313.2 229 313.2H242.4C242.6 313.2 242.7 313.3 242.8 313.5L244.6 318C244.8 318.2 244.5 318.5 244.2 318.5Z" fill="white"/>
<path d="M265.8 318.5H251.8C251.6 318.5 251.5 318.4 251.4 318.2L249.3 313.7C249.2 313.4 249.4 313.1 249.7 313.1H263C263.2 313.1 263.3 313.2 263.4 313.3L266.2 317.8C266.3 318.1 266.1 318.5 265.8 318.5Z" fill="white"/>
<path d="M287.3 318.5H273.4C273.3 318.5 273.1 318.4 273 318.3L269.9 313.8C269.7 313.5 269.9 313.1 270.3 313.1H283.5C283.6 313.1 283.8 313.2 283.8 313.3L287.5 317.8C287.9 318.1 287.7 318.5 287.3 318.5Z" fill="white"/>
<path d="M291.3 323.2H276.7C276.6 323.2 276.4 323.1 276.3 323L275 321.1C274.8 320.8 275 320.4 275.4 320.4H289.7C289.8 320.4 290 320.5 290 320.6L291.6 322.5C291.8 322.8 291.6 323.2 291.3 323.2Z" fill="white"/>
<path d="M294.2 326.7H279C278.9 326.7 278.7 326.6 278.6 326.5L277.2 324.4C277 324.1 277.2 323.7 277.6 323.7H292.4C292.5 323.7 292.7 323.8 292.7 323.9L294.4 326C294.8 326.3 294.6 326.7 294.2 326.7Z" fill="white"/>
<path d="M317.5 326.7H302.5C302.4 326.7 302.3 326.6 302.2 326.6L300.3 324.5C300 324.2 300.2 323.8 300.6 323.8H315.3C315.4 323.8 315.5 323.8 315.6 323.9L317.8 326C318.1 326.2 317.9 326.7 317.5 326.7Z" fill="white"/>
<path d="M270.9 326.7H255.7C255.5 326.7 255.4 326.6 255.3 326.4L254.3 324.3C254.2 324 254.4 323.7 254.7 323.7H269.6C269.8 323.7 269.9 323.8 270 323.9L271.3 326C271.4 326.3 271.2 326.7 270.9 326.7Z" fill="white"/>
<path d="M308.9 318.5H295.1C295 318.5 294.9 318.4 294.8 318.4L290.8 313.9C290.5 313.6 290.7 313.2 291.1 313.2H304.2C304.3 313.2 304.4 313.2 304.5 313.3L309.2 317.8C309.5 318 309.3 318.5 308.9 318.5Z" fill="white"/>
<path d="M101.8 178.4L205.8 248.6L309.7 178.4L311.3 168.3L205.7 240L101.8 167.9V178.4Z" fill="#BFE6FF"/>
<path d="M205.7 242.7L98.9 170.2L101.4 166.4L205.7 237.2L310 166.4L312.6 170.2L205.7 242.7Z" fill="#0071F3"/>
<path d="M184.653 223.468L98.8619 281.716L101.446 285.522L187.237 227.273L184.653 223.468Z" fill="#0071F3"/>
<path d="M228.135 224.371L225.551 228.176L310.018 285.526L312.602 281.72L228.135 224.371Z" fill="#0071F3"/>
<path d="M330 4.5L292 27.3L300.8 40.8L330 4.5Z" fill="#0071F3"/>
<path d="M330 4.5L300 28.5L300.8 40.8L330 4.5Z" fill="#2495FF"/>
<path d="M330 4.5L278.8 22.6L292 27.3L330 4.5Z" fill="#BFE6FF"/>
<path d="M330 4.5L300 28.5L316.1 32.9L330 4.5Z" fill="#BFE6FF"/>
<path d="M164 96.1C163.8 95.7 164 95.3 164.4 95.2C165.5 94.7 166.6 94.2 167.7 93.6C168 93.4 168.5 93.5 168.6 93.9C168.8 94.2 168.7 94.7 168.3 94.8C167.2 95.4 166 96 164.9 96.5C164.8 96.5 164.8 96.5 164.7 96.6C164.4 96.6 164.1 96.4 164 96.1ZM171.8 91.9C171.6 91.6 171.7 91.2 172 90.9C173.4 89.9 174.7 88.9 176 87.8C176.3 87.6 176.7 87.6 177 87.9C177.2 88.2 177.2 88.6 176.9 88.9C175.6 90.1 174.2 91.1 172.8 92.1C172.7 92.2 172.6 92.2 172.5 92.2C172.2 92.2 172 92.1 171.8 91.9ZM179.8 85.3C179.5 85 179.5 84.6 179.8 84.3C181 83.1 182.1 81.8 183.2 80.5C183.4 80.2 183.9 80.2 184.2 80.4C184.5 80.6 184.5 81.1 184.3 81.4C183.2 82.8 182 84.1 180.8 85.3C180.7 85.4 180.5 85.5 180.4 85.5C180.1 85.5 179.9 85.4 179.8 85.3ZM186.4 77.3C186.1 77.1 186 76.7 186.2 76.3C187.2 74.9 188.1 73.5 189 72C189.2 71.7 189.6 71.6 189.9 71.8C190.2 72 190.3 72.4 190.1 72.7C189.2 74.2 188.2 75.7 187.3 77.1C187.2 77.3 187 77.4 186.8 77.4C186.7 77.5 186.5 77.4 186.4 77.3ZM242 63.4C242 63 242.2 62.7 242.6 62.6C244.3 62.4 246 62.2 247.7 61.9C248.1 61.8 248.4 62.1 248.5 62.5C248.6 62.9 248.3 63.2 247.9 63.3C246.2 63.6 244.5 63.8 242.7 64C242.4 64.1 242.1 63.8 242 63.4ZM237.6 64.5C235.9 64.6 234.1 64.7 232.4 64.8C232 64.8 231.7 64.5 231.7 64.1C231.7 63.7 232 63.4 232.4 63.4C234.1 63.3 235.9 63.2 237.5 63.1C237.9 63.1 238.2 63.4 238.2 63.7C238.3 64.2 238 64.5 237.6 64.5ZM191.8 68.5C191.5 68.3 191.3 67.9 191.5 67.6C192.3 66.1 193 64.5 193.7 63C193.9 62.7 194.3 62.5 194.6 62.7C194.9 62.9 195.1 63.3 194.9 63.6C194.2 65.2 193.4 66.8 192.6 68.3C192.5 68.5 192.3 68.6 192.1 68.7C192.1 68.6 191.9 68.5 191.8 68.5ZM252.3 61.8C252.2 61.4 252.5 61.1 252.8 61C254.5 60.6 256.2 60.2 257.8 59.8C258.2 59.7 258.5 59.9 258.6 60.3C258.7 60.7 258.5 61 258.1 61.1C256.5 61.5 254.7 62 253 62.3H252.9C252.7 62.4 252.3 62.2 252.3 61.8ZM227.2 64.9C226.5 64.9 225.8 64.9 225.2 64.9C224.1 64.9 223.1 64.8 222 64.8C221.6 64.8 221.3 64.5 221.4 64.1C221.4 63.7 221.7 63.4 222.1 63.5C223.1 63.6 224.2 63.6 225.2 63.6C225.9 63.6 226.5 63.6 227.2 63.6C227.6 63.6 227.9 63.9 227.9 64.3C227.9 64.6 227.6 64.9 227.2 64.9ZM216.8 64.3C215.1 64.1 213.3 63.8 211.6 63.4C211.2 63.3 211 63 211.1 62.6C211.2 62.2 211.5 62 211.9 62.1C213.6 62.4 215.3 62.7 217 63C217.4 63.1 217.6 63.4 217.6 63.8C217.6 64.1 217.3 64.4 217 64.4C216.9 64.3 216.8 64.3 216.8 64.3ZM262.3 59.2C262.2 58.8 262.4 58.4 262.7 58.3C264.3 57.8 266 57.2 267.5 56.5C267.9 56.4 268.3 56.5 268.4 56.9C268.5 57.3 268.4 57.7 268 57.8C266.4 58.4 264.8 59.1 263.1 59.6C263 59.6 263 59.6 262.9 59.6C262.7 59.7 262.4 59.5 262.3 59.2ZM271.9 55.4C271.7 55.1 271.9 54.6 272.2 54.5C273.7 53.7 275.3 52.9 276.7 52C277 51.8 277.5 51.9 277.6 52.2C277.8 52.5 277.7 53 277.4 53.1C275.9 54 274.4 54.8 272.8 55.6C272.7 55.6 272.6 55.7 272.6 55.7C272.3 55.8 272 55.6 271.9 55.4ZM206.5 62.1C204.8 61.6 203.2 61.1 201.5 60.4C201.1 60.3 201 59.9 201.1 59.5C201.2 59.1 201.6 59 202 59.1C203.6 59.7 205.2 60.2 206.9 60.7C207.3 60.8 207.5 61.2 207.4 61.6C207.3 61.9 207.1 62.1 206.8 62.1C206.7 62.2 206.6 62.2 206.5 62.1ZM196.1 59.1C195.7 59 195.6 58.6 195.7 58.2C195.7 58.1 195.8 58.1 195.8 58C194.6 57.4 193.3 56.7 192.1 56C191.8 55.8 191.7 55.4 191.8 55.1C192 54.8 192.4 54.7 192.7 54.8C193.8 55.4 195 56.1 196.1 56.6C196.5 55.5 196.9 54.3 197.2 53.3C197.3 52.9 197.7 52.7 198.1 52.8C198.5 52.9 198.7 53.3 198.6 53.7C198.2 54.9 197.8 56.1 197.4 57.3C197.6 57.5 197.7 57.8 197.6 58.1C197.5 58.4 197.2 58.5 197 58.5C197 58.6 197 58.6 196.9 58.7C196.8 59 196.6 59.1 196.3 59.1C196.3 59.1 196.2 59.1 196.1 59.1ZM280.8 50.1C280.6 49.8 280.6 49.4 280.9 49.1C282.3 48.1 283.6 47 284.8 45.8C285.1 45.5 285.5 45.6 285.8 45.8C286.1 46.1 286 46.5 285.8 46.8C284.5 48 283.2 49.1 281.8 50.1C281.7 50.2 281.6 50.2 281.5 50.2C281.2 50.4 280.9 50.3 280.8 50.1ZM288.5 43.2C288.2 42.9 288.2 42.5 288.4 42.2C289.5 40.9 290.6 39.6 291.5 38.2C291.7 37.9 292.1 37.8 292.5 38C292.8 38.2 292.9 38.6 292.7 39C291.7 40.4 290.6 41.8 289.5 43.2C289.4 43.3 289.2 43.4 289 43.4C288.8 43.4 288.6 43.3 288.5 43.2ZM187.7 53.2C186.3 52.2 184.9 51.2 183.5 50.1C183.2 49.9 183.2 49.4 183.4 49.1C183.6 48.8 184.1 48.8 184.4 49C185.7 50.1 187.1 51.1 188.5 52.1C188.8 52.3 188.9 52.7 188.7 53.1C188.6 53.3 188.4 53.4 188.2 53.4C188 53.3 187.8 53.3 187.7 53.2ZM199.2 49.2C198.8 49.1 198.6 48.7 198.7 48.4C199.1 46.7 199.4 45 199.7 43.4C199.8 43 200.1 42.8 200.5 42.8C200.9 42.9 201.1 43.2 201.1 43.6C200.9 45.3 200.5 47 200.1 48.7C200 49 199.8 49.2 199.5 49.2C199.4 49.2 199.3 49.2 199.2 49.2ZM179.6 46.6C178.4 45.4 177.1 44.1 176 42.8C175.7 42.5 175.8 42.1 176.1 41.8C176.4 41.5 176.8 41.6 177.1 41.9C178.2 43.2 179.4 44.4 180.6 45.6C180.9 45.9 180.9 46.3 180.6 46.6C180.5 46.7 180.3 46.8 180.2 46.8C180 46.8 179.8 46.7 179.6 46.6ZM200.8 39C200.4 39 200.1 38.7 200.1 38.3C200.2 36.6 200.2 34.9 200.1 33.2C200.1 32.8 200.3 32.5 200.8 32.5C201.2 32.5 201.5 32.8 201.5 33.2C201.6 34.9 201.6 36.7 201.5 38.5C201.5 38.8 201.2 39.1 200.9 39.2C200.9 39 200.9 39 200.8 39ZM172.7 38.7C171.7 37.3 170.7 35.9 169.7 34.4C169.5 34.1 169.6 33.7 169.9 33.4C170.2 33.2 170.6 33.3 170.9 33.6C171.8 35 172.8 36.5 173.8 37.8C174 38.1 174 38.5 173.7 38.8C173.6 38.9 173.5 38.9 173.4 38.9C173.1 39 172.8 38.9 172.7 38.7ZM199.6 28.1V27.9C199.3 26.3 198.9 24.8 198.4 23.2C198.3 22.8 198.5 22.4 198.8 22.3C199.2 22.2 199.6 22.4 199.7 22.7C200.2 24.3 200.7 26 201 27.6V27.8C201.1 28.2 200.8 28.5 200.4 28.6C200.4 28.6 200.4 28.6 200.3 28.6C200 28.7 199.6 28.4 199.6 28.1ZM167.1 29.9C166.3 28.4 165.5 26.8 164.8 25.2C164.6 24.9 164.8 24.4 165.2 24.3C165.5 24.1 166 24.3 166.1 24.7C166.8 26.3 167.5 27.8 168.3 29.3C168.5 29.6 168.4 30.1 168 30.2C167.9 30.2 167.8 30.3 167.7 30.3C167.5 30.3 167.2 30.2 167.1 29.9ZM196.4 18.4C195.7 16.9 194.8 15.4 193.9 14C193.7 13.7 193.8 13.3 194.1 13C194.4 12.8 194.8 12.9 195.1 13.2C196.1 14.7 196.9 16.2 197.7 17.8C197.9 18.1 197.7 18.6 197.4 18.7C197.3 18.7 197.2 18.8 197.2 18.8C196.8 18.8 196.6 18.7 196.4 18.4ZM162.9 20.3L162.6 19.5C162.1 18.1 161.8 16.6 161.6 15.2C161.6 14.8 161.8 14.5 162.2 14.4C162.6 14.4 162.9 14.6 163 15C163.2 16.4 163.5 17.7 163.9 19.1L164.2 19.9C164.3 20.3 164.1 20.7 163.8 20.8C163.7 20.8 163.7 20.8 163.6 20.8C163.3 20.8 163 20.6 162.9 20.3ZM190.8 10C189.6 8.7 188.4 7.5 187.1 6.5C186.8 6.3 186.8 5.8 187 5.5C187.2 5.2 187.7 5.2 188 5.4C189.3 6.5 190.6 7.7 191.8 9C192.1 9.3 192 9.7 191.7 10C191.6 10.1 191.4 10.2 191.3 10.2C191.2 10.2 191 10.2 190.8 10ZM162.3 10.6C161.9 10.5 161.7 10.2 161.7 9.8C162.1 7.9 162.8 6.2 163.8 4.8C164 4.5 164.5 4.4 164.8 4.6C165.1 4.8 165.2 5.3 165 5.6C164.1 6.9 163.5 8.4 163.2 10.1C163.1 10.4 162.9 10.6 162.6 10.7C162.4 10.6 162.4 10.6 162.3 10.6ZM182.9 3.8C181.4 3 179.8 2.4 178.2 2C177.8 1.9 177.6 1.5 177.7 1.2C177.8 0.8 178.2 0.6 178.5 0.7C180.2 1.1 181.9 1.8 183.5 2.6C183.8 2.8 184 3.2 183.8 3.5C183.7 3.7 183.5 3.8 183.3 3.9C183.2 3.8 183.1 3.8 182.9 3.8ZM167.7 2.2C167.5 1.9 167.7 1.4 168 1.3C169.6 0.5 171.4 0.1 173.3 0C173.7 0 174 0.3 174 0.7C174 1.1 173.7 1.4 173.3 1.4C171.6 1.5 170 1.8 168.6 2.5C168.5 2.5 168.4 2.6 168.4 2.6C168.1 2.6 167.8 2.4 167.7 2.2Z" fill="#0095FF"/>
<path d="M160 118.4L142.1 136.3C138.5 139.9 132.8 139.9 129.2 136.3L116.5 123.6C112.9 120 112.9 114.3 116.5 110.7L134.4 92.8C138 89.2 143.7 89.2 147.3 92.8L160 105.5C163.6 109.1 163.6 114.9 160 118.4Z" fill="#00BAFF"/>
<path d="M142 90.3V107.1C142 107.4 142 107.7 142 108C141.8 110.8 140.6 113.3 138.7 115.1C136.8 117 134.3 118.2 131.6 118.4C131.3 118.4 131 118.4 130.7 118.4H129.5H113.9C113.8 117.7 113.8 117 113.9 116.4H129.5H130.7C131 116.4 131.3 116.4 131.6 116.3C136 115.9 139.6 112.4 140 108C140 107.7 140 107.4 140 107.1V105.9V90.3C140.6 90.2 141.3 90.2 142 90.3Z" fill="#CEE9FF"/>
<path d="M130.7 116.3C131 116.3 131.3 116.3 131.6 116.2V118.3V138C130.9 137.6 130.2 137.2 129.6 136.6V118.3V116.2H130.7V116.3Z" fill="#CEE9FF"/>
<path d="M160.3 105.9C160.9 106.5 161.3 107.2 161.7 107.9H142H139.9C139.9 107.6 139.9 107.3 139.9 107V105.8H141.9L160.3 105.9Z" fill="#CEE9FF"/>
<path d="M75.5 97.1C69.6 97.1 67.2 99.6 67.2 104.8C67.2 105.3 66.3 105.3 66.3 104.8C66.3 99.5 64.4 97.1 58 97.1C57.5 97.1 57.5 96.2 58 96.2C64.6 96.2 66.3 93.1 66.3 88.5C66.3 88 67.2 88 67.2 88.5C67.2 94.1 69.5 96.2 75.5 96.2C75.9 96.1 75.9 97.1 75.5 97.1Z" fill="#73C8FF"/>
<path d="M125.4 68.5C116.5 68.5 113 72.2 113 80C113 80.7 111.6 80.7 111.6 80C111.6 72.1 108.8 68.5 99.2 68.5C98.5 68.5 98.5 67.1 99.2 67.1C109.1 67.1 111.6 62.5 111.6 55.6C111.6 54.9 113 54.9 113 55.6C113 63.9 116.4 67.1 125.4 67.1C126.2 67.1 126.2 68.5 125.4 68.5Z" fill="#73C8FF"/>
<path d="M94.4 136.1C87.6 136.1 84.9 138.9 84.9 144.9C84.9 145.5 83.8 145.5 83.8 144.9C83.8 138.9 81.7 136.1 74.3 136.1C73.8 136.1 73.8 135 74.3 135C81.8 135 83.8 131.5 83.8 126.2C83.8 125.6 84.9 125.6 84.9 126.2C84.9 132.5 87.5 135 94.4 135C94.9 135.1 94.9 136.1 94.4 136.1Z" fill="#73C8FF"/>
</g>
<defs>
<clipPath id="clip0">
<rect width="416.4" height="351" fill="white"/>
</clipPath>
</defs>
</svg>
