<svg width="500" height="480" viewBox="0 0 500 480" fill="none" xmlns="http://www.w3.org/2000/svg">
<g id="think-illustration">
<g id="XMLID 1">
<circle id="Ellipse" cx="241.5" cy="252.5" r="227.5" fill="#EAF6FF"/>
<circle id="Ellipse_2" cx="241.5" cy="227.5" r="227.5" fill="#CEE9FF"/>
<g id="XMLID 370">
<path id="Vector" d="M477.747 175.001C477.747 189.582 465.925 201.617 451.089 201.617H388.966C388.966 221.984 372.508 238.417 352.109 238.417H300.881C289.522 238.417 280.25 247.675 280.25 259.016C280.25 270.356 289.522 279.614 300.881 279.614H478.442C490.264 279.614 500 289.335 500 301.139C500 312.942 490.264 322.663 478.442 322.663H362.772C344.46 322.663 329.393 337.476 329.624 355.991L104.775 356.454L105.471 317.108H25.7302C11.5902 316.877 0 305.536 0 291.187C0 277.068 11.5902 265.496 25.7302 265.496H87.6217C100.834 265.496 111.266 254.85 111.266 241.889C111.266 228.696 100.603 218.281 87.6217 218.281H81.8266C62.5869 218.281 47.0561 202.774 47.0561 183.564C47.0561 164.354 62.5869 148.848 81.8266 148.848H451.089C465.925 148.616 477.747 160.42 477.747 175.001Z" fill="#0099F9"/>
</g>
<g id="XMLID 340">
<g id="XMLID 369">
<path id="Vector_2" d="M399.861 226.845C399.861 222.447 396.152 218.744 391.748 218.744L309.921 219.207C304.126 219.207 299.49 224.53 299.49 231.011V357.38L400.093 356.917L399.861 226.845Z" fill="white"/>
</g>
<g id="XMLID 367">
<path id="XMLID 368" d="M398.006 356.686V226.613C398.006 224.993 397.311 223.373 396.152 221.984C394.993 220.827 393.37 220.133 391.748 220.133L309.921 220.596V217.124L391.748 216.661C394.529 216.661 396.847 217.587 398.702 219.438C400.556 221.29 401.715 223.836 401.715 226.382V356.454H398.006V356.686Z" fill="#045384"/>
</g>
<g id="XMLID 365">
<path id="XMLID 366" d="M300.881 235.64H297.404V265.265H300.881V235.64Z" fill="#045384"/>
</g>
<g id="XMLID 364">
<path id="Vector_3" d="M355.938 291.835C364.447 283.339 364.447 269.564 355.938 261.068C347.429 252.572 333.633 252.572 325.123 261.068C316.614 269.564 316.614 283.339 325.123 291.835C333.633 300.331 347.429 300.331 355.938 291.835Z" fill="#BFE6FF"/>
</g>
<g id="XMLID 346">
<path id="XMLID 347" d="M350.95 310.165C350.487 310.165 350.255 310.165 349.791 310.165L350.023 306.693C351.414 306.693 352.805 306.693 354.196 306.462L354.659 309.934C353.5 310.165 352.341 310.165 350.95 310.165ZM344.924 309.471C343.301 309.008 341.91 308.545 340.287 307.619L341.91 304.61C343.069 305.305 344.46 305.768 345.851 305.999L344.924 309.471ZM359.527 308.776L358.368 305.536C359.759 305.073 360.918 304.379 362.077 303.685L363.931 306.693C362.541 307.388 360.918 308.082 359.527 308.776ZM336.347 305.073C335.651 304.61 335.188 303.916 334.492 303.453C334.029 302.99 333.333 302.296 332.87 301.602L335.651 299.519C336.115 299.981 336.579 300.444 337.042 301.139C337.506 301.602 338.201 302.064 338.665 302.527L336.347 305.073ZM367.64 303.453L365.09 300.907C366.018 299.981 366.945 298.824 367.64 297.667L370.654 299.519C369.958 300.907 368.799 302.296 367.64 303.453ZM330.088 297.436C329.393 296.047 328.697 294.427 328.234 292.807L331.479 291.881C331.943 293.27 332.406 294.658 333.102 295.815L330.088 297.436ZM372.972 295.121L369.726 293.964C370.19 292.575 370.654 291.418 370.885 290.029L374.363 290.492C374.131 292.112 373.667 293.732 372.972 295.121ZM327.538 288.178C327.538 287.715 327.538 287.252 327.538 286.789C327.538 285.632 327.538 284.475 327.77 283.086L331.247 283.549C331.015 284.475 331.015 285.632 331.015 286.558C331.015 287.021 331.015 287.252 331.015 287.715L327.538 288.178ZM371.117 285.632C371.117 284.243 370.885 282.854 370.422 281.466L373.667 280.54C374.131 282.16 374.363 283.78 374.363 285.4L371.117 285.632ZM332.174 279.614L328.929 278.457C329.624 276.837 330.32 275.448 331.247 274.06L334.261 275.911C333.333 277.068 332.87 278.457 332.174 279.614ZM368.799 277.763C368.104 276.605 367.408 275.448 366.481 274.291L369.263 272.208C370.19 273.597 371.117 274.754 372.045 276.374L368.799 277.763ZM336.81 272.671L334.261 270.356C335.42 269.199 336.81 268.042 338.201 267.116L340.056 270.125C338.897 270.819 337.738 271.745 336.81 272.671ZM363.7 271.282C362.541 270.356 361.382 269.662 360.223 268.968L361.845 265.959C363.236 266.653 364.627 267.579 366.018 268.736L363.7 271.282ZM343.764 268.042L342.605 264.802C344.228 264.107 345.619 263.876 347.242 263.645L347.705 267.116C346.546 267.348 345.155 267.579 343.764 268.042ZM356.282 267.348C354.891 266.885 353.5 266.885 352.109 266.653L352.341 263.182C353.964 263.182 355.586 263.413 357.209 263.876L356.282 267.348Z" fill="#045384"/>
</g>
<g id="XMLID 345">
<path id="Vector_4" d="M295.781 218.513H391.284C391.284 218.513 382.707 218.976 382.707 227.076C382.707 228.233 382.707 232.168 382.707 232.168H287.204V227.076C287.204 222.447 290.913 218.513 295.781 218.513Z" fill="#0099F9"/>
</g>
<g id="XMLID 341">
<path id="XMLID 342" d="M384.33 234.02H285.35V227.308C285.35 221.521 289.986 216.893 295.781 216.893H391.284V220.364C390.589 220.364 384.33 221.059 384.33 227.308V234.02ZM288.827 230.548H380.853V227.308C380.853 224.299 382.012 221.984 383.403 220.364H295.781C291.84 220.364 288.827 223.373 288.827 227.308V230.548Z" fill="#045384"/>
</g>
</g>
<g id="XMLID 314">
<g id="XMLID 339">
<path id="Vector_5" d="M101.762 203.006H78.3495C76.4951 203.006 75.1043 204.395 75.1043 206.246V353.908C75.1043 355.76 76.4951 357.148 78.3495 357.148H101.762C103.616 357.148 105.007 355.76 105.007 353.908V206.246C105.007 204.395 103.616 203.006 101.762 203.006Z" fill="#BFE6FF"/>
</g>
<g id="XMLID 337">
<path id="XMLID 338" d="M78.3495 359C75.5678 359 73.2498 356.686 73.2498 353.908V206.246C73.2498 203.469 75.5678 201.154 78.3495 201.154H101.762C104.543 201.154 106.861 203.469 106.861 206.246V219.67H103.384V206.246C103.384 205.32 102.689 204.626 101.762 204.626H78.3495C77.4223 204.626 76.7269 205.32 76.7269 206.246V353.908C76.7269 354.834 77.4223 355.528 78.3495 355.528V359Z" fill="#045384"/>
</g>
<g id="XMLID 335">
<path id="XMLID 336" d="M93.4167 340.253H75.1043V343.725H93.4167V340.253Z" fill="#045384"/>
</g>
<g id="XMLID 333">
<path id="XMLID 334" d="M84.1446 327.523H75.1043V330.995H84.1446V327.523Z" fill="#045384"/>
</g>
<g id="XMLID 331">
<path id="XMLID 332" d="M84.1446 314.794H75.1043V318.266H84.1446V314.794Z" fill="#045384"/>
</g>
<g id="XMLID 329">
<path id="XMLID 330" d="M84.1446 301.833H75.1043V305.305H84.1446V301.833Z" fill="#045384"/>
</g>
<g id="XMLID 327">
<path id="XMLID 328" d="M93.4167 289.104H75.1043V292.575H93.4167V289.104Z" fill="#045384"/>
</g>
<g id="XMLID 325">
<path id="XMLID 326" d="M84.1446 276.374H75.1043V279.846H84.1446V276.374Z" fill="#045384"/>
</g>
<g id="XMLID 323">
<path id="XMLID 324" d="M84.1446 263.413H75.1043V266.885H84.1446V263.413Z" fill="#045384"/>
</g>
<g id="XMLID 321">
<path id="XMLID 322" d="M84.1446 250.684H75.1043V254.155H84.1446V250.684Z" fill="#045384"/>
</g>
<g id="XMLID 319">
<path id="XMLID 320" d="M93.4167 237.954H75.5679V241.426H93.4167V237.954Z" fill="#045384"/>
</g>
<g id="XMLID 317">
<path id="XMLID 318" d="M85.0718 224.993H76.0315V228.465H85.0718V224.993Z" fill="#045384"/>
</g>
<g id="XMLID 315">
<path id="XMLID 316" d="M85.5355 212.264H76.4951V215.735H85.5355V212.264Z" fill="#045384"/>
</g>
</g>
<g id="XMLID 298">
<g id="XMLID 313">
<path id="Vector_6" d="M213.491 357.148V230.316C213.491 226.382 210.477 223.373 206.537 223.373H104.08C100.139 223.373 97.1255 226.382 97.1255 230.316V357.148H213.491Z" fill="white"/>
</g>
<g id="XMLID 312">
<path id="Vector_7" d="M97.1255 241.426V229.391C97.1255 226.15 99.6754 223.604 102.921 223.604H207.696C210.941 223.604 213.491 226.15 213.491 229.391V241.426H97.1255Z" fill="#BFE6FF"/>
</g>
<g id="XMLID 310">
<path id="XMLID 311" d="M213.491 240.037H97.1255V243.509H213.491V240.037Z" fill="#045384"/>
</g>
<g id="XMLID 308">
<path id="XMLID 309" d="M114.974 231.705H110.338V235.177H114.974V231.705Z" fill="#045384"/>
</g>
<g id="XMLID 306">
<path id="XMLID 307" d="M125.869 231.705H121.233V235.177H125.869V231.705Z" fill="#045384"/>
</g>
<g id="XMLID 304">
<path id="XMLID 305" d="M136.532 231.705H131.896V235.177H136.532V231.705Z" fill="#045384"/>
</g>
<g id="XMLID 303">
<path id="Vector_8" d="M197.96 255.081H112.656V288.641H197.96V255.081Z" fill="#BFE6FF"/>
</g>
<g id="XMLID 302">
<path id="Vector_9" d="M138.618 309.934H112.656V343.493H138.618V309.934Z" fill="#BFE6FF"/>
</g>
<g id="XMLID 301">
<path id="Vector_10" d="M173.853 309.934H147.891V343.493H173.853V309.934Z" fill="#BFE6FF"/>
</g>
<g id="XMLID 299">
<path id="XMLID 300" d="M98.7482 357.148H95.2712V230.316C95.2712 225.456 99.2118 221.753 103.848 221.753H206.305C211.173 221.753 214.882 225.687 214.882 230.316V275.217H211.405V230.316C211.405 227.539 209.087 225.225 206.305 225.225H104.08C101.298 225.225 98.98 227.539 98.98 230.316V357.148H98.7482Z" fill="#045384"/>
</g>
</g>
<g id="XMLID 293">
<g id="XMLID 296">
<path id="XMLID 297" d="M197.96 143.293H187.993C187.065 143.293 186.138 142.599 186.138 141.441C186.138 140.516 186.834 139.59 187.993 139.59H197.96C198.887 139.59 199.815 140.284 199.815 141.441C199.583 142.367 198.887 143.293 197.96 143.293Z" fill="#045384"/>
</g>
<g id="XMLID 294">
<path id="XMLID 295" d="M193.092 148.153C192.165 148.153 191.238 147.459 191.238 146.302V136.581C191.238 135.655 191.933 134.729 193.092 134.729C194.019 134.729 194.947 135.424 194.947 136.581V146.533C194.715 147.459 194.019 148.153 193.092 148.153Z" fill="#045384"/>
</g>
</g>
<g id="XMLID 288">
<g id="XMLID 291">
<path id="XMLID 292" d="M435.327 224.067H425.359C424.432 224.067 423.505 223.373 423.505 222.216C423.505 221.29 424.2 220.364 425.359 220.364H435.327C436.254 220.364 437.181 221.059 437.181 222.216C436.949 223.142 436.254 224.067 435.327 224.067Z" fill="#045384"/>
</g>
<g id="XMLID 289">
<path id="XMLID 290" d="M430.459 228.928C429.532 228.928 428.605 228.233 428.605 227.076V217.124C428.605 216.198 429.3 215.272 430.459 215.272C431.386 215.272 432.313 215.967 432.313 217.124V227.076C432.082 228.233 431.386 228.928 430.459 228.928Z" fill="#045384"/>
</g>
</g>
<g id="XMLID 283">
<g id="XMLID 286">
<path id="XMLID 287" d="M381.085 159.726C380.621 159.726 380.158 159.494 379.926 159.263C379.23 158.568 379.23 157.411 379.926 156.717L386.88 149.773C387.575 149.079 388.734 149.079 389.43 149.773C390.125 150.468 390.125 151.625 389.43 152.319L382.476 159.263C382.012 159.494 381.548 159.726 381.085 159.726Z" fill="#045384"/>
</g>
<g id="XMLID 284">
<path id="XMLID 285" d="M388.039 159.726C387.575 159.726 387.112 159.494 386.88 159.263L379.926 152.319C379.23 151.625 379.23 150.468 379.926 149.773C380.621 149.079 381.78 149.079 382.476 149.773L389.43 156.717C390.125 157.411 390.125 158.568 389.43 159.263C388.966 159.494 388.503 159.726 388.039 159.726Z" fill="#045384"/>
</g>
</g>
<g id="XMLID 278">
<g id="XMLID 281">
<path id="XMLID 282" d="M38.0157 238.88C37.5521 238.88 37.0885 238.648 36.8567 238.417C36.1613 237.723 36.1613 236.565 36.8567 235.871L43.8108 228.928C44.5062 228.233 45.6652 228.233 46.3606 228.928C47.0561 229.622 47.0561 230.779 46.3606 231.474L39.4065 238.417C38.9429 238.88 38.4793 238.88 38.0157 238.88Z" fill="#045384"/>
</g>
<g id="XMLID 279">
<path id="XMLID 280" d="M44.9698 238.88C44.5062 238.88 44.0426 238.648 43.8108 238.417L36.8567 231.474C36.1613 230.779 36.1613 229.622 36.8567 228.928C37.5521 228.233 38.7111 228.233 39.4065 228.928L46.3606 235.871C47.0561 236.565 47.0561 237.723 46.3606 238.417C45.897 238.88 45.4334 238.88 44.9698 238.88Z" fill="#045384"/>
</g>
</g>
<g id="XMLID 276">
<path id="XMLID 277" d="M164.117 139.821H123.783V143.293H164.117V139.821Z" fill="#045384"/>
</g>
<g id="XMLID 274">
<path id="XMLID 275" d="M496.755 240.037H432.777V243.509H496.755V240.037Z" fill="#045384"/>
</g>
<g id="XMLID 272">
<path id="XMLID 273" d="M372.972 152.782H297.867V156.254H372.972V152.782Z" fill="#045384"/>
</g>
<g id="XMLID 270">
<path id="XMLID 271" d="M142.559 177.315H23.644V180.787H142.559V177.315Z" fill="#045384"/>
</g>
<g id="XMLID 268">
<path id="XMLID 269" d="M175.939 139.821H167.594V143.293H175.939V139.821Z" fill="#045384"/>
</g>
<g id="XMLID 266">
<path id="XMLID 267" d="M59.8054 297.898C62.2378 297.898 64.2096 295.93 64.2096 293.501C64.2096 291.072 62.2378 289.104 59.8054 289.104C57.3729 289.104 55.4011 291.072 55.4011 293.501C55.4011 295.93 57.3729 297.898 59.8054 297.898Z" fill="#045384"/>
</g>
<g id="XMLID 264">
<path id="XMLID 265" d="M160.872 203.469C162.152 203.469 163.19 202.433 163.19 201.154C163.19 199.876 162.152 198.84 160.872 198.84C159.591 198.84 158.554 199.876 158.554 201.154C158.554 202.433 159.591 203.469 160.872 203.469Z" fill="#045384"/>
</g>
<g id="XMLID 262">
<path id="XMLID 263" d="M388.039 130.332C389.319 130.332 390.357 129.296 390.357 128.018C390.357 126.739 389.319 125.703 388.039 125.703C386.759 125.703 385.721 126.739 385.721 128.018C385.721 129.296 386.759 130.332 388.039 130.332Z" fill="#045384"/>
</g>
<g id="XMLID 260">
<path id="XMLID 261" d="M331.479 198.377C333.271 198.377 334.724 196.926 334.724 195.137C334.724 193.347 333.271 191.896 331.479 191.896C329.687 191.896 328.234 193.347 328.234 195.137C328.234 196.926 329.687 198.377 331.479 198.377Z" fill="#045384"/>
</g>
<g id="XMLID 258">
<path id="XMLID 259" d="M85.5354 136.813C87.3277 136.813 88.7807 135.362 88.7807 133.572C88.7807 131.783 87.3277 130.332 85.5354 130.332C83.7431 130.332 82.2902 131.783 82.2902 133.572C82.2902 135.362 83.7431 136.813 85.5354 136.813Z" fill="#045384"/>
</g>
<g id="XMLID 256">
<path id="XMLID 257" d="M439.036 261.33C440.316 261.33 441.354 260.294 441.354 259.016C441.354 257.737 440.316 256.701 439.036 256.701C437.756 256.701 436.718 257.737 436.718 259.016C436.718 260.294 437.756 261.33 439.036 261.33Z" fill="#045384"/>
</g>
<g id="XMLID 249" opacity="0.3">
<path id="XMLID 255" opacity="0.3" d="M348.169 356.917C356.745 353.908 363.004 345.808 363.931 335.161C364.163 332.847 363.931 330.532 363.236 328.218C366.945 324.052 369.495 318.497 369.958 312.248C370.422 306.462 368.567 300.676 364.395 296.278C359.991 291.649 353.732 288.641 347.241 288.409C344.923 284.475 340.751 281.929 336.115 281.929C334.724 281.929 333.333 282.16 331.942 282.623C330.783 280.771 329.393 278.92 328.002 277.3C323.134 272.439 316.875 269.894 309.921 269.894C306.212 269.894 302.503 270.819 299.258 272.208V356.454H337.274C337.738 356.454 338.433 356.454 338.897 356.454C339.36 356.454 340.056 356.454 340.519 356.454V356.917H348.169Z" fill="#045384"/>
</g>
<g id="XMLID 241" opacity="0.3">
<path id="XMLID 242" opacity="0.3" d="M213.491 307.388C213.259 307.388 213.027 307.156 213.027 307.156C213.259 306.693 213.491 306.23 213.491 305.536V287.252C209.782 276.374 199.351 268.736 187.297 268.736C174.78 268.736 164.117 277.068 160.64 288.641C158.09 288.178 155.54 288.641 153.222 289.798L154.149 291.418C152.527 292.344 151.136 293.732 149.977 295.353C149.745 295.353 149.281 295.353 149.05 295.353C139.777 295.353 132.128 302.99 132.128 312.248C132.128 314.331 132.592 316.183 133.055 318.034C127.028 322.2 123.551 328.912 123.551 336.318C123.551 346.271 130.042 354.603 139.082 357.611H145.804V356.917C149.05 356.917 152.063 356.223 154.845 354.834C157.163 356.223 159.944 356.917 162.958 356.917H213.491V307.388Z" fill="#045384"/>
</g>
<g id="XMLID 53">
<g id="XMLID 234">
<path id="Vector_11" d="M385.721 356.686H113.584C102.689 356.686 117.988 351.362 117.988 341.873C117.988 332.384 134.91 322.432 145.804 322.432H368.104C378.999 322.432 387.807 330.069 387.807 339.559C388.039 348.816 390.589 356.686 385.721 356.686Z" fill="white"/>
</g>
<g id="XMLID 232">
<path id="XMLID 233" d="M191.933 322.663C206.4 322.663 218.127 310.954 218.127 296.51C218.127 282.066 206.4 270.356 191.933 270.356C177.467 270.356 165.739 282.066 165.739 296.51C165.739 310.954 177.467 322.663 191.933 322.663Z" fill="white"/>
</g>
<g id="XMLID 230">
<path id="XMLID 231" d="M163.421 310.859C169.182 310.859 173.853 306.196 173.853 300.444C173.853 294.692 169.182 290.029 163.421 290.029C157.66 290.029 152.99 294.692 152.99 300.444C152.99 306.196 157.66 310.859 163.421 310.859Z" fill="white"/>
</g>
<g id="XMLID 228">
<path id="XMLID 229" d="M153.454 327.292C161.903 327.292 168.753 320.453 168.753 312.017C168.753 303.58 161.903 296.741 153.454 296.741C145.004 296.741 138.155 303.58 138.155 312.017C138.155 320.453 145.004 327.292 153.454 327.292Z" fill="white"/>
</g>
<g id="XMLID 226">
<path id="XMLID 227" d="M124.478 356.454C133.056 356.454 140.009 349.511 140.009 340.947C140.009 332.383 133.056 325.44 124.478 325.44C115.901 325.44 108.948 332.383 108.948 340.947C108.948 349.511 115.901 356.454 124.478 356.454Z" fill="white"/>
</g>
<g id="XMLID 224">
<path id="XMLID 225" d="M111.266 356.686C118.307 356.686 124.015 350.986 124.015 343.956C124.015 336.926 118.307 331.227 111.266 331.227C104.224 331.227 98.5164 336.926 98.5164 343.956C98.5164 350.986 104.224 356.686 111.266 356.686Z" fill="white"/>
</g>
<g id="XMLID 222">
<path id="XMLID 223" d="M150.44 356.686C161.834 356.686 171.071 347.463 171.071 336.087C171.071 324.711 161.834 315.488 150.44 315.488C139.047 315.488 129.81 324.711 129.81 336.087C129.81 347.463 139.047 356.686 150.44 356.686Z" fill="white"/>
</g>
<g id="XMLID 220">
<path id="XMLID 221" d="M131.433 336.087H127.956C127.956 328.912 131.433 321.969 137.459 317.803L139.546 320.58C134.446 324.283 131.433 329.838 131.433 336.087Z" fill="#045384"/>
</g>
<g id="XMLID 218">
<path id="XMLID 219" d="M215.114 325.672C219.85 325.672 223.69 321.838 223.69 317.108C223.69 312.379 219.85 308.545 215.114 308.545C210.377 308.545 206.537 312.379 206.537 317.108C206.537 321.838 210.377 325.672 215.114 325.672Z" fill="white"/>
</g>
<g id="XMLID 216">
<path id="XMLID 217" d="M305.285 318.96C318.343 318.96 328.929 308.391 328.929 295.353C328.929 282.315 318.343 271.745 305.285 271.745C292.227 271.745 281.641 282.315 281.641 295.353C281.641 308.391 292.227 318.96 305.285 318.96Z" fill="white"/>
</g>
<g id="XMLID 214">
<path id="XMLID 215" d="M333.102 308.545C332.406 316.877 326.379 323.82 317.803 323.82C309.458 323.82 302.503 317.108 302.503 308.545C302.503 300.213 309.226 293.27 317.803 293.27C326.379 293.501 333.797 300.213 333.102 308.545Z" fill="white"/>
</g>
<g id="XMLID 209">
<path id="XMLID 211" d="M317.803 318.96C317.107 327.292 311.08 334.235 302.504 334.235C294.159 334.235 287.205 327.523 287.205 318.96C287.205 310.628 293.927 303.685 302.504 303.685C311.08 303.916 318.73 310.628 317.803 318.96Z" fill="white"/>
</g>
<g id="XMLID 207">
<path id="XMLID 208" d="M213.491 319.191C212.1 327.523 200.51 334.467 184.515 334.467C168.521 334.467 155.54 327.755 155.54 319.191C155.54 310.859 168.521 303.916 184.515 303.916C200.51 304.147 214.882 310.859 213.491 319.191Z" fill="white"/>
</g>
<g id="XMLID 205">
<path id="XMLID 206" d="M363.468 312.248C362.309 324.515 353.5 334.467 341.215 334.467C328.929 334.467 318.961 324.515 318.961 312.248C318.961 299.981 328.929 290.029 341.215 290.029C353.5 290.029 364.627 299.981 363.468 312.248Z" fill="white"/>
</g>
<g id="XMLID 203">
<path id="XMLID 204" d="M386.416 336.55C385.489 347.659 377.376 356.454 366.481 356.454C355.355 356.454 346.546 347.428 346.546 336.55C346.546 325.44 355.586 316.646 366.481 316.646C377.376 316.646 387.344 325.672 386.416 336.55Z" fill="white"/>
</g>
<g id="XMLID 200">
<path id="XMLID 202" d="M400.324 342.336C399.629 350.205 393.834 356.686 385.953 356.686C378.071 356.686 371.581 350.205 371.581 342.336C371.581 334.467 378.071 327.986 385.953 327.986C393.834 327.986 401.02 334.467 400.324 342.336Z" fill="white"/>
</g>
<g id="XMLID 197">
<path id="XMLID 198" d="M357.441 335.161C356.282 346.965 347.937 356.454 336.115 356.454C324.293 356.454 314.789 346.965 314.789 335.161C314.789 323.357 324.293 313.868 336.115 313.868C347.705 313.868 358.368 323.357 357.441 335.161Z" fill="white"/>
</g>
<g id="XMLID 195">
<path id="XMLID 196" d="M285.118 324.978C292.8 324.978 299.026 318.76 299.026 311.091C299.026 303.421 292.8 297.204 285.118 297.204C277.437 297.204 271.21 303.421 271.21 311.091C271.21 318.76 277.437 324.978 285.118 324.978Z" fill="white"/>
</g>
<g id="XMLID 191">
<path id="XMLID 194" d="M272.833 331.458C277.313 331.458 280.946 327.831 280.946 323.357C280.946 318.884 277.313 315.257 272.833 315.257C268.352 315.257 264.719 318.884 264.719 323.357C264.719 327.831 268.352 331.458 272.833 331.458Z" fill="white"/>
</g>
<g id="XMLID 173">
<path id="XMLID 182" d="M265.878 324.052H262.401C262.401 318.729 266.806 314.1 272.369 314.1V317.571C268.66 317.571 265.878 320.58 265.878 324.052Z" fill="#045384"/>
</g>
<g id="XMLID 171">
<path id="XMLID 172" d="M231.34 337.938C240.301 337.938 247.566 333.69 247.566 328.449C247.566 323.208 240.301 318.96 231.34 318.96C222.378 318.96 215.114 323.208 215.114 328.449C215.114 333.69 222.378 337.938 231.34 337.938Z" fill="white"/>
</g>
<g id="XMLID 168">
<path id="XMLID 170" d="M341.678 290.724C341.678 296.741 331.479 312.711 331.479 305.536C331.479 299.519 320.584 300.676 320.584 294.658C320.584 288.641 325.452 283.78 331.479 283.78C337.506 283.549 341.678 284.706 341.678 290.724Z" fill="white"/>
</g>
<g id="XMLID 160">
<path id="XMLID 165" d="M339.824 290.724C338.433 287.483 334.956 285.4 331.479 285.4C330.088 285.4 328.929 285.632 327.77 286.095L326.379 282.854C328.002 282.16 329.624 281.697 331.479 281.697C336.347 281.697 340.983 284.706 343.069 289.104L339.824 290.724Z" fill="#045384"/>
</g>
<g id="XMLID 131">
<path id="XMLID 132" d="M287.204 313.405C282.336 308.545 279.787 302.296 279.787 295.353C279.787 288.641 282.336 282.16 287.204 277.3C292.072 272.439 298.331 269.894 305.285 269.894C312.007 269.894 318.498 272.439 323.366 277.3C328.234 282.16 330.783 288.409 330.783 295.353H327.306C327.306 289.566 324.988 284.012 320.816 279.846C316.643 275.68 311.08 273.365 305.285 273.365C299.49 273.365 293.927 275.68 289.754 279.846C285.582 284.012 283.264 289.566 283.264 295.353C283.264 301.139 285.582 306.693 289.754 310.859L287.204 313.405Z" fill="#045384"/>
</g>
<g id="XMLID 129">
<path id="XMLID 130" d="M285.118 326.829C276.541 326.829 269.355 319.886 269.355 311.091C269.355 303.916 274.223 297.667 280.946 296.047L281.873 299.519C276.541 300.907 272.833 305.768 272.833 311.322C272.833 318.034 278.396 323.589 285.118 323.589V326.829Z" fill="#045384"/>
</g>
<g id="XMLID 127">
<path id="XMLID 128" d="M205.61 320.58L203.987 317.571C211.637 313.174 216.273 305.073 216.273 296.51C216.273 283.086 205.378 272.208 191.933 272.208C178.489 272.208 167.594 283.086 167.594 296.51H164.117C164.117 281.234 176.634 268.736 191.933 268.736C207.232 268.736 219.75 281.234 219.75 296.51C219.75 306.462 214.418 315.72 205.61 320.58Z" fill="#045384"/>
</g>
<g id="XMLID 125">
<path id="XMLID 126" d="M159.481 292.807L157.626 289.798C160.408 288.409 163.885 287.946 166.898 288.872L165.971 292.112C163.885 291.649 161.335 291.649 159.481 292.807Z" fill="#045384"/>
</g>
<g id="XMLID 123">
<path id="XMLID 124" d="M215.114 327.523V324.052C218.822 324.052 222.068 321.043 222.068 317.108C222.068 313.405 219.054 310.165 215.114 310.165V306.693C220.909 306.693 225.545 311.322 225.545 317.108C225.545 322.895 220.909 327.523 215.114 327.523Z" fill="#045384"/>
</g>
<g id="XMLID 121">
<path id="XMLID 122" d="M280.946 337.244H219.518L237.367 317.34V243.277H256.375L255.447 310.859C255.447 315.025 257.302 318.729 260.547 321.274L280.946 337.244Z" fill="white"/>
</g>
<g id="XMLID 119">
<path id="XMLID 120" d="M265.183 322.895H263.097C257.997 322.895 254.056 318.729 254.056 313.637V243.277H257.534V313.637C257.534 316.646 260.083 319.191 263.097 319.423H264.951V322.895H265.183Z" fill="#045384"/>
</g>
<g id="XMLID 117">
<path id="XMLID 118" d="M230.413 321.043H223.69V317.571H230.413C233.194 317.571 235.28 315.257 235.28 312.711V243.277H238.758V312.479C238.989 317.108 235.28 321.043 230.413 321.043Z" fill="#045384"/>
</g>
<g id="XMLID 113">
<path id="XMLID 114" d="M227.167 351.362C227.167 349.742 227.399 348.122 228.095 346.502C228.79 344.882 229.485 343.493 230.644 342.336C231.803 341.179 233.194 340.021 234.817 339.327C236.44 338.633 238.062 338.17 239.685 338.17C241.307 338.17 242.93 338.401 244.553 339.096C246.175 339.79 247.566 340.484 248.725 341.642L246.407 344.188C245.48 343.262 244.553 342.799 243.394 342.336C242.235 341.873 241.076 341.642 239.917 341.642C238.758 341.642 237.367 341.873 236.208 342.336C235.049 342.799 234.121 343.493 233.194 344.419C232.267 345.345 231.803 346.271 231.34 347.428C230.876 348.585 230.644 349.742 230.644 350.899L227.167 351.362Z" fill="#045384"/>
</g>
<g id="XMLID 107">
<path id="XMLID 110" d="M171.998 324.746C171.998 323.126 172.23 321.506 172.925 319.886C173.621 318.266 174.316 316.877 175.475 315.72C176.634 314.562 178.025 313.405 179.648 312.711C181.27 312.017 182.893 311.554 184.516 311.554C186.138 311.554 187.761 311.785 189.383 312.479C191.006 313.174 192.397 313.868 193.556 315.025L191.238 317.571C190.311 316.646 189.383 316.183 188.224 315.72C187.065 315.257 185.906 315.025 184.747 315.025C183.588 315.025 182.198 315.257 181.038 315.72C179.879 316.183 178.952 316.877 178.025 317.803C177.098 318.729 176.634 319.654 176.171 320.812C175.707 321.969 175.475 323.126 175.475 324.283L171.998 324.746Z" fill="#045384"/>
</g>
<g id="XMLID 88">
<path id="XMLID 94" d="M315.484 318.729L312.239 317.571C312.703 316.414 312.935 315.257 312.935 314.1C312.935 312.942 312.703 311.785 312.239 310.628C311.776 309.471 311.08 308.545 310.153 307.619C309.226 306.693 308.067 305.999 306.908 305.768C305.749 305.305 304.59 305.073 303.431 305.073C302.272 305.073 301.113 305.305 299.954 305.768L298.563 302.527C300.185 301.833 301.576 301.602 303.431 301.37C305.053 301.37 306.676 301.602 308.299 302.064C309.921 302.759 311.312 303.453 312.703 304.842C313.862 305.999 315.021 307.388 315.716 309.008C316.412 310.628 316.643 312.248 316.875 313.868C316.412 315.488 315.948 317.108 315.484 318.729Z" fill="#045384"/>
</g>
<g id="XMLID 78">
<path id="XMLID 83" d="M243.162 340.716L239.685 340.253C239.916 338.633 240.38 337.013 241.307 335.393C242.235 334.004 243.394 332.615 244.784 331.689C246.175 330.764 247.566 330.069 249.189 329.606C250.811 329.144 252.434 329.144 254.057 329.375L253.593 332.847C252.434 332.615 251.275 332.847 250.116 333.078C248.957 333.31 247.798 334.004 246.871 334.698C245.943 335.393 245.016 336.318 244.321 337.476C243.625 338.17 243.162 339.559 243.162 340.716Z" fill="#045384"/>
</g>
<g id="XMLID 69">
<path id="XMLID 77" d="M316.18 343.03L312.703 342.567C312.935 340.947 313.398 339.327 314.325 337.707C315.253 336.318 316.412 334.93 317.802 334.004C319.193 333.078 320.584 332.384 322.207 331.921C323.829 331.458 325.452 331.458 327.075 331.689L326.843 334.93C325.684 334.698 324.525 334.93 323.366 335.161C322.207 335.393 321.048 336.087 320.12 336.781C319.193 337.476 318.266 338.401 317.571 339.559C316.875 340.484 316.412 341.642 316.18 343.03Z" fill="#045384"/>
</g>
<g id="XMLID 67">
<path id="XMLID 68" d="M278.164 356.686C276.542 356.223 275.151 355.297 273.76 354.14C272.369 352.982 271.442 351.594 270.746 350.205C270.051 348.816 269.587 347.196 269.587 345.576C269.587 343.956 269.587 342.336 270.283 340.716L273.528 341.873C273.064 343.03 273.064 344.187 273.064 345.345C273.064 346.502 273.528 347.659 273.992 348.816C274.455 349.974 275.382 350.899 276.31 351.825C277.237 352.751 278.396 353.214 279.555 353.677L278.164 356.686Z" fill="#045384"/>
</g>
<g id="XMLID 64">
<path id="XMLID 66" d="M141.4 324.052C138.155 320.812 136.532 316.646 136.532 312.017C136.532 302.759 144.182 295.121 153.454 295.121C157.394 295.121 161.103 296.51 164.117 299.056L161.799 301.833C159.481 299.75 156.467 298.824 153.222 298.824C145.804 298.824 139.777 304.842 139.777 312.248C139.777 315.951 141.168 319.191 143.718 321.737L141.4 324.052Z" fill="#045384"/>
</g>
<g id="XMLID 62">
<path id="XMLID 63" d="M351.414 333.772L349.791 330.764C356.514 327.523 360.918 320.349 361.613 312.017C362.077 307.156 360.454 302.527 356.977 298.593C351.877 293.038 343.764 290.492 336.347 292.344L335.419 288.872C343.996 286.789 353.5 289.798 359.295 296.278C363.468 300.907 365.322 306.462 364.858 312.248C364.395 321.969 359.063 330.069 351.414 333.772Z" fill="#045384"/>
</g>
<g id="XMLID 60">
<path id="XMLID 61" d="M110.57 340.947H107.093C107.093 331.458 114.975 323.589 124.478 323.589C127.26 323.589 129.81 324.283 132.128 325.44L130.505 328.449C128.651 327.523 126.565 327.061 124.247 327.061C116.829 327.061 110.57 333.31 110.57 340.947Z" fill="#045384"/>
</g>
<g id="XMLID 58">
<path id="XMLID 59" d="M111.266 358.306C103.384 358.306 96.8938 351.825 96.8938 343.956C96.8938 336.318 104.08 329.606 112.425 329.606V333.078C106.166 333.078 100.371 338.401 100.371 343.956C100.371 349.974 105.239 354.834 111.266 354.834V358.306Z" fill="#045384"/>
</g>
<g id="XMLID 56">
<path id="XMLID 57" d="M382.476 350.899L379.926 348.585C382.707 345.345 384.33 340.947 384.794 336.55C385.257 332.152 383.635 327.986 380.621 324.746C376.217 319.886 369.263 317.571 362.772 318.96L362.077 315.488C369.495 313.868 378.071 316.645 383.171 322.432C386.88 326.598 388.734 331.689 388.271 337.013C387.575 342.104 385.489 346.965 382.476 350.899Z" fill="#045384"/>
</g>
<g id="XMLID 54">
<path id="XMLID 55" d="M385.953 358.306V354.834C392.675 354.834 398.006 349.511 398.47 342.104C398.702 339.096 397.775 336.318 395.688 334.004C393.139 331.227 389.662 329.838 385.953 329.838V326.366C390.589 326.366 395.225 328.449 398.238 331.689C401.02 334.698 402.411 338.633 401.947 342.567C401.252 351.594 394.529 358.306 385.953 358.306Z" fill="#045384"/>
</g>
</g>
<g id="XMLID 21">
<g id="XMLID 52">
<path id="Vector_12" d="M249.42 246.055H242.93C241.539 246.055 240.612 244.897 240.612 243.74V231.474C240.612 230.316 241.539 229.159 242.93 229.159H249.42C250.579 229.159 251.738 230.316 251.738 231.474V243.74C251.738 244.897 250.579 246.055 249.42 246.055Z" fill="#0099F9"/>
</g>
<g id="XMLID 48">
<path id="XMLID 49" d="M249.42 247.675H242.93C240.612 247.675 238.758 245.823 238.758 243.509V231.242C238.758 228.928 240.612 227.076 242.93 227.076H249.42C251.738 227.076 253.593 228.928 253.593 231.242V243.509C253.361 246.055 251.738 247.675 249.42 247.675ZM242.93 231.011C242.698 231.011 242.466 231.242 242.466 231.474V243.74C242.466 243.972 242.698 244.203 242.93 244.203H249.42C249.652 244.203 249.884 243.972 249.884 243.74V231.474C249.884 231.242 249.652 231.011 249.42 231.011H242.93Z" fill="#045384"/>
</g>
<g id="XMLID 46">
<path id="XMLID 47" d="M283.496 160.651C283.496 140.284 267.038 123.852 246.639 123.852C226.24 123.852 209.782 140.284 209.782 160.651C209.782 174.307 217.2 186.11 228.326 192.591V228.928L233.658 238.88H258.924L265.183 228.928V192.591C275.846 186.11 283.496 174.307 283.496 160.651Z" fill="white"/>
</g>
<g id="XMLID 44">
<path id="XMLID 45" d="M228.094 192.591V228.696L233.426 238.648H258.693L264.951 228.696V192.591H228.094Z" fill="#BFE6FF"/>
</g>
<g id="XMLID 42">
<path id="XMLID 43" d="M264.951 228.696L258.693 238.648H233.426L228.094 228.696H264.951Z" fill="#0099F9"/>
</g>
<g id="XMLID 40">
<path id="XMLID 41" d="M259.62 240.5H232.267L226.24 229.391V193.517C214.882 186.573 207.696 174.075 207.696 160.651C207.696 151.625 210.941 142.83 216.736 135.887L219.286 138.201C213.954 144.45 210.941 152.551 210.941 160.883C210.941 173.381 217.663 184.953 228.558 191.202L229.485 191.665V228.465L234.121 237.028H257.534L262.865 228.465V191.434L263.792 190.971C274.687 184.722 281.409 173.149 281.409 160.651C281.409 141.21 265.647 125.472 246.175 125.472C241.539 125.472 237.135 126.397 232.962 128.018L231.572 124.777C236.208 122.926 241.075 122 246.175 122C267.501 122 284.886 139.358 284.886 160.651C284.886 174.075 277.932 186.573 266.342 193.517V229.391L259.62 240.5Z" fill="#045384"/>
</g>
<g id="XMLID 38">
<path id="XMLID 39" d="M223.227 134.267L220.677 131.721C222.995 129.406 224.154 128.712 226.472 127.323L227.167 127.092L228.79 130.101L228.094 130.563C226.008 131.952 225.081 132.415 223.227 134.267Z" fill="#045384"/>
</g>
<g id="XMLID 36">
<path id="XMLID 37" d="M270.515 202.08H222.531V205.552H270.515V202.08Z" fill="#045384"/>
</g>
<g id="XMLID 34">
<path id="XMLID 35" d="M270.515 210.412H222.531V213.884H270.515V210.412Z" fill="#045384"/>
</g>
<g id="XMLID 32">
<path id="XMLID 33" d="M270.515 218.744H222.531V222.216H270.515V218.744Z" fill="#045384"/>
</g>
<g id="XMLID 30">
<path id="XMLID 31" d="M270.515 227.076H222.531V230.548H270.515V227.076Z" fill="#045384"/>
</g>
<g id="XMLID 28">
<path id="XMLID 29" d="M246.175 185.416C260.514 185.416 272.137 173.81 272.137 159.494C272.137 145.178 260.514 133.572 246.175 133.572C231.837 133.572 220.213 145.178 220.213 159.494C220.213 173.81 231.837 185.416 246.175 185.416Z" fill="#BFE6FF"/>
</g>
<g id="XMLID 26">
<path id="XMLID 27" d="M254.288 153.708C254.288 149.311 250.811 145.839 246.407 145.839C242.003 145.839 238.526 149.311 238.526 153.708C238.526 155.791 239.453 157.874 240.844 159.263L238.526 172.918H253.593L251.275 159.726C253.129 158.337 254.288 156.254 254.288 153.708Z" fill="#0099F9"/>
</g>
<g id="XMLID 22">
<path id="XMLID 23" d="M255.911 174.77H236.671L239.221 159.957C237.83 158.337 237.135 156.254 237.135 153.939C237.135 148.616 241.307 144.45 246.639 144.45C251.97 144.45 256.143 148.616 256.143 153.939C256.143 156.254 255.216 158.568 253.593 160.42L255.911 174.77ZM240.612 171.298H251.507L249.42 159.031L250.116 158.337C251.507 157.18 252.202 155.56 252.202 153.708C252.202 150.468 249.42 147.69 246.175 147.69C242.93 147.69 240.148 150.468 240.148 153.708C240.148 155.328 240.844 156.717 242.003 157.874L242.698 158.568L240.612 171.298Z" fill="#045384"/>
</g>
</g>
<g id="XMLID 14">
<g id="XMLID 19">
<path id="XMLID 20" d="M435.327 355.528H55.6328V359H435.327V355.528Z" fill="#045384"/>
</g>
<g id="XMLID 17">
<path id="XMLID 18" d="M51.2286 355.528H44.9699V359H51.2286V355.528Z" fill="#045384"/>
</g>
<g id="XMLID 15">
<path id="XMLID 16" d="M452.944 355.528H439.036V359H452.944V355.528Z" fill="#045384"/>
</g>
</g>
<g id="XMLID 2">
<g id="XMLID 13">
<path id="Vector_13" d="M408.438 357.148H416.319C417.014 357.148 417.478 356.686 417.478 355.991V243.74C417.478 243.509 417.478 243.509 417.478 243.277L413.537 234.714C413.074 233.788 411.915 233.788 411.683 234.714L407.742 243.277C407.742 243.509 407.742 243.509 407.742 243.74V356.223C407.279 356.686 407.974 357.148 408.438 357.148Z" fill="white"/>
</g>
<g id="XMLID 12">
<path id="Vector_14" d="M417.246 247.212H407.279V346.502H417.246V247.212Z" fill="#0099F9"/>
</g>
<g id="XMLID 11">
<path id="Vector_15" d="M412.378 247.212H407.279V346.502H412.378V247.212Z" fill="#5CBFFD"/>
</g>
<g id="XMLID 7">
<path id="XMLID 8" d="M419.101 359H405.656V243.046L410.292 233.094C410.756 232.168 411.451 231.705 412.378 231.705C413.305 231.705 414.233 232.168 414.465 233.094L419.101 243.046V359ZM409.133 355.528H415.624V243.74L412.378 236.797L409.133 243.74V355.528Z" fill="#045384"/>
</g>
<g id="XMLID 5">
<path id="XMLID 6" d="M417.478 245.592H407.279V249.063H417.478V245.592Z" fill="#045384"/>
</g>
<g id="XMLID 3">
<path id="XMLID 4" d="M417.942 344.65H406.583V348.122H417.942V344.65Z" fill="#045384"/>
</g>
</g>
</g>
</g>
</svg>
