<svg width="40" height="40" viewBox="0 0 40 40" fill="none" xmlns="http://www.w3.org/2000/svg">
<g id="logo">
<path id="Vector" d="M27.4 0L15 6.5L26.6 1.93333C26.6 7.73333 26.6 26.0667 26.6 30.0667C26.6 34.8667 24.4667 38.4667 17.0667 38.4667C17.0667 38.4667 11.1333 38.4667 7.4 38.4667C3.26667 38.4 0.666667 36.4667 0 30.8C0 36.2 1.73333 40 7.4 40C13.0667 40 26.2667 40 30.8 40C35.3333 40 40 37.4667 40 31.6C40 25.8 40 7.73333 40 7.73333L27.4 0Z" fill="white"/>
<path id="Vector_2" d="M10.1333 10.9333L15 10.3333V1.33331L11.0667 0L0 3.83331L10.1333 1.66667V10.9333Z" transform="translate(0 17.6667)" fill="white"/>
</g>
</svg>
