<svg width="480" height="285" viewBox="0 0 480 285" fill="none" xmlns="http://www.w3.org/2000/svg">
<g id="rocket-illustration">
<path id="Vector" fill-rule="evenodd" clip-rule="evenodd" d="M259.994 17.5092C364.219 17.5092 448.755 102.511 448.755 207.311C448.755 224.281 446.551 240.792 442.369 256.462H77.618C73.4368 240.792 71.2322 224.357 71.2322 207.311C71.2322 102.435 155.692 17.5092 259.994 17.5092Z" fill="#CCEBFF"/>
<path id="Vector_2" fill-rule="evenodd" clip-rule="evenodd" d="M134.254 165.345C134.482 165.88 134.558 166.415 134.558 166.951L125.892 268.617C125.74 270.757 124.143 272.439 122.015 272.439L95.331 272.209H95.255L87.6528 272.133H83.5477H83.4716C81.4191 272.056 79.8986 270.298 79.7466 268.234L71.9924 166.568V166.492V166.415V166.339V166.263V166.186V166.11C71.9924 165.957 71.9924 165.88 72.0684 165.728H71.5363H71.4602H71.3842H71.3082H71.2322H71.1562C71.0801 165.728 71.0041 165.728 70.9281 165.728H70.8521H70.7H70.624H70.548H70.472L70.3199 165.651H70.2439H70.1679H70.0919H70.0158H69.9398H69.8638H69.7878L69.6357 165.575L69.5597 165.498C69.4837 165.422 69.4837 165.422 69.4077 165.345L69.3316 165.269L69.2556 165.192L69.1796 165.116L69.1036 165.04L69.0276 164.963L68.9515 164.887L68.8755 164.734L68.7995 164.581V164.504V164.428V164.352L68.7235 164.199V164.122V164.046V163.969V163.893V163.816V163.74V163.664V163.587V163.511V163.434V163.358V163.281V163.205V163.129V163.052V162.976V162.899V159.689V159.536V159.383V159.23V159.077V158.924V158.771V158.619C68.7235 158.542 68.7235 158.389 68.7995 158.313V158.16L68.8755 158.007L68.9515 157.854L69.0276 157.548L69.1036 157.395L69.1796 157.243L69.2556 157.09L69.3316 156.937L69.4077 156.784L69.4837 156.631L69.5597 156.478L69.6357 156.325L69.7117 156.172L69.7878 156.02L69.8638 155.867L69.9398 155.714L70.0158 155.561L70.0919 155.408L70.1679 155.332L70.2439 155.255L70.3199 155.179L70.3959 155.102L70.472 155.026L70.548 154.949L70.624 154.873L70.7 154.796L70.8521 154.72L71.0041 154.644L71.1562 154.567L71.3082 154.491L71.4602 154.414L71.6123 154.338L71.7643 154.261L71.9164 154.185L72.0684 154.109L72.2205 154.032L72.3725 153.956L72.5245 153.879L72.6766 153.803L72.8286 153.726L72.9807 153.65L73.1327 153.573L73.2848 153.497L73.4368 153.421H73.5888H73.7409H73.8929H74.045H74.197H74.3491H74.5011H74.6531H74.8052H74.9572L92.8223 153.344L107.266 153.268H107.342L131.137 153.115C134.558 153.115 137.295 155.867 137.295 159.23V162.441C137.067 163.969 135.774 165.269 134.254 165.345Z" fill="#D9AE96"/>
<path id="Vector_3" fill-rule="evenodd" clip-rule="evenodd" d="M260.146 1.30383C263.491 1.30383 266.836 1.38027 270.105 1.53315C163.446 6.73111 78.5303 95.4022 78.5303 203.948C78.5303 222.064 80.8869 239.646 85.3722 256.386H65.4545C61.0453 239.646 58.6126 222.064 58.6126 203.948C58.6126 92.0388 148.85 1.30383 260.146 1.30383Z" fill="#CCEBFF"/>
<path id="Vector_4" fill-rule="evenodd" clip-rule="evenodd" d="M46.4492 102.358C43.4843 103.505 41.9639 106.868 43.1042 109.849L56.484 145.241C57.6243 148.223 60.9693 149.751 63.9341 148.605C66.899 147.458 68.4194 144.095 67.2791 141.114L53.8993 105.722C52.759 102.74 49.414 101.212 46.4492 102.358Z" fill="#FBE0D2"/>
<path id="Vector_5" fill-rule="evenodd" clip-rule="evenodd" d="M48.1216 101.67C45.1568 102.817 43.6363 106.18 44.7767 109.161L58.1565 144.553C59.2968 147.535 62.6417 149.063 65.6066 147.917C68.5714 146.77 70.0918 143.407 68.9515 140.426L55.5717 105.034C54.4314 102.052 51.0865 100.524 48.1216 101.67Z" fill="#E5BAA1"/>
<path id="Vector_6" fill-rule="evenodd" clip-rule="evenodd" d="M64.2382 148.223C64.6943 148.146 65.1505 148.07 65.6066 147.917C68.5714 146.77 70.0919 143.407 68.9515 140.426L57.0162 108.703C56.56 108.779 56.1039 108.856 55.6478 109.009C52.6829 110.155 51.1625 113.519 52.3028 116.5L64.2382 148.223Z" fill="#D5A58A"/>
<path id="Vector_7" fill-rule="evenodd" clip-rule="evenodd" d="M71.0041 146.082L105.366 146.312C107.494 146.312 109.319 148.07 109.167 150.21L100.5 251.876C100.348 254.016 98.752 255.698 96.6234 255.698L62.2616 255.469C64.3142 255.392 65.9107 253.711 66.0627 251.647L74.7292 149.981C74.8812 147.917 73.0567 146.159 71.0041 146.082Z" fill="#C99D83"/>
<path id="Vector_8" fill-rule="evenodd" clip-rule="evenodd" d="M50.5543 145.929L78.6063 146.159H78.6823C80.7349 146.235 82.5594 147.993 82.4073 150.057L73.7409 251.8C73.5888 253.863 71.9924 255.622 69.9398 255.622H69.8638L58.1565 255.545H58.0805C56.0279 255.469 54.5074 253.711 54.3554 251.647L46.6012 149.828C46.4492 147.764 48.3497 146.006 50.4023 146.006L50.5543 145.929Z" fill="#E5BAA1"/>
<path id="Vector_9" fill-rule="evenodd" clip-rule="evenodd" d="M52.911 146.006L80.1267 146.159H80.2027C82.4073 146.235 84.2318 147.993 84.0798 150.057L83.7757 153.573L46.9053 153.803L46.6012 149.828C46.4491 147.84 48.1976 146.235 50.1742 146.006H52.911Z" fill="#C99D83"/>
<path id="Vector_10" fill-rule="evenodd" clip-rule="evenodd" d="M78.0741 171.231C89.5534 171.155 98.828 180.48 98.828 192.023C98.828 203.566 89.5534 212.968 78.0741 213.044C66.5949 213.121 57.3202 203.795 57.3202 192.252C57.3202 180.71 66.5949 171.308 78.0741 171.231Z" fill="#EFC9B4"/>
<path id="Vector_11" fill-rule="evenodd" clip-rule="evenodd" d="M49.338 136.604L105.518 136.298C108.939 136.298 111.676 139.05 111.676 142.413V145.624C111.676 147.229 110.383 148.605 108.711 148.605L46.0691 148.911C44.4726 148.911 43.1042 147.611 43.1042 146.006V142.795C43.2563 139.432 45.993 136.604 49.338 136.604Z" fill="#D5A58A"/>
<path id="Vector_12" fill-rule="evenodd" clip-rule="evenodd" d="M49.338 136.604L81.6471 136.451C85.0681 136.451 87.8049 139.203 87.8049 142.566V145.777C87.8049 147.382 86.5125 148.758 84.84 148.758L46.0691 148.987C44.4726 148.987 43.1042 147.688 43.1042 146.082V142.872C43.2563 139.432 45.993 136.604 49.338 136.604Z" fill="#E5BAA1"/>
<path id="Vector_13" fill-rule="evenodd" clip-rule="evenodd" d="M78.0741 179.181C85.1441 179.181 90.9217 184.914 90.9217 192.023C90.9217 199.132 85.1441 204.942 78.0741 205.018C71.0041 205.018 65.2265 199.285 65.2265 192.176C65.2265 185.067 71.0041 179.258 78.0741 179.181Z" fill="#FBE0D2"/>
<path id="Vector_14" fill-rule="evenodd" clip-rule="evenodd" d="M63.0979 139.967H81.5711C83.0155 139.967 84.1558 141.114 84.1558 142.566C84.1558 144.018 83.0155 145.165 81.5711 145.165H63.0979C61.6535 145.165 60.5132 144.018 60.5132 142.566C60.5132 141.114 61.7295 139.967 63.0979 139.967Z" fill="#F1C8B1"/>
<path id="Vector_15" fill-rule="evenodd" clip-rule="evenodd" d="M50.7824 139.967H53.8232C55.2677 139.967 56.408 141.114 56.408 142.566C56.408 144.018 55.2677 145.165 53.8232 145.165H50.7824C49.338 145.165 48.1976 144.018 48.1976 142.566C48.2737 141.114 49.414 139.967 50.7824 139.967Z" fill="#F1C8B1"/>
<path id="Vector_16" fill-rule="evenodd" clip-rule="evenodd" d="M78.7583 143.865H80.2787C80.9629 143.865 81.5711 144.477 81.5711 145.165C81.5711 145.853 80.9629 146.464 80.2787 146.464H78.7583C78.0741 146.464 77.4659 145.853 77.4659 145.165C77.4659 144.401 78.0741 143.865 78.7583 143.865Z" fill="#FBE0D2"/>
<path id="Vector_17" fill-rule="evenodd" clip-rule="evenodd" d="M74.045 137.674H76.9338C78.3022 137.674 79.3665 138.82 79.3665 140.12C79.3665 141.496 78.2262 142.566 76.9338 142.566H74.045C72.6766 142.566 71.6123 141.419 71.6123 140.12C71.5363 138.744 72.6766 137.674 74.045 137.674Z" fill="#FBE0D2"/>
<path id="Vector_18" fill-rule="evenodd" clip-rule="evenodd" d="M369.693 230.014H374.938C377.903 230.014 380.336 232.46 380.336 235.441V239.722C380.336 242.703 377.903 245.149 374.938 245.149H369.693C366.728 245.149 364.295 242.703 364.295 239.722V235.441C364.295 232.46 366.728 230.014 369.693 230.014Z" fill="#3C3C4C"/>
<path id="Vector_19" fill-rule="evenodd" clip-rule="evenodd" d="M182.224 230.014H187.469C190.434 230.014 192.867 232.46 192.867 235.441V239.722C192.867 242.703 190.434 245.149 187.469 245.149H182.224C179.259 245.149 176.826 242.703 176.826 239.722V235.441C176.75 232.46 179.259 230.014 182.224 230.014Z" fill="#3C3C4C"/>
<path id="Vector_20" fill-rule="evenodd" clip-rule="evenodd" d="M159.569 234.524H410.668C415.914 234.524 420.627 230.243 421.235 224.969L440.773 47.2446C441.533 40.2121 436.44 34.4791 429.522 34.4791H184.732C177.738 34.4791 171.429 40.2121 170.668 47.2446L151.131 224.969C150.523 230.243 154.324 234.524 159.569 234.524Z" fill="#3C3C4C"/>
<path id="Vector_21" fill-rule="evenodd" clip-rule="evenodd" d="M153.107 234.524H404.206C409.452 234.524 414.165 230.243 414.773 224.969L434.311 47.2446C435.071 40.2121 429.978 34.4791 422.984 34.4791H178.194C171.2 34.4791 164.891 40.2121 164.13 47.2446L144.593 224.969C144.061 230.243 147.862 234.524 153.107 234.524Z" fill="#5B5C70"/>
<path id="Vector_22" fill-rule="evenodd" clip-rule="evenodd" d="M153.107 226.498H404.206C405.423 226.498 406.715 225.275 406.867 224.052L426.405 46.3273C426.633 44.1105 425.264 42.4288 423.06 42.4288H178.194C175.23 42.4288 172.341 45.1043 172.037 48.0854L152.499 225.81C152.499 226.345 152.575 226.498 153.107 226.498Z" fill="#0099F9"/>
<path id="Vector_23" fill-rule="evenodd" clip-rule="evenodd" d="M174.241 156.631H203.358H213.773H242.889C244.029 156.631 244.789 157.548 244.561 158.695C244.333 159.841 243.193 160.759 242.129 160.759H213.012H202.597H173.481C172.341 160.759 171.581 159.841 171.809 158.695C171.961 157.548 173.101 156.631 174.241 156.631ZM171.2 175.053H200.317H210.732H239.848C240.988 175.053 241.748 175.97 241.52 177.117C241.292 178.264 240.152 179.181 239.088 179.181H209.971H199.557H170.44C169.3 179.181 168.54 178.264 168.768 177.117C168.92 175.97 170.06 175.053 171.2 175.053ZM172.721 165.804H201.837H212.252H241.368C242.509 165.804 243.269 166.721 243.041 167.868C242.813 169.014 241.672 169.932 240.608 169.932H211.492H201.077H171.961C170.82 169.932 170.06 169.014 170.288 167.868C170.44 166.798 171.581 165.804 172.721 165.804Z" fill="#014874"/>
<path id="Vector_24" fill-rule="evenodd" clip-rule="evenodd" d="M421.235 92.8797L425.645 52.8248H171.505L167.171 92.8797H421.235Z" fill="#71C8FF"/>
<path id="Vector_25" fill-rule="evenodd" clip-rule="evenodd" d="M178.118 230.014H183.364C186.329 230.014 188.761 232.46 188.761 235.441V239.722C188.761 242.703 186.329 245.149 183.364 245.149H178.118C175.154 245.149 172.721 242.703 172.721 239.722V235.441C172.721 232.46 175.154 230.014 178.118 230.014Z" fill="#4B4C5E"/>
<path id="Vector_26" fill-rule="evenodd" clip-rule="evenodd" d="M365.664 230.014H370.909C373.874 230.014 376.307 232.46 376.307 235.441V239.722C376.307 242.703 373.874 245.149 370.909 245.149H365.664C362.699 245.149 360.266 242.703 360.266 239.722V235.441C360.19 232.46 362.699 230.014 365.664 230.014Z" fill="#4B4C5E"/>
<path id="Vector_27" fill-rule="evenodd" clip-rule="evenodd" d="M37.3266 237.658H391.739C393.487 237.658 394.932 239.11 394.932 240.869C394.932 242.627 393.487 244.079 391.739 244.079H37.3266C35.5781 244.079 34.1337 242.627 34.1337 240.869C34.1337 239.11 35.5781 237.658 37.3266 237.658Z" fill="#676875"/>
<path id="Vector_28" fill-rule="evenodd" clip-rule="evenodd" d="M18.8533 240.869H291.619C295.876 240.869 299.373 244.385 299.373 248.666C299.373 252.946 295.876 256.462 291.619 256.462H18.8533C14.5961 256.462 11.0992 252.946 11.0992 248.666C11.1752 244.385 14.5961 240.869 18.8533 240.869Z" fill="#4B4C5E"/>
<path id="Vector_29" fill-rule="evenodd" clip-rule="evenodd" d="M73.1327 240.869H155.16C155.16 245.149 151.663 248.666 147.406 248.666H80.8869C76.6297 248.666 73.1327 245.149 73.1327 240.869Z" fill="#3C3C4C"/>
<path id="Vector_30" fill-rule="evenodd" clip-rule="evenodd" d="M234.146 240.869H411.277C415.534 240.869 419.031 244.385 419.031 248.666C419.031 252.946 415.534 256.462 411.277 256.462H234.146C229.889 256.462 226.392 252.946 226.392 248.666C226.392 244.385 229.889 240.869 234.146 240.869Z" fill="#3C3C4C"/>
<path id="Vector_31" fill-rule="evenodd" clip-rule="evenodd" d="M346.202 245.149H360.038C361.863 245.149 363.307 246.602 363.307 248.436C363.307 250.271 361.863 251.723 360.038 251.723H346.202C344.378 251.723 342.933 250.271 342.933 248.436C342.933 246.602 344.378 245.149 346.202 245.149Z" fill="#2E2E3B"/>
<path id="Vector_32" fill-rule="evenodd" clip-rule="evenodd" d="M350.003 246.219H359.354C360.57 246.219 361.558 247.213 361.558 248.436C361.558 249.659 360.57 250.653 359.354 250.653H350.003C348.787 250.653 347.799 249.659 347.799 248.436C347.799 247.213 348.787 246.219 350.003 246.219Z" fill="#4B4C5E"/>
<path id="Vector_33" fill-rule="evenodd" clip-rule="evenodd" d="M351.828 246.219H361.178C362.395 246.219 363.383 247.213 363.383 248.436C363.383 249.659 362.395 250.653 361.178 250.653H351.828C350.611 250.653 349.623 249.659 349.623 248.436C349.623 247.213 350.611 246.219 351.828 246.219Z" fill="#B2B3B8"/>
<path id="Vector_34" fill-rule="evenodd" clip-rule="evenodd" d="M241.216 245.149H326.284C328.109 245.149 329.553 246.602 329.553 248.436C329.553 250.271 328.109 251.723 326.284 251.723H241.216C239.392 251.723 237.947 250.271 237.947 248.436C237.947 246.602 239.468 245.149 241.216 245.149Z" fill="#2E2E3B"/>
<path id="Vector_35" fill-rule="evenodd" clip-rule="evenodd" d="M243.725 245.149H328.793C330.618 245.149 332.062 246.602 332.062 248.436C332.062 250.271 330.618 251.723 328.793 251.723H243.725C241.901 251.723 240.456 250.271 240.456 248.436C240.456 246.602 241.901 245.149 243.725 245.149Z" fill="#4B4C5E"/>
<path id="Vector_36" fill-rule="evenodd" clip-rule="evenodd" d="M380.032 245.149H380.944C382.768 245.149 384.213 246.602 384.213 248.436C384.213 250.271 382.768 251.723 380.944 251.723H380.032C378.207 251.723 376.763 250.271 376.763 248.436C376.763 246.602 378.207 245.149 380.032 245.149Z" fill="#2E2E3B"/>
<path id="Vector_37" fill-rule="evenodd" clip-rule="evenodd" d="M381.78 245.149H382.692C384.517 245.149 385.961 246.602 385.961 248.436C385.961 250.271 384.517 251.723 382.692 251.723H381.78C379.956 251.723 378.511 250.271 378.511 248.436C378.435 246.602 379.956 245.149 381.78 245.149Z" fill="#4B4C5E"/>
<path id="Vector_38" fill-rule="evenodd" clip-rule="evenodd" d="M382.008 246.831H382.464C383.377 246.831 384.137 247.595 384.137 248.513C384.137 249.43 383.377 250.194 382.464 250.194H382.008C381.096 250.194 380.336 249.43 380.336 248.513C380.336 247.519 381.096 246.831 382.008 246.831Z" fill="#2E2E3B"/>
<path id="Vector_39" fill-rule="evenodd" clip-rule="evenodd" d="M392.727 245.149H393.64C395.464 245.149 396.908 246.602 396.908 248.436C396.908 250.271 395.464 251.723 393.64 251.723H392.727C390.903 251.723 389.458 250.271 389.458 248.436C389.458 246.602 390.903 245.149 392.727 245.149Z" fill="#2E2E3B"/>
<path id="Vector_40" fill-rule="evenodd" clip-rule="evenodd" d="M394.476 245.149H395.388C397.213 245.149 398.657 246.602 398.657 248.436C398.657 250.271 397.213 251.723 395.388 251.723H394.476C392.651 251.723 391.207 250.271 391.207 248.436C391.131 246.602 392.651 245.149 394.476 245.149Z" fill="#4B4C5E"/>
<path id="Vector_41" fill-rule="evenodd" clip-rule="evenodd" d="M149.002 190.036C129.389 190.036 113.576 206.012 113.576 225.657C113.576 229.861 114.26 233.836 115.629 237.582H182.452C183.744 233.836 184.504 229.861 184.504 225.657C184.504 206.012 168.616 190.036 149.002 190.036Z" fill="#F4E7EC"/>
<path id="Vector_42" fill-rule="evenodd" clip-rule="evenodd" d="M175.154 201.578C171.124 197.145 166.031 193.781 160.253 191.87C158.049 191.259 155.692 190.876 153.183 190.647C140.336 189.653 129.921 195.004 129.921 202.572C129.921 210.216 140.336 217.172 153.183 218.166C166.031 219.159 176.446 213.809 176.446 206.241C176.446 204.636 175.99 203.107 175.154 201.578Z" fill="#FEFFFF"/>
<path id="Vector_43" fill-rule="evenodd" clip-rule="evenodd" d="M174.774 201.655C159.949 201.655 148.014 213.732 148.014 228.562C148.014 231.696 148.546 234.753 149.534 237.582H200.013C201.001 234.753 201.533 231.696 201.533 228.562C201.609 213.732 189.598 201.655 174.774 201.655Z" fill="#F4E7EC"/>
<path id="Vector_44" fill-rule="evenodd" clip-rule="evenodd" d="M194.539 210.369C191.498 207.005 187.621 204.483 183.288 203.031C181.615 202.572 179.791 202.266 177.966 202.113C168.236 201.349 160.405 205.4 160.405 211.133C160.405 216.866 168.312 222.141 177.966 222.905C187.697 223.67 195.527 219.618 195.527 213.885C195.527 212.738 195.147 211.515 194.539 210.369Z" fill="#FEFFFF"/>
<path id="Vector_45" fill-rule="evenodd" clip-rule="evenodd" d="M195.451 209.681C183.972 209.681 174.621 219.083 174.621 230.626C174.621 233.072 175.078 235.441 175.838 237.658H215.065C215.825 235.441 216.281 233.072 216.281 230.626C216.281 219.007 206.931 209.681 195.451 209.681Z" fill="#FEF5FA"/>
<path id="Vector_46" fill-rule="evenodd" clip-rule="evenodd" d="M210.808 216.484C208.451 213.885 205.41 211.898 202.065 210.751C200.773 210.369 199.328 210.14 197.884 210.063C190.358 209.452 184.2 212.586 184.2 217.096C184.2 221.529 190.358 225.657 197.884 226.269C205.41 226.88 211.568 223.746 211.568 219.236C211.568 218.242 211.34 217.325 210.808 216.484Z" fill="#FEFFFF"/>
<path id="Vector_47" fill-rule="evenodd" clip-rule="evenodd" d="M210.96 237.658C207.159 227.95 205.106 217.631 205.106 207.005C205.106 177.576 220.615 150.898 245.626 131.711C232.018 148.146 224.111 167.715 224.111 188.736C224.111 206.394 229.661 223.058 239.544 237.658H210.96Z" fill="#FEF5FA"/>
<path id="Vector_48" fill-rule="evenodd" clip-rule="evenodd" d="M231.029 222.829C237.111 222.829 242.053 227.797 242.053 233.913C242.053 235.212 241.825 236.435 241.444 237.658H220.615C220.234 236.512 220.006 235.212 220.006 233.913C219.93 227.797 224.948 222.829 231.029 222.829Z" fill="#FEFFFF"/>
<path id="Vector_49" fill-rule="evenodd" clip-rule="evenodd" d="M245.55 131.788C232.018 148.222 224.188 167.791 224.188 188.736C224.188 202.342 227.456 215.261 233.462 227.186H222.895C219.094 217.478 217.041 207.158 217.041 196.533C217.118 172.148 227.761 149.675 245.55 131.788Z" fill="#FEFFFF"/>
<path id="Vector_50" fill-rule="evenodd" clip-rule="evenodd" d="M404.054 108.244C404.13 107.556 403.674 107.021 402.99 107.021H326.589C325.676 107.021 324.764 107.862 324.688 108.779C322.255 130.718 319.899 152.733 317.466 174.671C317.39 175.359 317.846 175.894 318.53 175.894H394.932C395.844 175.894 396.756 175.053 396.832 174.136C399.265 152.121 401.622 130.183 404.054 108.244Z" fill="#71C8FF"/>
<path id="Vector_51" fill-rule="evenodd" clip-rule="evenodd" d="M409.376 152.656C409.452 151.968 408.996 151.433 408.312 151.433H331.834C330.922 151.433 330.009 152.274 329.933 153.191C327.501 175.13 325.144 197.145 322.711 219.083C322.635 219.771 323.092 220.306 323.776 220.306H400.177C401.09 220.306 402.002 219.465 402.078 218.548C404.511 196.533 406.943 174.595 409.376 152.656Z" fill="#014874"/>
<path id="Vector_52" fill-rule="evenodd" clip-rule="evenodd" d="M404.359 156.784C404.435 156.249 404.054 155.79 403.522 155.79H335.331C334.571 155.79 333.887 156.478 333.811 157.166C331.834 174.9 329.933 192.558 327.957 210.292C327.881 210.827 328.261 211.286 328.793 211.286H396.984C397.745 211.286 398.429 210.598 398.505 209.91C400.481 192.176 402.458 174.518 404.359 156.784Z" fill="#0099F9"/>
<path id="Vector_53" fill-rule="evenodd" clip-rule="evenodd" d="M188.609 68.4951H213.012C214.153 68.4951 214.913 69.4124 214.685 70.559C214.457 71.7056 213.316 72.6229 212.176 72.6229H187.773C186.633 72.6229 185.873 71.7056 186.101 70.559C186.405 69.4124 187.469 68.4951 188.609 68.4951Z" fill="#FDFAFF"/>
<path id="Vector_54" fill-rule="evenodd" clip-rule="evenodd" d="M187.089 76.5213H226.62C227.761 76.5213 228.521 77.4386 228.293 78.5852C228.065 79.7318 226.924 80.6491 225.86 80.6491H186.329C185.188 80.6491 184.428 79.7318 184.656 78.5852C184.808 77.4386 185.949 76.5213 187.089 76.5213Z" fill="#FDFAFF"/>
<path id="Vector_55" fill-rule="evenodd" clip-rule="evenodd" d="M233.386 76.5213H237.719C238.86 76.5213 239.62 77.4386 239.392 78.5852C239.164 79.7318 238.023 80.6491 236.959 80.6491H232.626C231.486 80.6491 230.725 79.7318 230.953 78.5852C231.181 77.4386 232.246 76.5213 233.386 76.5213Z" fill="#FDFAFF"/>
<path id="Vector_56" fill-rule="evenodd" clip-rule="evenodd" d="M394.704 246.831H395.16C396.072 246.831 396.832 247.595 396.832 248.513C396.832 249.43 396.072 250.194 395.16 250.194H394.704C393.792 250.194 393.031 249.43 393.031 248.513C393.031 247.519 393.792 246.831 394.704 246.831Z" fill="#2E2E3B"/>
<path id="Vector_57" fill-rule="evenodd" clip-rule="evenodd" d="M200.241 100.982C212.86 100.982 221.907 111.225 220.462 123.914C219.018 136.604 207.691 146.847 195.071 146.847C182.452 146.847 173.405 136.604 174.85 123.914C176.218 111.225 187.621 100.982 200.241 100.982Z" fill="#FEFFFF"/>
<path id="Vector_58" fill-rule="evenodd" clip-rule="evenodd" d="M206.322 139.432C203.054 141.725 199.328 143.025 195.375 143.025C191.498 143.025 188.001 141.725 185.264 139.432L185.721 135.61C186.405 129.189 191.726 123.991 197.58 123.991C203.358 123.991 207.539 129.189 206.779 135.61L206.322 139.432Z" fill="#71C8FF"/>
<path id="Vector_59" fill-rule="evenodd" clip-rule="evenodd" d="M198.188 110.308H199.557C202.293 110.308 204.27 112.601 203.966 115.353L203.358 120.628C203.054 123.379 200.545 125.673 197.808 125.673H196.44C193.703 125.673 191.726 123.379 192.03 120.628L192.639 115.353C192.943 112.525 195.451 110.308 198.188 110.308Z" fill="#71C8FF"/>
<path id="Vector_60" fill-rule="evenodd" clip-rule="evenodd" d="M232.094 104.116H256.497C257.637 104.116 258.397 105.034 258.245 106.18C258.093 107.327 256.953 108.244 255.812 108.244H231.41C230.269 108.244 229.509 107.327 229.661 106.18C229.813 105.034 230.953 104.116 232.094 104.116Z" fill="#014874"/>
<path id="Vector_61" fill-rule="evenodd" clip-rule="evenodd" d="M231.105 112.448H255.508C256.649 112.448 257.409 113.366 257.257 114.512C257.029 115.659 255.965 116.576 254.824 116.576H230.421C229.281 116.576 228.521 115.659 228.673 114.512C228.901 113.366 229.965 112.448 231.105 112.448Z" fill="#014874"/>
<path id="Vector_62" fill-rule="evenodd" clip-rule="evenodd" d="M10.643 256.386H470.877C475.895 256.386 480 260.514 480 265.559C480 270.604 475.895 274.732 470.877 274.732H10.643C5.62559 274.732 1.52043 270.604 1.52043 265.559C1.52043 260.514 5.62559 256.386 10.643 256.386Z" fill="#001A29"/>
<path id="Vector_63" fill-rule="evenodd" clip-rule="evenodd" d="M10.643 256.386H326.056C331.074 256.386 335.179 260.514 335.179 265.559C335.179 270.604 331.074 274.732 326.056 274.732H10.643C5.62559 274.732 1.52043 270.604 1.52043 265.559C1.52043 260.514 5.62559 256.386 10.643 256.386Z" fill="#0D3D60"/>
<path id="Vector_64" fill-rule="evenodd" clip-rule="evenodd" d="M181.767 256.386H255.66C260.678 256.386 264.783 260.514 264.783 265.559C264.783 270.604 260.678 274.732 255.66 274.732H181.767C176.75 274.732 172.645 270.604 172.645 265.559C172.721 260.514 176.75 256.386 181.767 256.386Z" fill="#4B86A7"/>
<path id="Vector_65" fill-rule="evenodd" clip-rule="evenodd" d="M105.138 256.386H133.19C138.207 256.386 142.312 260.514 142.312 265.559C142.312 270.604 138.207 274.732 133.19 274.732H105.138C100.12 274.732 96.0152 270.604 96.0152 265.559C96.0152 260.514 100.12 256.386 105.138 256.386Z" fill="#5C8094"/>
<path id="Vector_66" fill-rule="evenodd" clip-rule="evenodd" d="M286.449 114.742C287.133 111.913 288.046 109.085 289.186 106.41L288.73 105.951C288.654 105.874 288.578 105.722 288.426 105.645C288.122 105.874 287.742 105.951 287.361 105.951H273.525C272.993 105.951 272.537 105.722 272.157 105.339L265.239 98.3833C265.087 98.2304 264.935 98.0011 264.859 97.8482C262.882 99.3006 261.514 100.065 261.134 99.6828C260.298 98.8419 265.239 92.5738 272.157 85.6177C279.075 78.6616 285.309 73.693 286.145 74.5339C286.525 74.9161 285.537 76.7506 283.484 79.3496H295.952C296.484 79.3496 296.94 79.5789 297.32 79.9611L297.472 80.114C300.741 74.7632 304.618 69.7945 309.104 65.361C318.986 55.4237 330.998 48.4676 344.073 44.7985L344.454 44.722C344.986 44.5691 345.518 44.4163 346.05 44.3398H346.126L346.886 44.1869L347.266 44.1105L348.027 43.9576H348.103L348.483 43.8812L348.863 43.8047L349.243 43.7283C349.775 43.6519 350.383 43.499 350.915 43.4225L351.296 43.3461L351.676 43.2697L352.132 43.1932L352.588 43.1168L353.044 43.0403L353.5 42.9639L353.88 42.8875L354.336 42.811L354.793 42.7346L355.173 42.6581L355.629 42.5817L356.009 42.5052H356.161H356.237C363.611 42.5052 370.985 42.5052 378.283 42.5052L375.698 45.5629C375.774 46.2508 375.774 47.0152 375.85 47.7032C375.85 48.3912 375.927 49.1556 375.927 49.8435V50.8373V50.9137V51.143V51.9839C375.927 52.6718 375.927 53.3598 375.85 54.0478V54.1242V54.2007V54.9651V55.1944V55.4237L376.307 58.0991V58.1756L376.231 58.94V59.1693V59.3986V59.8573V60.3159L376.155 60.6981L376.079 61.1567V61.2332L376.003 61.6918L375.927 62.3034V62.4562L375.85 62.8384L375.774 63.2971L375.698 63.6793L375.622 64.1379L375.546 64.5966L375.47 64.9788L375.394 65.4374L375.318 65.8961L375.242 66.3547L375.166 66.8134L375.09 67.1956L375.014 67.5778C374.938 68.1128 374.786 68.7244 374.71 69.2594L374.634 69.6417L374.558 70.0239L374.482 70.4061V70.4825L374.33 71.2469L374.254 71.6291L374.102 72.3935V72.47C373.95 73.005 373.798 73.5401 373.722 74.0752L373.646 74.4574C369.997 87.6052 363.079 99.7592 353.196 109.62C348.711 114.13 343.845 118.029 338.524 121.315L338.676 121.468V121.545V125.138V134.157C341.261 132.094 343.085 131.023 343.465 131.482C344.302 132.323 339.36 138.591 332.442 145.547C325.524 152.503 319.29 157.472 318.454 156.631C318.074 156.249 318.834 154.873 320.279 152.885C320.051 152.809 319.899 152.656 319.747 152.503L312.829 145.547C312.449 145.165 312.22 144.706 312.22 144.171V134.31V130.335C312.22 129.953 312.296 129.571 312.525 129.265C312.449 129.189 312.296 129.112 312.22 128.96L311.764 128.501C309.104 129.648 306.367 130.565 303.478 131.253C302.87 131.406 302.262 131.253 301.806 130.794L300.133 129.112C298.004 132.858 295.42 136.298 292.227 139.508C284.169 147.611 274.058 152.274 263.567 153.573C264.859 143.025 269.496 132.858 277.555 124.755C280.672 121.621 284.169 118.946 287.894 116.805L286.221 115.124C286.449 115.965 286.297 115.353 286.449 114.742Z" fill="#014874"/>
<path id="Vector_67" fill-rule="evenodd" clip-rule="evenodd" d="M447.691 123.227L441.153 124.985C440.621 125.138 440.165 125.52 440.013 126.131C439.861 126.666 440.013 127.278 440.393 127.66L445.182 132.476C445.562 132.858 446.17 133.011 446.703 132.858C447.235 132.705 447.691 132.323 447.843 131.711L449.591 125.138C449.743 124.602 449.591 123.991 449.211 123.609C448.831 123.227 448.223 123.074 447.691 123.227Z" fill="#CCEBFF"/>
<path id="Vector_68" fill-rule="evenodd" clip-rule="evenodd" d="M322.407 97.619L276.11 131.941C276.11 131.941 300.969 118.64 322.407 97.619Z" fill="#FEFFFF"/>
<path id="Vector_69" fill-rule="evenodd" clip-rule="evenodd" d="M280.367 96.8546C281.432 87.8346 285.461 79.0439 292.379 72.1643C299.297 65.2082 307.963 61.2333 316.934 60.0867C315.869 69.1067 311.84 77.8973 304.922 84.777C298.004 91.7331 289.338 95.7844 280.367 96.8546Z" fill="#FECF66"/>
<path id="Vector_70" fill-rule="evenodd" clip-rule="evenodd" d="M292.835 84.3183C293.443 79.5026 295.496 74.9161 299.145 71.247C302.794 67.5778 307.431 65.4375 312.144 64.9024C311.536 69.7182 309.484 74.3046 305.835 77.9737C302.186 81.5664 297.548 83.7068 292.835 84.3183Z" fill="#FEFFFF"/>
<path id="Vector_71" fill-rule="evenodd" clip-rule="evenodd" d="M308.799 32.7209L314.729 38.6832C315.413 39.3712 315.413 40.4414 314.729 41.1293L301.425 54.5064C301.121 54.8122 300.665 55.0415 300.209 55.0415H288.35C287.894 55.0415 287.513 54.8886 287.133 54.5064L281.204 48.5441C280.519 47.8561 280.519 46.7859 281.204 46.098L294.507 32.7209C294.812 32.4151 295.268 32.1858 295.724 32.1858H307.583C308.039 32.1858 308.419 32.3387 308.799 32.7209Z" fill="#FE6166"/>
<path id="Vector_72" fill-rule="evenodd" clip-rule="evenodd" d="M344.149 68.2658L338.22 62.3034C337.536 61.6154 336.471 61.6154 335.787 62.3034L322.483 75.6805C322.179 75.9862 321.951 76.4449 321.951 76.9035V88.8283C321.951 89.2869 322.103 89.6691 322.483 90.0513L328.413 96.0137C329.097 96.7016 330.162 96.7016 330.846 96.0137L344.149 82.6366C344.454 82.3308 344.682 81.8722 344.682 81.4135V69.4888C344.682 69.0302 344.454 68.5715 344.149 68.2658Z" fill="#EA464B"/>
<path id="Vector_73" fill-rule="evenodd" clip-rule="evenodd" d="M344.149 68.2658L338.22 62.3034C337.536 61.6154 336.471 61.6154 335.787 62.3034L322.483 75.6805C322.179 75.9862 321.951 76.4449 321.951 76.9035V80.3434C322.939 80.6491 324.08 80.6491 325.144 80.3434C331.986 78.6617 338.6 76.0627 344.606 72.47V69.4124C344.682 69.0302 344.454 68.5715 344.149 68.2658Z" fill="#D34449"/>
<path id="Vector_74" fill-rule="evenodd" clip-rule="evenodd" d="M299.373 62.4562C301.273 54.5064 305.302 47.2446 311.08 41.4351C320.127 32.3387 332.67 27.5993 345.442 28.5166C346.962 28.5931 348.103 29.8161 348.255 31.3449C349.167 44.1869 344.53 56.7996 335.407 65.8961C329.629 71.7055 322.407 75.7569 314.501 77.6679C313.969 77.8208 313.437 77.6679 313.057 77.2857L299.753 63.9086C299.373 63.5264 299.221 62.9913 299.373 62.4562Z" fill="#585973"/>
<path id="Vector_75" fill-rule="evenodd" clip-rule="evenodd" d="M300.741 52.7483C303.706 40.4413 309.94 29.1281 318.91 20.1846C332.974 6.04307 352.36 -1.21878 372.201 0.233587C373.57 0.310027 374.786 0.997992 375.546 1.99172L312.068 65.7431L301.349 54.965C300.741 54.3535 300.513 53.5891 300.741 52.7483Z" fill="#ECEFF1"/>
<path id="Vector_76" fill-rule="evenodd" clip-rule="evenodd" d="M375.166 1.53314C375.926 2.29755 376.459 3.36772 376.535 4.51432C377.903 24.4653 370.757 43.8812 356.693 58.0992C347.799 67.0427 336.547 73.3873 324.308 76.3685C323.472 76.5978 322.711 76.3685 322.103 75.7569L311.688 65.361L375.166 1.53314Z" fill="#A7A39B"/>
<path id="Vector_77" fill-rule="evenodd" clip-rule="evenodd" d="M316.782 60.1631L374.938 1.68604C373.95 18.3501 366.956 34.1733 355.021 46.1744C346.126 55.118 334.875 61.4626 322.635 64.4437C321.799 64.6731 321.039 64.4437 320.431 63.8322L316.782 60.1631Z" fill="#B7B5B1"/>
<path id="Vector_78" fill-rule="evenodd" clip-rule="evenodd" d="M319.595 73.3109L311.688 65.3611L326.132 50.8373L326.893 51.6017C327.197 51.9075 327.425 52.3662 327.425 52.8248V64.7495C327.425 65.2082 327.273 65.5904 326.893 65.9726L319.595 73.3109Z" fill="#A7A39B"/>
<path id="Vector_79" fill-rule="evenodd" clip-rule="evenodd" d="M348.939 2.52687C356.389 0.462971 364.219 -0.377875 372.201 0.157209C374.558 0.31009 376.383 2.14466 376.535 4.51432C377.067 12.4641 376.307 20.3375 374.178 27.9051L348.939 2.52687Z" fill="#FE6166"/>
<path id="Vector_80" fill-rule="evenodd" clip-rule="evenodd" d="M375.166 1.53314C375.927 2.29755 376.459 3.36772 376.535 4.51432C377.067 12.4641 376.307 20.3375 374.178 27.9051L361.558 15.216L375.166 1.53314Z" fill="#EA464B"/>
<path id="Vector_81" d="M352.342 42.4596C357.299 37.4744 357.299 29.3917 352.342 24.4065C347.384 19.4213 339.345 19.4213 334.387 24.4065C329.43 29.3917 329.43 37.4744 334.387 42.4596C339.345 47.4448 347.384 47.4448 352.342 42.4596Z" fill="#B7B5B1"/>
<path id="Vector_82" fill-rule="evenodd" clip-rule="evenodd" d="M304.01 71.4763L305.531 73.0051C306.139 73.6167 307.203 73.6167 307.887 73.0051L326.893 53.9714C327.501 53.3599 327.501 52.2897 326.893 51.6018L325.372 50.073C324.764 49.4614 323.7 49.4614 323.016 50.073L304.086 69.1067C303.402 69.7946 303.402 70.8648 304.01 71.4763Z" fill="#FE6166"/>
<path id="Vector_83" d="M350.487 42.8503C354.405 38.9099 354.405 32.5212 350.487 28.5808C346.568 24.6404 340.214 24.6404 336.295 28.5808C332.376 32.5212 332.376 38.9099 336.295 42.8503C340.214 46.7907 346.568 46.7907 350.487 42.8503Z" fill="#A7A39B"/>
<path id="Vector_84" d="M350.461 40.5679C354.379 36.6275 354.379 30.2388 350.461 26.2984C346.542 22.358 340.188 22.358 336.269 26.2984C332.351 30.2388 332.351 36.6275 336.269 40.5679C340.188 44.5083 346.542 44.5083 350.461 40.5679Z" fill="#FE6166"/>
<path id="Vector_85" d="M346.898 39.5754C350.28 37.6123 351.438 33.2646 349.486 29.8645C347.533 26.4645 343.21 25.2996 339.828 27.2626C336.447 29.2257 335.288 33.5734 337.241 36.9735C339.193 40.3736 343.517 41.5385 346.898 39.5754Z" fill="#98CCD1"/>
<path id="Vector_86" fill-rule="evenodd" clip-rule="evenodd" d="M340.576 28.5166C343.313 26.9114 346.734 27.9051 348.331 30.5805C349.927 33.3324 345.442 30.657 342.705 32.1858C339.968 33.791 340.044 38.989 338.524 36.2371C336.927 33.5617 337.916 30.1219 340.576 28.5166Z" fill="#FEFFFF"/>
<path id="Vector_87" fill-rule="evenodd" clip-rule="evenodd" d="M304.542 46.4038C307.963 37.1545 313.361 28.6696 320.355 21.637C329.173 12.7699 340.044 6.65467 351.828 3.59705C340.729 8.56568 330.162 15.8275 321.039 25.0004C314.501 31.4979 308.952 38.7597 304.542 46.4038Z" fill="#FEFFFF"/>
<path id="Vector_88" fill-rule="evenodd" clip-rule="evenodd" d="M268.812 108.474C269.572 102.129 271.777 95.8609 275.426 90.2807C273.982 94.4849 273.297 99.0714 273.373 103.811C278.087 103.887 282.648 103.199 286.829 101.747C281.356 105.492 275.122 107.709 268.812 108.474Z" fill="#FECF66"/>
<path id="Vector_89" d="M289.702 40.1239C295.61 34.1834 299.822 28.7869 299.109 28.0705C298.397 27.354 293.03 31.5889 287.122 37.5294C281.214 43.4699 277.002 48.8664 277.715 49.5828C278.427 50.2992 283.794 46.0643 289.702 40.1239Z" fill="#FE7A7F"/>
<path id="Vector_90" d="M339.348 90.0275C345.256 84.0871 349.468 78.6906 348.755 77.9741C348.043 77.2577 342.676 81.4926 336.768 87.4331C330.86 93.3736 326.648 98.7701 327.361 99.4865C328.073 100.203 333.44 95.968 339.348 90.0275Z" fill="#EA464B"/>
<path id="Vector_91" d="M314.525 65.1303C320.433 59.1898 324.645 53.7933 323.933 53.0769C323.22 52.3604 317.853 56.5953 311.945 62.5358C306.037 68.4763 301.826 73.8728 302.538 74.5892C303.251 75.3057 308.618 71.0707 314.525 65.1303Z" fill="#FE7A7F"/>
<path id="Vector_92" fill-rule="evenodd" clip-rule="evenodd" d="M306.975 7.03686L300.437 8.79499C299.905 8.94787 299.449 9.33007 299.297 9.9416C299.145 10.4767 299.297 11.0882 299.677 11.4704L304.466 16.2862C304.846 16.6684 305.455 16.8212 305.987 16.6684C306.519 16.5155 306.975 16.1333 307.127 15.5218L308.875 8.94787C309.028 8.41279 308.875 7.80126 308.495 7.41906C308.039 7.03686 307.507 6.88397 306.975 7.03686Z" fill="#FEFFFF"/>
<path id="Vector_93" fill-rule="evenodd" clip-rule="evenodd" d="M314.197 0.386514L308.799 1.83889C308.343 1.99177 307.963 2.29753 307.887 2.75617C307.735 3.21482 307.887 3.67346 308.191 4.05566L312.144 8.03057C312.525 8.33633 312.981 8.48921 313.437 8.33633C313.893 8.18345 314.273 7.87769 314.349 7.41905L315.793 1.99177C315.945 1.53312 315.793 1.07448 315.489 0.692276C315.109 0.386514 314.653 0.233633 314.197 0.386514Z" fill="#FEFFFF"/>
<path id="Vector_94" fill-rule="evenodd" clip-rule="evenodd" d="M262.882 114.512C263.339 110.843 264.631 107.251 266.684 104.116C265.847 106.563 265.467 109.162 265.467 111.913C268.204 111.913 270.789 111.531 273.221 110.69C270.105 112.754 266.532 114.054 262.882 114.512Z" fill="#FECF66"/>
<path id="Vector_95" fill-rule="evenodd" clip-rule="evenodd" d="M277.783 55.5766L244.409 102.664C244.485 102.664 257.257 77.4386 277.783 55.5766Z" fill="#FEFFFF"/>
<path id="Vector_96" fill-rule="evenodd" clip-rule="evenodd" d="M355.629 107.021H326.589C325.676 107.021 324.764 107.862 324.688 108.779L319.823 153.268L320.355 153.803C320.507 153.956 320.735 154.109 320.887 154.185C320.279 154.949 319.823 155.637 319.519 156.249L319.29 158.007C320.735 158.007 326.589 153.268 333.05 146.847C339.968 139.891 344.91 133.622 344.073 132.782C343.693 132.399 341.869 133.393 339.284 135.457V126.437V122.844V122.768L339.132 122.615C344.454 119.328 349.395 115.43 353.804 110.92C353.956 108.779 354.793 107.938 355.629 107.021Z" fill="#0099F9"/>
<path id="Vector_97" fill-rule="evenodd" clip-rule="evenodd" d="M340.272 127.049H379.804C380.944 127.049 381.704 127.966 381.552 129.112C381.4 130.259 380.26 131.176 379.119 131.176H339.588C338.448 131.176 337.688 130.259 337.84 129.112C338.068 128.042 339.132 127.049 340.272 127.049Z" fill="#FEFFFF"/>
<path id="Vector_98" fill-rule="evenodd" clip-rule="evenodd" d="M386.569 127.049H390.903C392.043 127.049 392.803 127.966 392.651 129.112C392.423 130.259 391.359 131.176 390.219 131.176H385.885C384.745 131.176 383.985 130.259 384.137 129.112C384.365 128.042 385.429 127.049 386.569 127.049Z" fill="#FEFFFF"/>
<path id="Vector_99" fill-rule="evenodd" clip-rule="evenodd" d="M341.641 119.022H366.044C367.184 119.022 367.944 119.94 367.792 121.086C367.564 122.233 366.5 123.15 365.359 123.15H340.957C339.816 123.15 339.056 122.233 339.208 121.086C339.36 120.016 340.5 119.022 341.641 119.022Z" fill="#FEFFFF"/>
<path id="Vector_100" fill-rule="evenodd" clip-rule="evenodd" d="M338.904 171.537H363.307C364.447 171.537 365.207 172.454 365.055 173.601C364.903 174.747 363.763 175.665 362.623 175.665H338.22C337.079 175.665 336.319 174.747 336.471 173.601C336.699 172.454 337.764 171.537 338.904 171.537Z" fill="#FDFAFF"/>
<path id="Vector_101" fill-rule="evenodd" clip-rule="evenodd" d="M337.84 179.869H352.056C353.196 179.869 354.032 180.786 353.88 181.933C353.728 183.08 352.74 183.997 351.6 183.997H337.384C336.243 183.997 335.407 183.08 335.559 181.933C335.635 180.786 336.699 179.869 337.84 179.869Z" fill="#FDFAFF"/>
<path id="Vector_102" fill-rule="evenodd" clip-rule="evenodd" d="M391.055 74.381H415.458C416.598 74.381 417.358 75.2983 417.206 76.4449C417.054 77.5915 415.914 78.5088 414.773 78.5088H390.371C389.23 78.5088 388.47 77.5915 388.622 76.4449C388.85 75.2983 389.914 74.381 391.055 74.381Z" fill="#014874"/>
<path id="Vector_103" fill-rule="evenodd" clip-rule="evenodd" d="M390.143 82.4073H403.066C404.207 82.4073 405.043 83.3246 404.891 84.4712C404.739 85.6178 403.75 86.5351 402.61 86.5351H389.686C388.546 86.5351 387.71 85.6178 387.862 84.4712C388.014 83.401 389.002 82.4073 390.143 82.4073Z" fill="#014874"/>
<g id="Group">
<path id="Vector_104" fill-rule="evenodd" clip-rule="evenodd" d="M301.197 269.457H309.788C312.677 269.457 315.033 271.827 315.033 274.732C315.033 277.637 312.677 280.006 309.788 280.006H301.197C298.308 280.006 295.952 277.637 295.952 274.732C295.876 271.827 298.308 269.457 301.197 269.457Z" fill="#E35454"/>
<path id="Vector_105" fill-rule="evenodd" clip-rule="evenodd" d="M301.197 269.457H309.788C311.46 269.457 312.905 270.222 313.893 271.445C313.665 274.12 311.384 276.261 308.647 276.261H300.057C298.385 276.261 296.94 275.496 295.952 274.273C296.18 271.598 298.461 269.457 301.197 269.457Z" fill="#FF6161"/>
<path id="Vector_106" fill-rule="evenodd" clip-rule="evenodd" d="M300.285 268.464H303.022C306.443 268.464 309.256 271.292 309.256 274.732C309.256 278.172 306.443 281 303.022 281H300.285C296.864 281 294.051 278.172 294.051 274.732C294.051 271.292 296.788 268.464 300.285 268.464Z" fill="#D9E8F2"/>
<path id="Vector_107" fill-rule="evenodd" clip-rule="evenodd" d="M299.677 280.923C296.56 280.618 294.051 277.942 294.051 274.655C294.051 271.445 296.56 268.693 299.677 268.387C302.794 268.693 305.303 271.368 305.303 274.655C305.303 277.942 302.794 280.618 299.677 280.923Z" fill="#C5D2DB"/>
<path id="Vector_108" fill-rule="evenodd" clip-rule="evenodd" d="M192.563 268.464H296.94C300.361 268.464 303.174 271.292 303.174 274.732C303.174 278.172 300.361 281 296.94 281H192.563C189.142 281 186.329 278.172 186.329 274.732C186.329 271.292 189.142 268.464 192.563 268.464Z" fill="#F0BE4A"/>
<path id="Vector_109" fill-rule="evenodd" clip-rule="evenodd" d="M192.563 268.464H296.94C300.361 268.464 303.174 271.292 303.174 274.732H189.446C188.153 274.732 187.089 273.967 186.633 272.897C187.393 270.298 189.75 268.464 192.563 268.464Z" fill="#FFCF61"/>
<path id="Vector_110" fill-rule="evenodd" clip-rule="evenodd" d="M192.563 268.464H195.299C198.72 268.464 201.533 271.292 201.533 274.732C201.533 278.172 198.72 281 195.299 281H192.563C189.142 281 186.329 278.172 186.329 274.732C186.329 271.292 189.142 268.464 192.563 268.464Z" fill="#FFC18A"/>
<path id="Vector_111" fill-rule="evenodd" clip-rule="evenodd" d="M196.212 268.54C199.176 268.999 201.533 271.598 201.533 274.732C201.533 277.866 199.252 280.465 196.212 280.923C193.247 280.465 190.89 277.866 190.89 274.732C190.89 271.598 193.247 268.999 196.212 268.54Z" fill="#FFAB61"/>
<path id="Vector_112" fill-rule="evenodd" clip-rule="evenodd" d="M181.539 272.209H191.422C192.791 272.209 193.931 273.356 193.931 274.732C193.931 276.108 192.791 277.254 191.422 277.254H181.539C180.171 277.254 179.031 276.108 179.031 274.732C179.031 273.356 180.171 272.209 181.539 272.209Z" fill="#3F4C69"/>
<path id="Vector_113" fill-rule="evenodd" clip-rule="evenodd" d="M181.539 272.209H184.808C186.177 272.209 187.317 273.356 187.317 274.732C187.317 276.108 186.177 277.254 184.808 277.254H181.539C180.171 277.254 179.031 276.108 179.031 274.732C179.031 273.356 180.171 272.209 181.539 272.209Z" fill="#999999"/>
<path id="Vector_114" fill-rule="evenodd" clip-rule="evenodd" d="M221.831 273.356H227.532C228.293 273.356 228.901 273.967 228.901 274.732C228.901 275.496 228.293 276.108 227.532 276.108H221.831C221.071 276.108 220.462 275.496 220.462 274.732C220.462 273.967 221.071 273.356 221.831 273.356Z" fill="#E3B752"/>
<path id="Vector_115" fill-rule="evenodd" clip-rule="evenodd" d="M216.813 273.356H218.334C219.094 273.356 219.702 273.967 219.702 274.732C219.702 275.496 219.094 276.108 218.334 276.108H216.813C216.053 276.108 215.445 275.496 215.445 274.732C215.445 273.967 216.053 273.356 216.813 273.356Z" fill="#E3B752"/>
<path id="Vector_116" fill-rule="evenodd" clip-rule="evenodd" d="M181.235 273.738H182.528C183.06 273.738 183.516 274.197 183.516 274.732C183.516 275.267 183.06 275.726 182.528 275.726H181.235C180.703 275.726 180.247 275.267 180.247 274.732C180.247 274.197 180.627 273.738 181.235 273.738Z" fill="#B3B3B3"/>
<path id="Vector_117" fill-rule="evenodd" clip-rule="evenodd" d="M304.77 271.292C305.759 271.139 306.823 271.368 307.127 271.827C307.431 272.286 306.823 272.821 305.835 272.974C304.846 273.126 303.782 272.897 303.478 272.439C303.174 271.98 303.782 271.521 304.77 271.292Z" fill="white"/>
<path id="Vector_118" fill-rule="evenodd" clip-rule="evenodd" d="M286.297 269.61H294.127C295.116 269.61 296.028 270.451 296.028 271.445C296.028 272.439 295.192 273.279 294.127 273.279H286.297C285.309 273.279 284.473 272.439 284.473 271.445C284.473 270.451 285.309 269.61 286.297 269.61Z" fill="#FFDA82"/>
<path id="Vector_119" fill-rule="evenodd" clip-rule="evenodd" d="M204.878 269.84H210.58C211.34 269.84 211.948 270.451 211.948 271.215C211.948 271.98 211.34 272.591 210.58 272.591H204.878C204.118 272.591 203.51 271.98 203.51 271.215C203.51 270.451 204.118 269.84 204.878 269.84Z" fill="#FFDA82"/>
</g>
<path id="Vector_120" fill-rule="evenodd" clip-rule="evenodd" d="M93.8106 256.386H172.569C164.891 256.386 156.452 262.731 153.944 270.451L149.306 284.516H70.472L75.1093 270.451C77.694 262.731 86.1324 256.386 93.8106 256.386Z" fill="#EEF3F8"/>
<path id="Vector_121" fill-rule="evenodd" clip-rule="evenodd" d="M85.4482 269.152H115.553C116.389 269.152 116.997 269.84 116.769 270.757C116.541 271.598 115.629 272.362 114.793 272.362H84.612C83.7757 272.362 83.1676 271.674 83.3956 270.757C83.6237 269.916 84.5359 269.152 85.4482 269.152Z" fill="#3F4C69"/>
<path id="Vector_122" fill-rule="evenodd" clip-rule="evenodd" d="M91.9861 262.654H136.915C137.751 262.654 138.283 263.342 137.903 264.259C137.599 265.1 136.611 265.865 135.774 265.865H90.8457C90.0095 265.865 89.4773 265.177 89.8575 264.259C90.1615 263.342 91.1498 262.654 91.9861 262.654Z" fill="#3F4C69"/>
<path id="Vector_123" fill-rule="evenodd" clip-rule="evenodd" d="M455.217 115.353L448.679 117.111C448.147 117.264 447.691 117.646 447.539 118.258C447.387 118.793 447.539 119.405 447.919 119.787L452.708 124.603C453.088 124.985 453.697 125.138 454.229 124.985C454.761 124.832 455.217 124.45 455.369 123.838L457.117 117.264C457.27 116.729 457.117 116.118 456.737 115.735C456.357 115.353 455.749 115.2 455.217 115.353Z" fill="#CCEBFF"/>
<path id="Vector_124" fill-rule="evenodd" clip-rule="evenodd" d="M83.6237 76.5977L77.0858 78.3558C76.5537 78.5087 76.0976 78.8909 75.9455 79.5024C75.7935 80.0375 75.9455 80.6491 76.3256 81.0313L81.115 85.847C81.4951 86.2292 82.1033 86.3821 82.6354 86.2292C83.1676 86.0763 83.6237 85.6941 83.7757 85.0826L85.5242 78.5087C85.6763 77.9736 85.5242 77.3621 85.1441 76.9799C84.764 76.5977 84.2319 76.4448 83.6237 76.5977Z" fill="#CCEBFF"/>
<path id="Vector_125" fill-rule="evenodd" clip-rule="evenodd" d="M91.1498 68.7244L84.612 70.4825C84.0798 70.6354 83.6237 71.0176 83.4716 71.6291C83.3196 72.1642 83.4716 72.7757 83.8518 73.1579L88.6411 77.9737C89.0212 78.3559 89.6294 78.5087 90.1615 78.3559C90.6937 78.203 91.1498 77.8208 91.3019 77.2093L93.0504 70.6354C93.2024 70.1003 93.0504 69.4888 92.6703 69.1066C92.2901 68.7244 91.758 68.5715 91.1498 68.7244Z" fill="#CCEBFF"/>
<path id="Vector_126" fill-rule="evenodd" clip-rule="evenodd" d="M9.12258 256.386H54.7355C59.7529 256.386 63.8581 260.514 63.8581 265.559C63.8581 270.604 59.7529 274.732 54.7355 274.732H9.12258C4.10516 274.732 0 270.604 0 265.559C0 260.514 4.10516 256.386 9.12258 256.386Z" fill="#4B86A7"/>
<path id="Vector_127" fill-rule="evenodd" clip-rule="evenodd" d="M240.304 159.077C231.486 171.919 227.532 187.284 229.813 203.718C231.334 214.344 235.287 224.51 241.368 233.836H233.082C229.053 226.192 226.316 218.166 225.176 209.834C222.439 190.647 228.293 173.066 240.304 159.077Z" fill="#FEFFFF"/>
<path id="Vector_128" fill-rule="evenodd" clip-rule="evenodd" d="M252.924 210.751C263.947 210.751 272.917 219.771 272.917 230.855C272.917 233.225 272.537 235.518 271.777 237.582H234.07C233.31 235.441 232.93 233.225 232.93 230.855C232.93 219.771 241.901 210.751 252.924 210.751Z" fill="#FEF5FA"/>
<path id="Vector_129" fill-rule="evenodd" clip-rule="evenodd" d="M238.175 217.248C240.456 214.726 243.345 212.815 246.614 211.745C247.906 211.439 249.199 211.21 250.567 211.057C257.789 210.522 263.719 213.503 263.719 217.784C263.719 222.064 257.865 226.039 250.567 226.574C243.345 227.109 237.415 224.128 237.415 219.847C237.491 219.007 237.719 218.089 238.175 217.248Z" fill="#FEFFFF"/>
<path id="Vector_130" fill-rule="evenodd" clip-rule="evenodd" d="M279.075 201.196C294.051 201.196 306.215 213.426 306.215 228.485C306.215 231.696 305.683 234.753 304.618 237.658H253.532C252.544 234.83 251.935 231.696 251.935 228.485C252.011 213.426 264.099 201.196 279.075 201.196Z" fill="#F7DEE7"/>
<path id="Vector_131" fill-rule="evenodd" clip-rule="evenodd" d="M259.157 210.063C262.198 206.7 266.151 204.101 270.561 202.648C272.233 202.19 274.058 201.884 275.958 201.731C285.765 200.967 293.747 205.094 293.747 210.904C293.747 216.713 285.765 222.064 275.958 222.829C266.151 223.593 258.169 219.465 258.169 213.656C258.093 212.433 258.473 211.21 259.157 210.063Z" fill="#FEFFFF"/>
<path id="Vector_132" fill-rule="evenodd" clip-rule="evenodd" d="M314.349 189.271C334.267 189.271 350.383 205.477 350.383 225.504C350.383 229.785 349.623 233.836 348.331 237.658H280.443C279.075 233.836 278.391 229.785 278.391 225.504C278.315 205.477 294.431 189.271 314.349 189.271Z" fill="#F4E7EC"/>
<path id="Vector_133" fill-rule="evenodd" clip-rule="evenodd" d="M287.818 201.043C291.923 196.533 297.092 193.093 302.946 191.182C305.226 190.571 307.583 190.189 310.092 189.959C323.168 188.965 333.735 194.393 333.735 202.113C333.735 209.834 323.168 216.943 310.092 217.936C297.016 218.93 286.449 213.503 286.449 205.782C286.449 204.101 286.981 202.572 287.818 201.043Z" fill="#FEFFFF"/>
<path id="Vector_134" fill-rule="evenodd" clip-rule="evenodd" d="M170.06 229.02C165.195 227.568 118.594 213.274 118.594 213.274C118.594 213.274 139.043 228.103 135.85 227.262C132.658 226.421 61.1213 212.127 61.1213 212.127L148.47 234.6L141.856 224.052L170.06 229.02Z" fill="#FEFFFF"/>
<path id="Vector_135" fill-rule="evenodd" clip-rule="evenodd" d="M242.813 230.931C248.666 229.479 305.15 215.185 305.15 215.185C305.15 215.185 280.291 230.014 284.244 229.173C288.122 228.332 374.786 214.038 374.786 214.038L268.888 236.511L276.946 225.963L242.813 230.931Z" fill="#FEFFFF"/>
</g>
</svg>
