<svg width="1010" height="777" viewBox="0 0 1010 777" fill="none" xmlns="http://www.w3.org/2000/svg">
<g style="mix-blend-mode:multiply">
<path d="M40.4506 150.095C-20.0755 113.345 0.487877 32.0524 18.3353 -4H1024V562.954C1008.29 586.019 959.866 645.758 891.89 700.186C806.921 768.22 663.171 793.224 478.683 766.475C294.195 739.727 247.054 669.948 222.029 632.151C197.004 594.354 228.431 522.249 247.054 496.664C265.678 471.078 327.368 387.925 298.851 315.82C270.333 243.715 116.108 196.033 40.4506 150.095Z" fill="#C0D6ED"/>
</g>
<g style="mix-blend-mode:multiply">
<path d="M97.6064 141.189C41.3361 106.086 60.4536 28.4368 77.0461 -6H1012V535.546C997.391 557.578 952.375 614.639 889.179 666.628C810.184 731.613 669.516 762.55 498 737C326.484 711.45 280.208 651.916 261 613.5C238 567.5 272.369 496.666 289.683 472.227C306.997 447.788 364.35 368.361 337.838 299.487C311.326 230.614 167.944 185.069 97.6064 141.189Z" fill="#C0D6ED"/>
</g>
<g style="mix-blend-mode:multiply">
<path d="M150.355 133.495C97.4536 100.226 115.426 26.6365 131.025 -6H1010V507.235C996.266 528.115 953.945 582.193 894.533 631.464C820.268 693.052 694.627 715.687 533.38 691.473C372.133 667.259 330.931 604.091 309.059 569.876C287.186 535.66 314.654 470.387 330.931 447.226C347.208 424.064 401.127 348.79 376.202 283.517C351.278 218.244 216.481 175.08 150.355 133.495Z" fill="#C0D6ED"/>
</g>
<path fill-rule="evenodd" clip-rule="evenodd" d="M661.994 222.509C766.219 222.509 850.755 307.511 850.755 412.311C850.755 429.281 848.551 445.792 844.369 461.462H479.618C475.437 445.792 473.232 429.357 473.232 412.311C473.232 307.435 557.692 222.509 661.994 222.509Z" fill="#CCEBFF"/>
<path fill-rule="evenodd" clip-rule="evenodd" d="M536.254 370.345C536.482 370.88 536.558 371.415 536.558 371.951L527.892 473.617C527.74 475.757 526.143 477.439 524.015 477.439L497.331 477.209H497.255L489.653 477.133H485.548H485.472C483.419 477.056 481.899 475.298 481.747 473.234L473.992 371.568V371.492V371.415V371.339V371.263V371.186V371.11C473.992 370.957 473.992 370.88 474.068 370.728H473.536H473.46H473.384H473.308H473.232H473.156C473.08 370.728 473.004 370.728 472.928 370.728H472.852H472.7H472.624H472.548H472.472L472.32 370.651H472.244H472.168H472.092H472.016H471.94H471.864H471.788L471.636 370.575L471.56 370.498C471.484 370.422 471.484 370.422 471.408 370.345L471.332 370.269L471.256 370.192L471.18 370.116L471.104 370.04L471.028 369.963L470.952 369.887L470.876 369.734L470.8 369.581V369.504V369.428V369.352L470.724 369.199V369.122V369.046V368.969V368.893V368.816V368.74V368.664V368.587V368.511V368.434V368.358V368.281V368.205V368.129V368.052V367.976V367.899V364.689V364.536V364.383V364.23V364.077V363.924V363.771V363.619C470.724 363.542 470.724 363.389 470.8 363.313V363.16L470.876 363.007L470.952 362.854L471.028 362.548L471.104 362.395L471.18 362.243L471.256 362.09L471.332 361.937L471.408 361.784L471.484 361.631L471.56 361.478L471.636 361.325L471.712 361.172L471.788 361.02L471.864 360.867L471.94 360.714L472.016 360.561L472.092 360.408L472.168 360.332L472.244 360.255L472.32 360.179L472.396 360.102L472.472 360.026L472.548 359.949L472.624 359.873L472.7 359.796L472.852 359.72L473.004 359.644L473.156 359.567L473.308 359.491L473.46 359.414L473.612 359.338L473.764 359.261L473.916 359.185L474.068 359.109L474.221 359.032L474.373 358.956L474.525 358.879L474.677 358.803L474.829 358.726L474.981 358.65L475.133 358.573L475.285 358.497L475.437 358.421H475.589H475.741H475.893H476.045H476.197H476.349H476.501H476.653H476.805H476.957L494.822 358.344L509.266 358.268H509.342L533.137 358.115C536.558 358.115 539.295 360.867 539.295 364.23V367.441C539.067 368.969 537.774 370.269 536.254 370.345Z" fill="#D9AE96"/>
<path fill-rule="evenodd" clip-rule="evenodd" d="M662.146 206.304C665.491 206.304 668.836 206.38 672.105 206.533C565.446 211.731 480.53 300.402 480.53 408.948C480.53 427.064 482.887 444.646 487.372 461.386H467.455C463.045 444.646 460.613 427.064 460.613 408.948C460.613 297.039 550.85 206.304 662.146 206.304Z" fill="#CCEBFF"/>
<path fill-rule="evenodd" clip-rule="evenodd" d="M448.449 307.358C445.484 308.505 443.964 311.868 445.104 314.849L458.484 350.241C459.624 353.223 462.969 354.751 465.934 353.605C468.899 352.458 470.419 349.095 469.279 346.114L455.899 310.722C454.759 307.74 451.414 306.212 448.449 307.358Z" fill="#FBE0D2"/>
<path fill-rule="evenodd" clip-rule="evenodd" d="M450.122 306.67C447.157 307.817 445.636 311.18 446.777 314.161L460.156 349.553C461.297 352.535 464.642 354.063 467.607 352.917C470.571 351.77 472.092 348.407 470.951 345.426L457.572 310.034C456.431 307.052 453.086 305.524 450.122 306.67Z" fill="#E5BAA1"/>
<path fill-rule="evenodd" clip-rule="evenodd" d="M466.238 353.223C466.694 353.146 467.151 353.07 467.607 352.917C470.571 351.77 472.092 348.407 470.952 345.426L459.016 313.703C458.56 313.779 458.104 313.856 457.648 314.009C454.683 315.155 453.163 318.519 454.303 321.5L466.238 353.223Z" fill="#D5A58A"/>
<path fill-rule="evenodd" clip-rule="evenodd" d="M473.004 351.082L507.366 351.312C509.494 351.312 511.319 353.07 511.167 355.21L502.5 456.876C502.348 459.016 500.752 460.698 498.623 460.698L464.262 460.469C466.314 460.392 467.911 458.711 468.063 456.647L476.729 354.981C476.881 352.917 475.057 351.159 473.004 351.082Z" fill="#C99D83"/>
<path fill-rule="evenodd" clip-rule="evenodd" d="M452.554 350.929L480.606 351.159H480.682C482.735 351.235 484.559 352.993 484.407 355.057L475.741 456.8C475.589 458.863 473.992 460.622 471.94 460.622H471.864L460.156 460.545H460.08C458.028 460.469 456.507 458.711 456.355 456.647L448.601 354.828C448.449 352.764 450.35 351.006 452.402 351.006L452.554 350.929Z" fill="#E5BAA1"/>
<path fill-rule="evenodd" clip-rule="evenodd" d="M454.911 351.006L482.127 351.159H482.203C484.407 351.235 486.232 352.993 486.08 355.057L485.776 358.573L448.905 358.803L448.601 354.828C448.449 352.84 450.198 351.235 452.174 351.006H454.911Z" fill="#C99D83"/>
<path fill-rule="evenodd" clip-rule="evenodd" d="M480.074 376.231C491.553 376.155 500.828 385.48 500.828 397.023C500.828 408.566 491.553 417.968 480.074 418.044C468.595 418.121 459.32 408.795 459.32 397.252C459.32 385.71 468.595 376.308 480.074 376.231Z" fill="#EFC9B4"/>
<path fill-rule="evenodd" clip-rule="evenodd" d="M451.338 341.604L507.518 341.298C510.939 341.298 513.676 344.05 513.676 347.413V350.624C513.676 352.229 512.383 353.605 510.711 353.605L448.069 353.911C446.473 353.911 445.104 352.611 445.104 351.006V347.795C445.256 344.432 447.993 341.604 451.338 341.604Z" fill="#D5A58A"/>
<path fill-rule="evenodd" clip-rule="evenodd" d="M451.338 341.604L483.647 341.451C487.068 341.451 489.805 344.203 489.805 347.566V350.777C489.805 352.382 488.512 353.758 486.84 353.758L448.069 353.987C446.473 353.987 445.104 352.688 445.104 351.082V347.872C445.256 344.432 447.993 341.604 451.338 341.604Z" fill="#E5BAA1"/>
<path fill-rule="evenodd" clip-rule="evenodd" d="M480.074 384.181C487.144 384.181 492.922 389.914 492.922 397.023C492.922 404.132 487.144 409.942 480.074 410.018C473.004 410.018 467.227 404.285 467.227 397.176C467.227 390.067 473.004 384.258 480.074 384.181Z" fill="#FBE0D2"/>
<path fill-rule="evenodd" clip-rule="evenodd" d="M465.098 344.967H483.571C485.015 344.967 486.156 346.114 486.156 347.566C486.156 349.018 485.015 350.165 483.571 350.165H465.098C463.653 350.165 462.513 349.018 462.513 347.566C462.513 346.114 463.729 344.967 465.098 344.967Z" fill="#F1C8B1"/>
<path fill-rule="evenodd" clip-rule="evenodd" d="M452.782 344.967H455.823C457.268 344.967 458.408 346.114 458.408 347.566C458.408 349.018 457.268 350.165 455.823 350.165H452.782C451.338 350.165 450.198 349.018 450.198 347.566C450.274 346.114 451.414 344.967 452.782 344.967Z" fill="#F1C8B1"/>
<path fill-rule="evenodd" clip-rule="evenodd" d="M480.758 348.865H482.279C482.963 348.865 483.571 349.477 483.571 350.165C483.571 350.853 482.963 351.464 482.279 351.464H480.758C480.074 351.464 479.466 350.853 479.466 350.165C479.466 349.401 480.074 348.865 480.758 348.865Z" fill="#FBE0D2"/>
<path fill-rule="evenodd" clip-rule="evenodd" d="M476.045 342.674H478.934C480.302 342.674 481.366 343.82 481.366 345.12C481.366 346.496 480.226 347.566 478.934 347.566H476.045C474.677 347.566 473.612 346.419 473.612 345.12C473.536 343.744 474.677 342.674 476.045 342.674Z" fill="#FBE0D2"/>
<path fill-rule="evenodd" clip-rule="evenodd" d="M771.693 435.014H776.938C779.903 435.014 782.336 437.46 782.336 440.441V444.722C782.336 447.703 779.903 450.149 776.938 450.149H771.693C768.728 450.149 766.295 447.703 766.295 444.722V440.441C766.295 437.46 768.728 435.014 771.693 435.014Z" fill="#3C3C4C"/>
<path fill-rule="evenodd" clip-rule="evenodd" d="M584.224 435.014H589.469C592.434 435.014 594.867 437.46 594.867 440.441V444.722C594.867 447.703 592.434 450.149 589.469 450.149H584.224C581.259 450.149 578.826 447.703 578.826 444.722V440.441C578.75 437.46 581.259 435.014 584.224 435.014Z" fill="#3C3C4C"/>
<path fill-rule="evenodd" clip-rule="evenodd" d="M561.569 439.524H812.668C817.914 439.524 822.627 435.243 823.235 429.969L842.773 252.245C843.533 245.212 838.44 239.479 831.522 239.479H586.732C579.738 239.479 573.429 245.212 572.668 252.245L553.131 429.969C552.523 435.243 556.324 439.524 561.569 439.524Z" fill="#3C3C4C"/>
<path fill-rule="evenodd" clip-rule="evenodd" d="M555.107 439.524H806.206C811.452 439.524 816.165 435.243 816.773 429.969L836.311 252.245C837.071 245.212 831.978 239.479 824.984 239.479H580.194C573.2 239.479 566.891 245.212 566.13 252.245L546.593 429.969C546.061 435.243 549.862 439.524 555.107 439.524Z" fill="#5B5C70"/>
<path fill-rule="evenodd" clip-rule="evenodd" d="M555.107 431.498H806.206C807.423 431.498 808.715 430.275 808.867 429.052L828.405 251.327C828.633 249.111 827.264 247.429 825.06 247.429H580.194C577.23 247.429 574.341 250.104 574.037 253.085L554.499 430.81C554.499 431.345 554.575 431.498 555.107 431.498Z" fill="#0099F9"/>
<path fill-rule="evenodd" clip-rule="evenodd" d="M576.241 361.631H605.358H615.773H644.889C646.029 361.631 646.789 362.548 646.561 363.695C646.333 364.841 645.193 365.759 644.129 365.759H615.012H604.597H575.481C574.341 365.759 573.581 364.841 573.809 363.695C573.961 362.548 575.101 361.631 576.241 361.631ZM573.2 380.053H602.317H612.732H641.848C642.988 380.053 643.748 380.97 643.52 382.117C643.292 383.264 642.152 384.181 641.088 384.181H611.971H601.557H572.44C571.3 384.181 570.54 383.264 570.768 382.117C570.92 380.97 572.06 380.053 573.2 380.053ZM574.721 370.804H603.837H614.252H643.368C644.509 370.804 645.269 371.721 645.041 372.868C644.813 374.014 643.672 374.932 642.608 374.932H613.492H603.077H573.961C572.82 374.932 572.06 374.014 572.288 372.868C572.44 371.798 573.581 370.804 574.721 370.804Z" fill="#014874"/>
<path fill-rule="evenodd" clip-rule="evenodd" d="M823.235 297.88L827.645 257.825H573.505L569.171 297.88H823.235Z" fill="#71C8FF"/>
<path fill-rule="evenodd" clip-rule="evenodd" d="M580.118 435.014H585.364C588.329 435.014 590.761 437.46 590.761 440.441V444.722C590.761 447.703 588.329 450.149 585.364 450.149H580.118C577.154 450.149 574.721 447.703 574.721 444.722V440.441C574.721 437.46 577.154 435.014 580.118 435.014Z" fill="#4B4C5E"/>
<path fill-rule="evenodd" clip-rule="evenodd" d="M767.664 435.014H772.909C775.874 435.014 778.307 437.46 778.307 440.441V444.722C778.307 447.703 775.874 450.149 772.909 450.149H767.664C764.699 450.149 762.266 447.703 762.266 444.722V440.441C762.19 437.46 764.699 435.014 767.664 435.014Z" fill="#4B4C5E"/>
<path fill-rule="evenodd" clip-rule="evenodd" d="M439.327 442.658H793.739C795.487 442.658 796.932 444.11 796.932 445.869C796.932 447.627 795.487 449.079 793.739 449.079H439.327C437.578 449.079 436.134 447.627 436.134 445.869C436.134 444.11 437.578 442.658 439.327 442.658Z" fill="#676875"/>
<path fill-rule="evenodd" clip-rule="evenodd" d="M420.853 445.869H693.619C697.876 445.869 701.373 449.385 701.373 453.666C701.373 457.946 697.876 461.462 693.619 461.462H420.853C416.596 461.462 413.099 457.946 413.099 453.666C413.175 449.385 416.596 445.869 420.853 445.869Z" fill="#4B4C5E"/>
<path fill-rule="evenodd" clip-rule="evenodd" d="M475.133 445.869H557.16C557.16 450.149 553.663 453.666 549.406 453.666H482.887C478.63 453.666 475.133 450.149 475.133 445.869Z" fill="#3C3C4C"/>
<path fill-rule="evenodd" clip-rule="evenodd" d="M636.146 445.869H813.277C817.534 445.869 821.031 449.385 821.031 453.666C821.031 457.946 817.534 461.462 813.277 461.462H636.146C631.889 461.462 628.392 457.946 628.392 453.666C628.392 449.385 631.889 445.869 636.146 445.869Z" fill="#3C3C4C"/>
<path fill-rule="evenodd" clip-rule="evenodd" d="M748.202 450.149H762.038C763.863 450.149 765.307 451.602 765.307 453.436C765.307 455.271 763.863 456.723 762.038 456.723H748.202C746.378 456.723 744.933 455.271 744.933 453.436C744.933 451.602 746.378 450.149 748.202 450.149Z" fill="#2E2E3B"/>
<path fill-rule="evenodd" clip-rule="evenodd" d="M752.003 451.219H761.354C762.57 451.219 763.558 452.213 763.558 453.436C763.558 454.659 762.57 455.653 761.354 455.653H752.003C750.787 455.653 749.799 454.659 749.799 453.436C749.799 452.213 750.787 451.219 752.003 451.219Z" fill="#4B4C5E"/>
<path fill-rule="evenodd" clip-rule="evenodd" d="M753.828 451.219H763.178C764.395 451.219 765.383 452.213 765.383 453.436C765.383 454.659 764.395 455.653 763.178 455.653H753.828C752.611 455.653 751.623 454.659 751.623 453.436C751.623 452.213 752.611 451.219 753.828 451.219Z" fill="#B2B3B8"/>
<path fill-rule="evenodd" clip-rule="evenodd" d="M643.216 450.149H728.284C730.109 450.149 731.553 451.602 731.553 453.436C731.553 455.271 730.109 456.723 728.284 456.723H643.216C641.392 456.723 639.947 455.271 639.947 453.436C639.947 451.602 641.468 450.149 643.216 450.149Z" fill="#2E2E3B"/>
<path fill-rule="evenodd" clip-rule="evenodd" d="M645.725 450.149H730.793C732.618 450.149 734.062 451.602 734.062 453.436C734.062 455.271 732.618 456.723 730.793 456.723H645.725C643.901 456.723 642.456 455.271 642.456 453.436C642.456 451.602 643.901 450.149 645.725 450.149Z" fill="#4B4C5E"/>
<path fill-rule="evenodd" clip-rule="evenodd" d="M782.032 450.149H782.944C784.768 450.149 786.213 451.602 786.213 453.436C786.213 455.271 784.768 456.723 782.944 456.723H782.032C780.207 456.723 778.763 455.271 778.763 453.436C778.763 451.602 780.207 450.149 782.032 450.149Z" fill="#2E2E3B"/>
<path fill-rule="evenodd" clip-rule="evenodd" d="M783.78 450.149H784.692C786.517 450.149 787.961 451.602 787.961 453.436C787.961 455.271 786.517 456.723 784.692 456.723H783.78C781.956 456.723 780.511 455.271 780.511 453.436C780.435 451.602 781.956 450.149 783.78 450.149Z" fill="#4B4C5E"/>
<path fill-rule="evenodd" clip-rule="evenodd" d="M784.008 451.831H784.464C785.377 451.831 786.137 452.595 786.137 453.513C786.137 454.43 785.377 455.194 784.464 455.194H784.008C783.096 455.194 782.336 454.43 782.336 453.513C782.336 452.519 783.096 451.831 784.008 451.831Z" fill="#2E2E3B"/>
<path fill-rule="evenodd" clip-rule="evenodd" d="M794.727 450.149H795.64C797.464 450.149 798.908 451.602 798.908 453.436C798.908 455.271 797.464 456.723 795.64 456.723H794.727C792.903 456.723 791.458 455.271 791.458 453.436C791.458 451.602 792.903 450.149 794.727 450.149Z" fill="#2E2E3B"/>
<path fill-rule="evenodd" clip-rule="evenodd" d="M796.476 450.149H797.388C799.213 450.149 800.657 451.602 800.657 453.436C800.657 455.271 799.213 456.723 797.388 456.723H796.476C794.651 456.723 793.207 455.271 793.207 453.436C793.131 451.602 794.651 450.149 796.476 450.149Z" fill="#4B4C5E"/>
<path fill-rule="evenodd" clip-rule="evenodd" d="M551.002 395.036C531.389 395.036 515.576 411.012 515.576 430.657C515.576 434.861 516.26 438.836 517.629 442.582H584.452C585.744 438.836 586.504 434.861 586.504 430.657C586.504 411.012 570.616 395.036 551.002 395.036Z" fill="#F4E7EC"/>
<path fill-rule="evenodd" clip-rule="evenodd" d="M577.154 406.578C573.124 402.145 568.031 398.781 562.253 396.87C560.049 396.259 557.692 395.876 555.183 395.647C542.336 394.653 531.921 400.004 531.921 407.572C531.921 415.216 542.336 422.172 555.183 423.166C568.031 424.159 578.446 418.809 578.446 411.241C578.446 409.636 577.99 408.107 577.154 406.578Z" fill="#FEFFFF"/>
<path fill-rule="evenodd" clip-rule="evenodd" d="M576.774 406.655C561.949 406.655 550.014 418.732 550.014 433.562C550.014 436.696 550.546 439.753 551.534 442.582H602.013C603.001 439.753 603.533 436.696 603.533 433.562C603.609 418.732 591.598 406.655 576.774 406.655Z" fill="#F4E7EC"/>
<path fill-rule="evenodd" clip-rule="evenodd" d="M596.539 415.369C593.498 412.005 589.621 409.483 585.288 408.031C583.615 407.572 581.791 407.266 579.966 407.113C570.236 406.349 562.405 410.4 562.405 416.133C562.405 421.866 570.312 427.141 579.966 427.905C589.697 428.67 597.527 424.618 597.527 418.885C597.527 417.738 597.147 416.515 596.539 415.369Z" fill="#FEFFFF"/>
<path fill-rule="evenodd" clip-rule="evenodd" d="M597.451 414.681C585.972 414.681 576.621 424.083 576.621 435.626C576.621 438.072 577.078 440.441 577.838 442.658H617.065C617.825 440.441 618.281 438.072 618.281 435.626C618.281 424.007 608.931 414.681 597.451 414.681Z" fill="#FEF5FA"/>
<path fill-rule="evenodd" clip-rule="evenodd" d="M612.808 421.484C610.451 418.885 607.41 416.898 604.065 415.751C602.773 415.369 601.328 415.14 599.884 415.063C592.358 414.452 586.2 417.586 586.2 422.096C586.2 426.529 592.358 430.657 599.884 431.269C607.41 431.88 613.568 428.746 613.568 424.236C613.568 423.242 613.34 422.325 612.808 421.484Z" fill="#FEFFFF"/>
<path fill-rule="evenodd" clip-rule="evenodd" d="M612.96 442.658C609.159 432.95 607.106 422.631 607.106 412.005C607.106 382.576 622.615 355.898 647.626 336.711C634.018 353.146 626.111 372.715 626.111 393.736C626.111 411.394 631.661 428.058 641.544 442.658H612.96Z" fill="#FEF5FA"/>
<path fill-rule="evenodd" clip-rule="evenodd" d="M633.029 427.829C639.111 427.829 644.053 432.797 644.053 438.913C644.053 440.212 643.825 441.435 643.444 442.658H622.615C622.234 441.512 622.006 440.212 622.006 438.913C621.93 432.797 626.948 427.829 633.029 427.829Z" fill="#FEFFFF"/>
<path fill-rule="evenodd" clip-rule="evenodd" d="M647.55 336.788C634.018 353.222 626.188 372.791 626.188 393.736C626.188 407.342 629.456 420.261 635.462 432.186H624.895C621.094 422.478 619.041 412.158 619.041 401.533C619.118 377.148 629.761 354.675 647.55 336.788Z" fill="#FEFFFF"/>
<path fill-rule="evenodd" clip-rule="evenodd" d="M806.054 313.244C806.13 312.556 805.674 312.021 804.99 312.021H728.589C727.676 312.021 726.764 312.862 726.688 313.779C724.255 335.718 721.899 357.733 719.466 379.671C719.39 380.359 719.846 380.894 720.53 380.894H796.932C797.844 380.894 798.756 380.053 798.832 379.136C801.265 357.121 803.622 335.183 806.054 313.244Z" fill="#71C8FF"/>
<path fill-rule="evenodd" clip-rule="evenodd" d="M811.376 357.656C811.452 356.968 810.996 356.433 810.312 356.433H733.834C732.922 356.433 732.009 357.274 731.933 358.191C729.501 380.13 727.144 402.145 724.711 424.083C724.635 424.771 725.092 425.306 725.776 425.306H802.177C803.09 425.306 804.002 424.465 804.078 423.548C806.511 401.533 808.943 379.595 811.376 357.656Z" fill="#014874"/>
<path fill-rule="evenodd" clip-rule="evenodd" d="M806.359 361.784C806.435 361.249 806.054 360.79 805.522 360.79H737.331C736.571 360.79 735.887 361.478 735.811 362.166C733.834 379.9 731.933 397.558 729.957 415.292C729.881 415.827 730.261 416.286 730.793 416.286H798.984C799.745 416.286 800.429 415.598 800.505 414.91C802.481 397.176 804.458 379.518 806.359 361.784Z" fill="#0099F9"/>
<path fill-rule="evenodd" clip-rule="evenodd" d="M590.609 273.495H615.012C616.153 273.495 616.913 274.412 616.685 275.559C616.457 276.706 615.316 277.623 614.176 277.623H589.773C588.633 277.623 587.873 276.706 588.101 275.559C588.405 274.412 589.469 273.495 590.609 273.495Z" fill="#FDFAFF"/>
<path fill-rule="evenodd" clip-rule="evenodd" d="M589.089 281.521H628.62C629.761 281.521 630.521 282.439 630.293 283.585C630.065 284.732 628.924 285.649 627.86 285.649H588.329C587.188 285.649 586.428 284.732 586.656 283.585C586.808 282.439 587.949 281.521 589.089 281.521Z" fill="#FDFAFF"/>
<path fill-rule="evenodd" clip-rule="evenodd" d="M635.386 281.521H639.719C640.86 281.521 641.62 282.439 641.392 283.585C641.164 284.732 640.023 285.649 638.959 285.649H634.626C633.486 285.649 632.725 284.732 632.953 283.585C633.181 282.439 634.246 281.521 635.386 281.521Z" fill="#FDFAFF"/>
<path fill-rule="evenodd" clip-rule="evenodd" d="M796.704 451.831H797.16C798.072 451.831 798.832 452.595 798.832 453.513C798.832 454.43 798.072 455.194 797.16 455.194H796.704C795.792 455.194 795.031 454.43 795.031 453.513C795.031 452.519 795.792 451.831 796.704 451.831Z" fill="#2E2E3B"/>
<path fill-rule="evenodd" clip-rule="evenodd" d="M602.241 305.982C614.86 305.982 623.907 316.225 622.462 328.914C621.018 341.604 609.691 351.847 597.071 351.847C584.452 351.847 575.405 341.604 576.85 328.914C578.218 316.225 589.621 305.982 602.241 305.982Z" fill="#FEFFFF"/>
<path fill-rule="evenodd" clip-rule="evenodd" d="M608.322 344.432C605.054 346.725 601.328 348.025 597.375 348.025C593.498 348.025 590.001 346.725 587.264 344.432L587.721 340.61C588.405 334.189 593.726 328.991 599.58 328.991C605.358 328.991 609.539 334.189 608.779 340.61L608.322 344.432Z" fill="#71C8FF"/>
<path fill-rule="evenodd" clip-rule="evenodd" d="M600.188 315.308H601.557C604.293 315.308 606.27 317.601 605.966 320.353L605.358 325.628C605.054 328.379 602.545 330.673 599.808 330.673H598.44C595.703 330.673 593.726 328.379 594.03 325.628L594.639 320.353C594.943 317.525 597.451 315.308 600.188 315.308Z" fill="#71C8FF"/>
<path fill-rule="evenodd" clip-rule="evenodd" d="M634.094 309.116H658.497C659.637 309.116 660.397 310.034 660.245 311.18C660.093 312.327 658.953 313.244 657.812 313.244H633.41C632.269 313.244 631.509 312.327 631.661 311.18C631.813 310.034 632.953 309.116 634.094 309.116Z" fill="#014874"/>
<path fill-rule="evenodd" clip-rule="evenodd" d="M633.105 317.448H657.508C658.649 317.448 659.409 318.366 659.257 319.512C659.029 320.659 657.965 321.576 656.824 321.576H632.421C631.281 321.576 630.521 320.659 630.673 319.512C630.901 318.366 631.965 317.448 633.105 317.448Z" fill="#014874"/>
<path fill-rule="evenodd" clip-rule="evenodd" d="M412.643 461.386H872.877C877.895 461.386 882 465.514 882 470.559C882 475.604 877.895 479.732 872.877 479.732H412.643C407.626 479.732 403.52 475.604 403.52 470.559C403.52 465.514 407.626 461.386 412.643 461.386Z" fill="#001A29"/>
<path fill-rule="evenodd" clip-rule="evenodd" d="M412.643 461.386H728.056C733.074 461.386 737.179 465.514 737.179 470.559C737.179 475.604 733.074 479.732 728.056 479.732H412.643C407.626 479.732 403.52 475.604 403.52 470.559C403.52 465.514 407.626 461.386 412.643 461.386Z" fill="#0D3D60"/>
<path fill-rule="evenodd" clip-rule="evenodd" d="M583.767 461.386H657.66C662.678 461.386 666.783 465.514 666.783 470.559C666.783 475.604 662.678 479.732 657.66 479.732H583.767C578.75 479.732 574.645 475.604 574.645 470.559C574.721 465.514 578.75 461.386 583.767 461.386Z" fill="#4B86A7"/>
<path fill-rule="evenodd" clip-rule="evenodd" d="M507.138 461.386H535.19C540.207 461.386 544.312 465.514 544.312 470.559C544.312 475.604 540.207 479.732 535.19 479.732H507.138C502.12 479.732 498.015 475.604 498.015 470.559C498.015 465.514 502.12 461.386 507.138 461.386Z" fill="#5C8094"/>
<path fill-rule="evenodd" clip-rule="evenodd" d="M688.449 319.742C689.133 316.913 690.046 314.085 691.186 311.41L690.73 310.951C690.654 310.874 690.578 310.722 690.426 310.645C690.122 310.874 689.742 310.951 689.361 310.951H675.525C674.993 310.951 674.537 310.722 674.157 310.339L667.239 303.383C667.087 303.23 666.935 303.001 666.859 302.848C664.882 304.301 663.514 305.065 663.134 304.683C662.298 303.842 667.239 297.574 674.157 290.618C681.075 283.662 687.309 278.693 688.145 279.534C688.525 279.916 687.537 281.751 685.484 284.35H697.952C698.484 284.35 698.94 284.579 699.32 284.961L699.472 285.114C702.741 279.763 706.618 274.794 711.104 270.361C720.986 260.424 732.998 253.468 746.073 249.798L746.454 249.722C746.986 249.569 747.518 249.416 748.05 249.34H748.126L748.886 249.187L749.266 249.11L750.027 248.958H750.103L750.483 248.881L750.863 248.805L751.243 248.728C751.775 248.652 752.383 248.499 752.915 248.422L753.296 248.346L753.676 248.27L754.132 248.193L754.588 248.117L755.044 248.04L755.5 247.964L755.88 247.887L756.336 247.811L756.793 247.735L757.173 247.658L757.629 247.582L758.009 247.505H758.161H758.237C765.611 247.505 772.985 247.505 780.283 247.505L777.698 250.563C777.774 251.251 777.774 252.015 777.85 252.703C777.85 253.391 777.927 254.156 777.927 254.843V255.837V255.914V256.143V256.984C777.927 257.672 777.927 258.36 777.85 259.048V259.124V259.201V259.965V260.194V260.424L778.307 263.099V263.176L778.231 263.94V264.169V264.399V264.857V265.316L778.155 265.698L778.079 266.157V266.233L778.003 266.692L777.927 267.303V267.456L777.85 267.838L777.774 268.297L777.698 268.679L777.622 269.138L777.546 269.597L777.47 269.979L777.394 270.437L777.318 270.896L777.242 271.355L777.166 271.813L777.09 272.196L777.014 272.578C776.938 273.113 776.786 273.724 776.71 274.259L776.634 274.642L776.558 275.024L776.482 275.406V275.482L776.33 276.247L776.254 276.629L776.102 277.393V277.47C775.95 278.005 775.798 278.54 775.722 279.075L775.646 279.457C771.997 292.605 765.079 304.759 755.196 314.62C750.711 319.13 745.845 323.029 740.524 326.315L740.676 326.468V326.545V330.138V339.157C743.261 337.094 745.085 336.023 745.465 336.482C746.302 337.323 741.36 343.591 734.442 350.547C727.524 357.503 721.29 362.472 720.454 361.631C720.074 361.249 720.834 359.873 722.279 357.885C722.051 357.809 721.899 357.656 721.747 357.503L714.829 350.547C714.449 350.165 714.22 349.706 714.22 349.171V339.31V335.335C714.22 334.953 714.296 334.571 714.525 334.265C714.449 334.189 714.296 334.112 714.22 333.96L713.764 333.501C711.104 334.648 708.367 335.565 705.478 336.253C704.87 336.406 704.262 336.253 703.806 335.794L702.133 334.112C700.004 337.858 697.42 341.298 694.227 344.508C686.169 352.611 676.058 357.274 665.567 358.573C666.859 348.025 671.496 337.858 679.555 329.755C682.672 326.621 686.169 323.946 689.894 321.805L688.221 320.124C688.449 320.965 688.297 320.353 688.449 319.742Z" fill="#014874"/>
<path fill-rule="evenodd" clip-rule="evenodd" d="M849.691 328.227L843.153 329.985C842.621 330.138 842.165 330.52 842.013 331.131C841.861 331.666 842.013 332.278 842.393 332.66L847.182 337.476C847.562 337.858 848.17 338.011 848.703 337.858C849.235 337.705 849.691 337.323 849.843 336.711L851.591 330.138C851.743 329.602 851.591 328.991 851.211 328.609C850.831 328.227 850.223 328.074 849.691 328.227Z" fill="#CCEBFF"/>
<path fill-rule="evenodd" clip-rule="evenodd" d="M724.407 302.619L678.11 336.941C678.11 336.941 702.969 323.64 724.407 302.619Z" fill="#FEFFFF"/>
<path fill-rule="evenodd" clip-rule="evenodd" d="M682.367 301.855C683.432 292.835 687.461 284.044 694.379 277.164C701.297 270.208 709.963 266.233 718.934 265.087C717.869 274.107 713.84 282.897 706.922 289.777C700.004 296.733 691.338 300.784 682.367 301.855Z" fill="#FECF66"/>
<path fill-rule="evenodd" clip-rule="evenodd" d="M694.835 289.318C695.443 284.503 697.496 279.916 701.145 276.247C704.794 272.578 709.431 270.438 714.144 269.902C713.536 274.718 711.484 279.305 707.835 282.974C704.186 286.566 699.548 288.707 694.835 289.318Z" fill="#FEFFFF"/>
<path fill-rule="evenodd" clip-rule="evenodd" d="M710.799 237.721L716.729 243.683C717.413 244.371 717.413 245.441 716.729 246.129L703.425 259.506C703.121 259.812 702.665 260.041 702.209 260.041H690.35C689.894 260.041 689.513 259.889 689.133 259.506L683.204 253.544C682.519 252.856 682.519 251.786 683.204 251.098L696.507 237.721C696.812 237.415 697.268 237.186 697.724 237.186H709.583C710.039 237.186 710.419 237.339 710.799 237.721Z" fill="#FE6166"/>
<path fill-rule="evenodd" clip-rule="evenodd" d="M746.149 273.266L740.22 267.303C739.536 266.615 738.471 266.615 737.787 267.303L724.483 280.681C724.179 280.986 723.951 281.445 723.951 281.904V293.828C723.951 294.287 724.103 294.669 724.483 295.051L730.413 301.014C731.097 301.702 732.162 301.702 732.846 301.014L746.149 287.637C746.454 287.331 746.682 286.872 746.682 286.414V274.489C746.682 274.03 746.454 273.572 746.149 273.266Z" fill="#EA464B"/>
<path fill-rule="evenodd" clip-rule="evenodd" d="M746.149 273.266L740.22 267.303C739.536 266.615 738.471 266.615 737.787 267.303L724.483 280.681C724.179 280.986 723.951 281.445 723.951 281.904V285.343C724.939 285.649 726.08 285.649 727.144 285.343C733.986 283.662 740.6 281.063 746.606 277.47V274.412C746.682 274.03 746.454 273.572 746.149 273.266Z" fill="#D34449"/>
<path fill-rule="evenodd" clip-rule="evenodd" d="M701.373 267.456C703.273 259.506 707.302 252.245 713.08 246.435C722.127 237.339 734.67 232.599 747.442 233.517C748.962 233.593 750.103 234.816 750.255 236.345C751.167 249.187 746.53 261.8 737.407 270.896C731.629 276.705 724.407 280.757 716.501 282.668C715.969 282.821 715.437 282.668 715.057 282.286L701.753 268.909C701.373 268.526 701.221 267.991 701.373 267.456Z" fill="#585973"/>
<path fill-rule="evenodd" clip-rule="evenodd" d="M702.741 257.748C705.706 245.441 711.94 234.128 720.91 225.185C734.974 211.043 754.36 203.781 774.201 205.234C775.57 205.31 776.786 205.998 777.546 206.992L714.068 270.743L703.349 259.965C702.741 259.354 702.513 258.589 702.741 257.748Z" fill="#ECEFF1"/>
<path fill-rule="evenodd" clip-rule="evenodd" d="M777.166 206.533C777.926 207.298 778.459 208.368 778.535 209.514C779.903 229.465 772.757 248.881 758.693 263.099C749.799 272.043 738.547 278.387 726.308 281.368C725.472 281.598 724.711 281.368 724.103 280.757L713.688 270.361L777.166 206.533Z" fill="#A7A39B"/>
<path fill-rule="evenodd" clip-rule="evenodd" d="M718.782 265.163L776.938 206.686C775.95 223.35 768.956 239.173 757.021 251.174C748.126 260.118 736.875 266.463 724.635 269.444C723.799 269.673 723.039 269.444 722.431 268.832L718.782 265.163Z" fill="#B7B5B1"/>
<path fill-rule="evenodd" clip-rule="evenodd" d="M721.595 278.311L713.688 270.361L728.132 255.837L728.893 256.602C729.197 256.908 729.425 257.366 729.425 257.825V269.75C729.425 270.208 729.273 270.59 728.893 270.973L721.595 278.311Z" fill="#A7A39B"/>
<path fill-rule="evenodd" clip-rule="evenodd" d="M750.939 207.527C758.389 205.463 766.219 204.622 774.201 205.157C776.558 205.31 778.383 207.145 778.535 209.514C779.067 217.464 778.307 225.338 776.178 232.905L750.939 207.527Z" fill="#FE6166"/>
<path fill-rule="evenodd" clip-rule="evenodd" d="M777.166 206.533C777.927 207.298 778.459 208.368 778.535 209.514C779.067 217.464 778.307 225.338 776.178 232.905L763.558 220.216L777.166 206.533Z" fill="#EA464B"/>
<path d="M754.342 247.46C759.299 242.474 759.299 234.392 754.342 229.407C749.384 224.421 741.345 224.421 736.387 229.407C731.43 234.392 731.43 242.474 736.387 247.46C741.345 252.445 749.384 252.445 754.342 247.46Z" fill="#B7B5B1"/>
<path fill-rule="evenodd" clip-rule="evenodd" d="M706.01 276.476L707.531 278.005C708.139 278.617 709.203 278.617 709.887 278.005L728.893 258.971C729.501 258.36 729.501 257.29 728.893 256.602L727.372 255.073C726.764 254.461 725.7 254.461 725.016 255.073L706.086 274.107C705.402 274.795 705.402 275.865 706.01 276.476Z" fill="#FE6166"/>
<path d="M752.487 247.85C756.405 243.91 756.405 237.521 752.487 233.581C748.568 229.64 742.214 229.64 738.295 233.581C734.376 237.521 734.376 243.91 738.295 247.85C742.214 251.791 748.568 251.791 752.487 247.85Z" fill="#A7A39B"/>
<path d="M752.461 245.568C756.379 241.628 756.379 235.239 752.461 231.298C748.542 227.358 742.188 227.358 738.269 231.298C734.351 235.239 734.351 241.628 738.269 245.568C742.188 249.508 748.542 249.508 752.461 245.568Z" fill="#FE6166"/>
<path d="M748.898 244.575C752.28 242.612 753.438 238.265 751.486 234.864C749.533 231.464 745.21 230.3 741.828 232.263C738.447 234.226 737.288 238.573 739.241 241.973C741.193 245.374 745.517 246.538 748.898 244.575Z" fill="#98CCD1"/>
<path fill-rule="evenodd" clip-rule="evenodd" d="M742.576 233.517C745.313 231.911 748.734 232.905 750.331 235.581C751.927 238.332 747.442 235.657 744.705 237.186C741.968 238.791 742.044 243.989 740.524 241.237C738.927 238.562 739.916 235.122 742.576 233.517Z" fill="#FEFFFF"/>
<path fill-rule="evenodd" clip-rule="evenodd" d="M706.542 251.404C709.963 242.154 715.361 233.67 722.355 226.637C731.173 217.77 742.044 211.655 753.828 208.597C742.729 213.566 732.162 220.827 723.039 230C716.501 236.498 710.952 243.76 706.542 251.404Z" fill="#FEFFFF"/>
<path fill-rule="evenodd" clip-rule="evenodd" d="M670.812 313.474C671.572 307.129 673.777 300.861 677.426 295.281C675.982 299.485 675.297 304.071 675.373 308.811C680.087 308.887 684.648 308.199 688.829 306.747C683.356 310.492 677.122 312.709 670.812 313.474Z" fill="#FECF66"/>
<path d="M691.702 245.124C697.61 239.183 701.822 233.787 701.109 233.07C700.397 232.354 695.03 236.589 689.122 242.529C683.214 248.47 679.002 253.866 679.715 254.583C680.427 255.299 685.794 251.064 691.702 245.124Z" fill="#FE7A7F"/>
<path d="M741.348 295.027C747.256 289.087 751.468 283.691 750.755 282.974C750.043 282.258 744.676 286.493 738.768 292.433C732.86 298.374 728.648 303.77 729.361 304.487C730.073 305.203 735.44 300.968 741.348 295.027Z" fill="#EA464B"/>
<path d="M716.525 270.13C722.433 264.19 726.645 258.793 725.933 258.077C725.22 257.36 719.853 261.595 713.945 267.536C708.037 273.476 703.826 278.873 704.538 279.589C705.251 280.306 710.618 276.071 716.525 270.13Z" fill="#FE7A7F"/>
<path fill-rule="evenodd" clip-rule="evenodd" d="M708.975 212.037L702.437 213.795C701.905 213.948 701.449 214.33 701.297 214.942C701.145 215.477 701.297 216.088 701.677 216.47L706.466 221.286C706.846 221.668 707.455 221.821 707.987 221.668C708.519 221.515 708.975 221.133 709.127 220.522L710.875 213.948C711.028 213.413 710.875 212.801 710.495 212.419C710.039 212.037 709.507 211.884 708.975 212.037Z" fill="#FEFFFF"/>
<path fill-rule="evenodd" clip-rule="evenodd" d="M716.197 205.387L710.799 206.839C710.343 206.992 709.963 207.298 709.887 207.756C709.735 208.215 709.887 208.673 710.191 209.056L714.144 213.031C714.525 213.336 714.981 213.489 715.437 213.336C715.893 213.183 716.273 212.878 716.349 212.419L717.793 206.992C717.945 206.533 717.793 206.074 717.489 205.692C717.109 205.387 716.653 205.234 716.197 205.387Z" fill="#FEFFFF"/>
<path fill-rule="evenodd" clip-rule="evenodd" d="M664.882 319.512C665.339 315.843 666.631 312.251 668.684 309.116C667.847 311.563 667.467 314.162 667.467 316.913C670.204 316.913 672.789 316.531 675.221 315.69C672.105 317.754 668.532 319.054 664.882 319.512Z" fill="#FECF66"/>
<path fill-rule="evenodd" clip-rule="evenodd" d="M679.783 260.577L646.409 307.664C646.485 307.664 659.257 282.439 679.783 260.577Z" fill="#FEFFFF"/>
<path fill-rule="evenodd" clip-rule="evenodd" d="M757.629 312.021H728.589C727.676 312.021 726.764 312.862 726.688 313.779L721.823 358.268L722.355 358.803C722.507 358.956 722.735 359.109 722.887 359.185C722.279 359.949 721.823 360.637 721.519 361.249L721.29 363.007C722.735 363.007 728.589 358.268 735.05 351.847C741.968 344.891 746.91 338.622 746.073 337.782C745.693 337.399 743.869 338.393 741.284 340.457V331.437V327.844V327.768L741.132 327.615C746.454 324.328 751.395 320.43 755.804 315.92C755.956 313.779 756.793 312.938 757.629 312.021Z" fill="#0099F9"/>
<path fill-rule="evenodd" clip-rule="evenodd" d="M742.272 332.049H781.804C782.944 332.049 783.704 332.966 783.552 334.112C783.4 335.259 782.26 336.176 781.119 336.176H741.588C740.448 336.176 739.688 335.259 739.84 334.112C740.068 333.042 741.132 332.049 742.272 332.049Z" fill="#FEFFFF"/>
<path fill-rule="evenodd" clip-rule="evenodd" d="M788.569 332.049H792.903C794.043 332.049 794.803 332.966 794.651 334.112C794.423 335.259 793.359 336.176 792.219 336.176H787.885C786.745 336.176 785.985 335.259 786.137 334.112C786.365 333.042 787.429 332.049 788.569 332.049Z" fill="#FEFFFF"/>
<path fill-rule="evenodd" clip-rule="evenodd" d="M743.641 324.022H768.044C769.184 324.022 769.944 324.94 769.792 326.086C769.564 327.233 768.5 328.15 767.359 328.15H742.957C741.816 328.15 741.056 327.233 741.208 326.086C741.36 325.016 742.5 324.022 743.641 324.022Z" fill="#FEFFFF"/>
<path fill-rule="evenodd" clip-rule="evenodd" d="M740.904 376.537H765.307C766.447 376.537 767.207 377.454 767.055 378.601C766.903 379.747 765.763 380.665 764.623 380.665H740.22C739.079 380.665 738.319 379.747 738.471 378.601C738.699 377.454 739.764 376.537 740.904 376.537Z" fill="#FDFAFF"/>
<path fill-rule="evenodd" clip-rule="evenodd" d="M739.84 384.869H754.056C755.196 384.869 756.032 385.786 755.88 386.933C755.728 388.08 754.74 388.997 753.6 388.997H739.384C738.243 388.997 737.407 388.08 737.559 386.933C737.635 385.786 738.699 384.869 739.84 384.869Z" fill="#FDFAFF"/>
<path fill-rule="evenodd" clip-rule="evenodd" d="M793.055 279.381H817.458C818.598 279.381 819.358 280.298 819.206 281.445C819.054 282.591 817.914 283.509 816.773 283.509H792.371C791.23 283.509 790.47 282.591 790.622 281.445C790.85 280.298 791.914 279.381 793.055 279.381Z" fill="#014874"/>
<path fill-rule="evenodd" clip-rule="evenodd" d="M792.143 287.407H805.066C806.207 287.407 807.043 288.325 806.891 289.471C806.739 290.618 805.75 291.535 804.61 291.535H791.686C790.546 291.535 789.71 290.618 789.862 289.471C790.014 288.401 791.002 287.407 792.143 287.407Z" fill="#014874"/>
<path fill-rule="evenodd" clip-rule="evenodd" d="M703.197 474.457H711.788C714.677 474.457 717.033 476.827 717.033 479.732C717.033 482.637 714.677 485.006 711.788 485.006H703.197C700.308 485.006 697.952 482.637 697.952 479.732C697.876 476.827 700.308 474.457 703.197 474.457Z" fill="#E35454"/>
<path fill-rule="evenodd" clip-rule="evenodd" d="M703.197 474.457H711.788C713.46 474.457 714.905 475.222 715.893 476.445C715.665 479.12 713.384 481.261 710.647 481.261H702.057C700.385 481.261 698.94 480.496 697.952 479.273C698.18 476.598 700.461 474.457 703.197 474.457Z" fill="#FF6161"/>
<path fill-rule="evenodd" clip-rule="evenodd" d="M702.285 473.464H705.022C708.443 473.464 711.256 476.292 711.256 479.732C711.256 483.172 708.443 486 705.022 486H702.285C698.864 486 696.051 483.172 696.051 479.732C696.051 476.292 698.788 473.464 702.285 473.464Z" fill="#D9E8F2"/>
<path fill-rule="evenodd" clip-rule="evenodd" d="M701.677 485.923C698.56 485.618 696.051 482.942 696.051 479.655C696.051 476.445 698.56 473.693 701.677 473.387C704.794 473.693 707.303 476.368 707.303 479.655C707.303 482.942 704.794 485.618 701.677 485.923Z" fill="#C5D2DB"/>
<path fill-rule="evenodd" clip-rule="evenodd" d="M594.563 473.464H698.94C702.361 473.464 705.174 476.292 705.174 479.732C705.174 483.172 702.361 486 698.94 486H594.563C591.142 486 588.329 483.172 588.329 479.732C588.329 476.292 591.142 473.464 594.563 473.464Z" fill="#F0BE4A"/>
<path fill-rule="evenodd" clip-rule="evenodd" d="M594.563 473.464H698.94C702.361 473.464 705.174 476.292 705.174 479.732H591.446C590.153 479.732 589.089 478.967 588.633 477.897C589.393 475.298 591.75 473.464 594.563 473.464Z" fill="#FFCF61"/>
<path fill-rule="evenodd" clip-rule="evenodd" d="M594.563 473.464H597.299C600.72 473.464 603.533 476.292 603.533 479.732C603.533 483.172 600.72 486 597.299 486H594.563C591.142 486 588.329 483.172 588.329 479.732C588.329 476.292 591.142 473.464 594.563 473.464Z" fill="#FFC18A"/>
<path fill-rule="evenodd" clip-rule="evenodd" d="M598.212 473.54C601.176 473.999 603.533 476.598 603.533 479.732C603.533 482.866 601.252 485.465 598.212 485.923C595.247 485.465 592.89 482.866 592.89 479.732C592.89 476.598 595.247 473.999 598.212 473.54Z" fill="#FFAB61"/>
<path fill-rule="evenodd" clip-rule="evenodd" d="M583.539 477.209H593.422C594.791 477.209 595.931 478.356 595.931 479.732C595.931 481.108 594.791 482.254 593.422 482.254H583.539C582.171 482.254 581.031 481.108 581.031 479.732C581.031 478.356 582.171 477.209 583.539 477.209Z" fill="#3F4C69"/>
<path fill-rule="evenodd" clip-rule="evenodd" d="M583.539 477.209H586.808C588.177 477.209 589.317 478.356 589.317 479.732C589.317 481.108 588.177 482.254 586.808 482.254H583.539C582.171 482.254 581.031 481.108 581.031 479.732C581.031 478.356 582.171 477.209 583.539 477.209Z" fill="#999999"/>
<path fill-rule="evenodd" clip-rule="evenodd" d="M623.831 478.356H629.532C630.293 478.356 630.901 478.967 630.901 479.732C630.901 480.496 630.293 481.108 629.532 481.108H623.831C623.071 481.108 622.462 480.496 622.462 479.732C622.462 478.967 623.071 478.356 623.831 478.356Z" fill="#E3B752"/>
<path fill-rule="evenodd" clip-rule="evenodd" d="M618.813 478.356H620.334C621.094 478.356 621.702 478.967 621.702 479.732C621.702 480.496 621.094 481.108 620.334 481.108H618.813C618.053 481.108 617.445 480.496 617.445 479.732C617.445 478.967 618.053 478.356 618.813 478.356Z" fill="#E3B752"/>
<path fill-rule="evenodd" clip-rule="evenodd" d="M583.235 478.738H584.528C585.06 478.738 585.516 479.197 585.516 479.732C585.516 480.267 585.06 480.726 584.528 480.726H583.235C582.703 480.726 582.247 480.267 582.247 479.732C582.247 479.197 582.627 478.738 583.235 478.738Z" fill="#B3B3B3"/>
<path fill-rule="evenodd" clip-rule="evenodd" d="M706.77 476.292C707.759 476.139 708.823 476.368 709.127 476.827C709.431 477.286 708.823 477.821 707.835 477.974C706.846 478.126 705.782 477.897 705.478 477.439C705.174 476.98 705.782 476.521 706.77 476.292Z" fill="white"/>
<path fill-rule="evenodd" clip-rule="evenodd" d="M688.297 474.61H696.127C697.116 474.61 698.028 475.451 698.028 476.445C698.028 477.439 697.192 478.279 696.127 478.279H688.297C687.309 478.279 686.473 477.439 686.473 476.445C686.473 475.451 687.309 474.61 688.297 474.61Z" fill="#FFDA82"/>
<path fill-rule="evenodd" clip-rule="evenodd" d="M606.878 474.84H612.58C613.34 474.84 613.948 475.451 613.948 476.215C613.948 476.98 613.34 477.591 612.58 477.591H606.878C606.118 477.591 605.51 476.98 605.51 476.215C605.51 475.451 606.118 474.84 606.878 474.84Z" fill="#FFDA82"/>
<path fill-rule="evenodd" clip-rule="evenodd" d="M495.811 461.386H574.569C566.891 461.386 558.452 467.731 555.944 475.451L551.306 489.516H472.472L477.109 475.451C479.694 467.731 488.132 461.386 495.811 461.386Z" fill="#EEF3F8"/>
<path fill-rule="evenodd" clip-rule="evenodd" d="M487.448 474.152H517.553C518.389 474.152 518.997 474.84 518.769 475.757C518.541 476.598 517.629 477.362 516.793 477.362H486.612C485.776 477.362 485.168 476.674 485.396 475.757C485.624 474.916 486.536 474.152 487.448 474.152Z" fill="#3F4C69"/>
<path fill-rule="evenodd" clip-rule="evenodd" d="M493.986 467.654H538.915C539.751 467.654 540.283 468.342 539.903 469.259C539.599 470.1 538.611 470.865 537.774 470.865H492.846C492.01 470.865 491.477 470.177 491.858 469.259C492.162 468.342 493.15 467.654 493.986 467.654Z" fill="#3F4C69"/>
<path fill-rule="evenodd" clip-rule="evenodd" d="M857.217 320.353L850.679 322.111C850.147 322.264 849.691 322.646 849.539 323.258C849.387 323.793 849.539 324.405 849.919 324.787L854.708 329.603C855.088 329.985 855.697 330.138 856.229 329.985C856.761 329.832 857.217 329.45 857.369 328.838L859.117 322.264C859.27 321.729 859.117 321.118 858.737 320.735C858.357 320.353 857.749 320.2 857.217 320.353Z" fill="#CCEBFF"/>
<path fill-rule="evenodd" clip-rule="evenodd" d="M485.624 281.598L479.086 283.356C478.554 283.509 478.098 283.891 477.946 284.502C477.794 285.038 477.946 285.649 478.326 286.031L483.115 290.847C483.495 291.229 484.103 291.382 484.635 291.229C485.168 291.076 485.624 290.694 485.776 290.083L487.524 283.509C487.676 282.974 487.524 282.362 487.144 281.98C486.764 281.598 486.232 281.445 485.624 281.598Z" fill="#CCEBFF"/>
<path fill-rule="evenodd" clip-rule="evenodd" d="M493.15 273.724L486.612 275.482C486.08 275.635 485.624 276.018 485.472 276.629C485.32 277.164 485.472 277.776 485.852 278.158L490.641 282.974C491.021 283.356 491.629 283.509 492.162 283.356C492.694 283.203 493.15 282.821 493.302 282.209L495.05 275.635C495.202 275.1 495.05 274.489 494.67 274.107C494.29 273.724 493.758 273.571 493.15 273.724Z" fill="#CCEBFF"/>
<path fill-rule="evenodd" clip-rule="evenodd" d="M411.123 461.386H456.736C461.753 461.386 465.858 465.514 465.858 470.559C465.858 475.604 461.753 479.732 456.736 479.732H411.123C406.105 479.732 402 475.604 402 470.559C402 465.514 406.105 461.386 411.123 461.386Z" fill="#4B86A7"/>
<path fill-rule="evenodd" clip-rule="evenodd" d="M642.304 364.077C633.486 376.919 629.532 392.284 631.813 408.718C633.334 419.344 637.287 429.51 643.368 438.836H635.082C631.053 431.192 628.316 423.166 627.176 414.834C624.439 395.647 630.293 378.066 642.304 364.077Z" fill="#FEFFFF"/>
<path fill-rule="evenodd" clip-rule="evenodd" d="M654.924 415.751C665.947 415.751 674.917 424.771 674.917 435.855C674.917 438.225 674.537 440.518 673.777 442.582H636.07C635.31 440.441 634.93 438.225 634.93 435.855C634.93 424.771 643.901 415.751 654.924 415.751Z" fill="#FEF5FA"/>
<path fill-rule="evenodd" clip-rule="evenodd" d="M640.175 422.248C642.456 419.726 645.345 417.815 648.614 416.745C649.906 416.439 651.199 416.21 652.567 416.057C659.789 415.522 665.719 418.503 665.719 422.784C665.719 427.064 659.865 431.039 652.567 431.574C645.345 432.109 639.415 429.128 639.415 424.847C639.491 424.007 639.719 423.089 640.175 422.248Z" fill="#FEFFFF"/>
<path fill-rule="evenodd" clip-rule="evenodd" d="M681.075 406.196C696.051 406.196 708.215 418.426 708.215 433.485C708.215 436.696 707.683 439.753 706.618 442.658H655.532C654.544 439.83 653.935 436.696 653.935 433.485C654.011 418.426 666.099 406.196 681.075 406.196Z" fill="#F7DEE7"/>
<path fill-rule="evenodd" clip-rule="evenodd" d="M661.157 415.063C664.198 411.7 668.151 409.101 672.561 407.648C674.233 407.19 676.058 406.884 677.958 406.731C687.765 405.967 695.747 410.094 695.747 415.904C695.747 421.713 687.765 427.064 677.958 427.829C668.151 428.593 660.169 424.465 660.169 418.656C660.093 417.433 660.473 416.21 661.157 415.063Z" fill="#FEFFFF"/>
<path fill-rule="evenodd" clip-rule="evenodd" d="M716.349 394.271C736.267 394.271 752.383 410.477 752.383 430.504C752.383 434.785 751.623 438.836 750.331 442.658H682.443C681.075 438.836 680.391 434.785 680.391 430.504C680.315 410.477 696.431 394.271 716.349 394.271Z" fill="#F4E7EC"/>
<path fill-rule="evenodd" clip-rule="evenodd" d="M689.818 406.043C693.923 401.533 699.092 398.093 704.946 396.182C707.226 395.571 709.583 395.189 712.092 394.959C725.168 393.965 735.735 399.393 735.735 407.113C735.735 414.834 725.168 421.943 712.092 422.936C699.016 423.93 688.449 418.503 688.449 410.782C688.449 409.101 688.981 407.572 689.818 406.043Z" fill="#FEFFFF"/>
<path fill-rule="evenodd" clip-rule="evenodd" d="M572.06 434.02C567.195 432.568 520.594 418.274 520.594 418.274C520.594 418.274 541.043 433.103 537.85 432.262C534.658 431.421 463.121 417.127 463.121 417.127L550.47 439.6L543.856 429.052L572.06 434.02Z" fill="#FEFFFF"/>
<path fill-rule="evenodd" clip-rule="evenodd" d="M644.813 435.931C650.666 434.479 707.15 420.185 707.15 420.185C707.15 420.185 682.291 435.014 686.244 434.173C690.122 433.332 776.786 419.038 776.786 419.038L670.888 441.511L678.946 430.963L644.813 435.931Z" fill="#FEFFFF"/>
</svg>
