<svg width="443" height="400" viewBox="0 0 443 400" fill="none" xmlns="http://www.w3.org/2000/svg">
<g id="hi-illustration">
<g id="Group">
<path id="Vector" d="M162.28 -1.52588e-06L4.38653e-06 65.3V342.9L162.28 277.6V-1.52588e-06Z" transform="translate(142.013 57.1)" fill="#8B9EB2"/>
<path id="Vector_2" d="M121.458 -1.52588e-06L0 49V293.8L121.315 244.9L121.458 -1.52588e-06Z" transform="translate(162.424 81.6)" fill="#3E5E70"/>
<path id="Vector_3" d="M0 -3.05176e-06L121.458 49L121.315 195.8L0 244.7V-3.05176e-06Z" transform="translate(162.424 130.7)" fill="#5C8094"/>
<path id="Vector_4" d="M121.746 48.9L4.38653e-06 3.05176e-06L0.14374 32.8L121.746 81.7L122.033 65.4L121.746 48.9Z" transform="translate(162.136 163.3)" fill="#3E5E70"/>
<path id="Vector_5" d="M182.547 8.1L162.136 0L-4.38653e-06 65.3L20.267 73.4L182.547 8.1Z" transform="translate(121.746 49)" fill="#9FB1C1"/>
<path id="Vector_6" d="M20.267 8.1V285.7L-4.38653e-06 277.6V3.05176e-06L20.267 8.1Z" transform="translate(121.746 114.3)" fill="#6F7B8C"/>
</g>
<path id="Vector_7" opacity="0.1" d="M121.746 49V326.6L0 277.6V3.05176e-06L121.746 49Z" transform="translate(0 65.3)" fill="url(#paint0_linear)"/>
<path id="Vector_8" opacity="0.1" d="M121.746 114.3L0 65.3L162.28 0L283.882 49L121.746 114.3Z" fill="url(#paint1_linear)"/>
<path id="Vector_9" d="M51.4581 28L31.1911 18.9L8.77306e-06 -1.52588e-06H30.9036L51.4581 28Z" transform="translate(354.458 81.6)" fill="#7C8A9B"/>
<g id="Group_2">
<path id="Vector_10" d="M15.6674 31.6L-8.77306e-06 25.3V1.2207e-05L15.6674 6.40001V31.6Z" transform="translate(254.991 357.7)" fill="#471006"/>
<path id="Vector_11" d="M235.011 -3.05176e-06L0.143742 94.6L-4.38653e-06 208.1L62.6697 182.9V208.1L94.0046 170.4L235.011 113.6V-3.05176e-06Z" transform="translate(207.989 181.2)" fill="#E85034"/>
<path id="Vector_12" d="M250.535 6.3L234.868 -6.10352e-06L-8.77306e-06 94.6L15.6674 100.9L250.535 6.3Z" transform="translate(192.465 174.9)" fill="#FB826C"/>
<path id="Vector_13" d="M-8.77306e-06 0V113.4L15.5237 119.8L15.6674 6.29999L-8.77306e-06 0Z" transform="translate(192.465 269.5)" fill="#A8301A"/>
<path id="Vector_14" opacity="0.1" d="M329.016 37.8L235.011 6.10352e-06L2.19327e-06 94.6L94.1483 132.4L329.016 37.8Z" transform="translate(98.3167 137.1)" fill="url(#paint2_linear)"/>
<path id="Vector_15" opacity="0.1" d="M94.1483 37.8L2.19327e-06 -3.05176e-06V113.4L94.1483 151.2V37.8Z" transform="translate(98.3167 231.7)" fill="url(#paint3_linear)"/>
</g>
<g id="Group_3">
<path id="Vector_16" d="M73.0188 60.9L52.0331 69.3V43.9L20.9857 56.4V81.8L-4.38653e-06 90.3V29.4L20.9857 20.9V45L52.0331 32.5V8.4L73.0188 6.10352e-06V60.9Z" transform="translate(256.141 254.6)" fill="white"/>
<path id="Vector_17" d="M20.9857 60.7L4.38653e-06 69.1V8.4L20.9857 -6.10352e-06V60.7Z" transform="translate(343.965 240.4)" fill="white"/>
<path id="Vector_18" d="M-1.75461e-05 63.3C-1.75461e-05 61.2 1.00616 59.1 3.16223 56.9C5.3183 54.7 7.90559 53 11.2116 51.7C14.3738 50.4 17.1048 50 19.2609 50.5C21.417 51 22.4231 52.2 22.4231 54.3C22.4231 56.4 21.417 58.5 19.2609 60.7C17.1048 62.9 14.5175 64.6 11.2116 65.9C8.04933 67.2 5.3183 67.6 3.16223 67.1C1.00616 66.6 -1.75461e-05 65.4 -1.75461e-05 63.3ZM19.5483 42.5L3.16223 49.1L0.574969 8.59999L22.1356 3.05176e-06L19.5483 42.5Z" transform="translate(379.18 225.8)" fill="white"/>
</g>
<g id="Group_4">
<path id="Vector_19" d="M234.868 0L4.38653e-06 94.6V142.2L166.592 76.4L197.783 95.2V63.9L234.868 47.7V0Z" transform="translate(208.132 52)" fill="#B0BFD6"/>
<path id="Vector_20" d="M250.535 6.4L234.868 -7.62939e-07L-8.77306e-06 94.6L15.6674 100.9L250.535 6.4Z" transform="translate(192.465 45.8)" fill="#C1CEE0"/>
<path id="Vector_21" d="M-8.77306e-06 -6.10352e-06V47.5L15.6674 53.8V6.3L-8.77306e-06 -6.10352e-06Z" transform="translate(192.465 140.4)" fill="#93A1B5"/>
<path id="Vector_22" opacity="0.1" d="M329.016 37.7L235.011 1.90735e-07L2.19327e-06 94.5L94.1483 132.3L329.016 37.7Z" transform="translate(98.3167 8.29999)" fill="url(#paint4_linear)"/>
<path id="Vector_23" opacity="0.1" d="M94.1483 37.8L2.19327e-06 -1.52588e-06V47.4L94.1483 85.3V37.8Z" transform="translate(98.3167 102.6)" fill="url(#paint5_linear)"/>
</g>
<g id="Group_5">
<path id="Vector_24" d="M10.3491 1.31053C13.3676 0.110531 15.8112 -0.289475 17.8235 0.210525C19.8358 0.710525 20.842 1.81052 20.842 3.71052C20.842 5.61052 19.8358 7.61053 17.8235 9.61053C15.8112 11.6105 13.3676 13.2105 10.3491 14.4105C7.33062 15.6105 4.88708 16.0105 2.87475 15.5105C0.862423 15.0105 -4.38653e-06 13.9105 -4.38653e-06 12.0105C-4.38653e-06 10.1105 1.00616 8.11053 2.87475 6.11053C4.74334 4.21053 7.18688 2.51053 10.3491 1.31053Z" transform="translate(325.854 113.489)" fill="white"/>
<path id="Vector_25" d="M10.3491 1.31053C13.3676 0.110529 15.8112 -0.289469 17.8235 0.210531C19.8358 0.610531 20.842 1.81053 20.842 3.71053C20.842 5.61053 19.8358 7.61053 17.8235 9.61053C15.8112 11.6105 13.3676 13.2105 10.3491 14.4105C7.33062 15.6105 4.88708 16.0105 2.87475 15.5105C0.862423 15.0105 -4.38653e-06 13.9105 -4.38653e-06 12.0105C-4.38653e-06 10.1105 1.00616 8.11052 2.87475 6.11052C4.88708 4.21052 7.33062 2.51053 10.3491 1.31053Z" transform="translate(360.351 99.5894)" fill="white"/>
<path id="Vector_26" d="M10.3491 1.31053C13.3676 0.110528 15.8112 -0.289471 17.8235 0.210529C19.8358 0.610529 20.842 1.81053 20.842 3.71053C20.842 5.61053 19.8358 7.61053 17.8235 9.61053C15.8112 11.6105 13.3676 13.2105 10.3491 14.4105C7.33063 15.6105 4.88707 16.0105 2.87474 15.5105C0.86241 15.0105 -1.75461e-05 13.9105 -1.75461e-05 12.0105C-1.75461e-05 10.1105 1.00615 8.11053 2.87474 6.11053C4.88707 4.11053 7.33063 2.51053 10.3491 1.31053Z" transform="translate(394.992 85.6895)" fill="white"/>
</g>
</g>
<defs>
<linearGradient id="paint0_linear" x2="1" gradientUnits="userSpaceOnUse" gradientTransform="translate(120.873 120.483) scale(-122.702 85.365) rotate(0.113833)">
<stop/>
<stop offset="1" stop-opacity="0"/>
</linearGradient>
<linearGradient id="paint1_linear" x2="1" gradientUnits="userSpaceOnUse" gradientTransform="translate(225.273 72.6613) scale(-121.957 84.847) rotate(-60)">
<stop/>
<stop offset="1" stop-opacity="0"/>
</linearGradient>
<linearGradient id="paint2_linear" x2="1" gradientUnits="userSpaceOnUse" gradientTransform="translate(228.855 78.2245) scale(-94.2418 65.5651) rotate(-59.9999)">
<stop/>
<stop offset="1" stop-opacity="0"/>
</linearGradient>
<linearGradient id="paint3_linear" x2="1" gradientUnits="userSpaceOnUse" gradientTransform="translate(94.1106 42.7489) scale(-94.2743 65.5877) rotate(0.100024)">
<stop/>
<stop offset="1" stop-opacity="0"/>
</linearGradient>
<linearGradient id="paint4_linear" x2="1" gradientUnits="userSpaceOnUse" gradientTransform="translate(228.921 78.1395) scale(-94.2418 65.565) rotate(-60)">
<stop/>
<stop offset="1" stop-opacity="0"/>
</linearGradient>
<linearGradient id="paint5_linear" x2="1" gradientUnits="userSpaceOnUse" gradientTransform="translate(94.0937 9.8482) scale(-94.1088 65.4725) rotate(0.0999379)">
<stop/>
<stop offset="1" stop-opacity="0"/>
</linearGradient>
</defs>
</svg>
